{"glyphs":{"0":{"ha":757,"x_min":12,"x_max":743,"o":"m 378 753 q 408 724 395 754 q 428 649 420 694 q 437 550 435 604 q 431 448 438 496 q 408 366 425 400 q 366 327 392 332 q 315 367 335 332 q 288 450 296 401 q 281 551 279 498 q 296 650 283 605 q 329 725 308 696 q 378 753 350 754 m 347 56 q 486 85 425 49 q 589 184 547 121 q 655 332 631 248 q 684 504 680 415 q 675 680 689 593 q 626 838 661 768 q 536 956 591 909 q 404 1013 480 1004 q 275 987 332 1021 q 175 889 217 952 q 107 742 133 826 q 74 568 81 658 q 78 391 66 479 q 123 231 90 302 q 212 111 157 159 q 347 56 267 64 m 342 -3 q 194 51 256 5 q 91 165 132 96 q 31 321 50 235 q 12 500 12 408 q 39 718 12 610 q 118 907 66 825 q 243 1036 170 990 q 411 1072 317 1082 q 559 1013 496 1061 q 662 894 621 966 q 723 733 703 822 q 743 551 743 644 q 718 341 743 444 q 642 159 692 239 q 516 35 591 80 q 343 -3 441 -11 l 342 -3 m 374 694 q 359 680 366 694 q 349 642 353 666 q 342 589 345 618 q 339 529 339 559 q 345 450 339 487 q 362 395 350 412 q 372 426 368 401 q 377 483 376 450 q 378 551 378 515 q 378 618 378 587 q 377 671 378 650 q 374 694 376 692 z "},"1":{"ha":761,"x_min":30,"x_max":731,"o":"m 631 62 q 661 111 651 76 q 671 184 671 145 q 663 259 671 224 q 639 309 655 294 l 494 308 l 495 1021 l 286 1021 l 117 916 q 112 848 107 887 q 129 774 117 808 q 159 722 141 741 q 193 715 176 703 l 286 753 l 282 308 l 133 307 q 102 265 113 301 q 89 186 91 229 q 95 107 87 144 q 123 62 103 71 l 631 62 m 111 4 q 75 29 90 12 q 50 68 60 46 q 35 118 39 91 q 30 172 30 145 q 36 235 30 203 q 54 294 42 267 q 84 339 66 320 q 125 365 102 358 l 224 366 q 224 441 224 407 q 226 510 225 476 q 227 581 227 544 q 228 666 228 618 q 225 665 227 666 q 222 663 224 663 q 163 661 194 647 q 108 706 133 674 q 67 782 83 738 q 52 871 52 826 q 56 908 52 887 q 69 954 61 929 l 271 1080 l 555 1080 l 552 366 q 608 367 578 366 q 659 368 637 368 q 713 288 694 336 q 731 189 731 239 q 711 84 731 136 q 650 4 692 33 l 111 4 z "},"2":{"ha":765,"x_min":20,"x_max":743,"o":"m 648 58 q 673 120 666 87 q 681 186 681 153 q 675 250 681 220 q 662 304 670 281 l 397 290 q 494 373 448 326 q 579 479 541 420 q 644 605 617 537 q 684 749 671 673 q 648 907 685 848 q 551 990 610 966 q 421 1006 492 1015 q 285 964 350 998 q 171 873 220 930 q 107 741 122 815 q 121 677 107 708 q 156 625 136 646 q 199 600 176 605 q 237 614 221 595 q 260 655 244 632 q 298 701 277 678 q 346 744 320 724 q 396 774 372 764 q 441 783 420 785 q 476 761 463 781 q 455 681 480 736 q 381 557 430 625 q 264 418 332 490 q 117 289 197 346 q 79 183 79 245 q 103 57 79 121 l 648 58 m 62 -1 q 28 94 35 50 q 20 175 20 138 q 35 257 20 216 q 81 335 50 298 q 203 436 146 381 q 303 545 259 491 q 376 645 347 598 q 415 722 406 692 q 376 699 396 715 q 340 663 357 682 q 309 623 323 643 q 290 587 296 602 q 208 540 252 540 q 152 557 180 540 q 100 605 123 575 q 62 671 77 635 q 49 747 47 708 q 104 880 64 821 q 201 980 145 939 q 323 1044 258 1021 q 453 1067 389 1067 q 565 1049 511 1067 q 658 992 618 1031 q 720 893 697 954 q 742 749 743 833 q 676 530 724 628 q 560 357 628 433 q 635 361 600 359 q 703 365 671 362 q 728 272 718 319 q 739 189 739 225 q 726 100 739 148 q 682 0 713 52 l 62 -1 z "},"3":{"ha":777,"x_min":22,"x_max":757,"o":"m 80 307 q 130 180 95 232 q 211 98 164 127 q 313 58 258 68 q 422 58 368 49 q 528 96 477 68 q 616 168 578 123 q 675 273 654 213 q 694 407 697 332 q 679 505 694 457 q 635 592 663 552 q 570 661 608 632 q 490 701 533 689 l 563 808 q 593 869 586 838 q 599 925 601 899 q 589 970 597 951 q 576 1000 582 990 l 152 1000 q 103 955 119 981 q 84 901 87 929 q 90 844 81 872 q 118 795 99 817 l 339 795 l 205 684 q 189 644 193 667 q 195 600 186 621 q 226 560 205 578 q 283 537 247 543 q 373 561 334 567 q 439 530 412 555 q 478 468 465 505 q 487 399 491 431 q 465 342 484 363 q 418 313 446 321 q 358 307 391 304 q 294 323 326 311 q 238 359 263 336 q 201 414 213 382 q 165 402 186 412 q 126 376 145 392 q 94 342 107 361 q 80 307 81 323 m 22 311 q 47 363 23 335 q 104 416 71 392 q 174 456 137 439 q 237 476 210 473 q 298 394 259 423 q 373 365 338 365 q 410 374 395 365 q 427 404 426 384 q 425 437 429 419 q 413 469 422 454 q 391 494 404 484 q 361 503 378 503 q 294 477 342 503 q 220 499 251 483 q 169 538 189 515 q 140 585 149 560 q 130 635 130 610 q 159 722 130 682 l 176 736 l 91 736 q 42 812 60 773 q 24 888 24 852 q 51 979 24 935 q 137 1058 77 1024 l 608 1058 q 640 994 623 1035 q 658 913 658 954 q 646 845 658 882 q 610 773 635 808 q 600 757 602 761 q 595 750 597 753 q 590 743 593 747 q 578 726 587 739 q 648 668 616 703 q 703 592 680 633 q 739 504 726 551 q 753 410 753 457 q 724 235 757 312 q 637 104 692 157 q 511 24 582 52 q 368 -4 441 -4 q 256 14 311 -4 q 154 68 201 31 q 73 161 107 104 q 23 294 39 217 l 22 311 z "},"4":{"ha":747,"x_min":18,"x_max":728,"o":"m 385 88 q 431 66 401 73 q 490 60 460 58 q 549 73 521 62 q 591 104 576 84 l 590 513 q 605 513 600 513 q 614 514 610 514 q 623 515 618 514 q 637 515 628 515 q 661 552 652 522 q 669 618 669 582 q 664 686 670 654 q 644 728 658 718 l 586 727 l 586 966 q 542 1006 571 996 q 481 1014 513 1017 q 420 996 449 1010 q 378 964 392 982 l 376 727 l 275 727 q 276 779 275 747 q 277 846 277 811 q 277 913 277 882 q 278 966 278 945 q 239 1004 271 994 q 170 1010 206 1013 q 106 994 134 1006 q 79 967 77 982 l 76 513 l 376 509 l 385 88 m 317 450 q 163 452 244 450 q 18 456 81 454 l 20 967 q 35 1005 20 986 q 75 1038 50 1024 q 130 1061 99 1053 q 191 1070 160 1070 q 273 1053 235 1070 q 330 996 312 1035 q 406 1050 358 1028 q 498 1072 453 1072 q 581 1051 541 1072 q 646 979 620 1031 l 646 787 l 663 787 q 712 715 696 761 q 728 627 728 670 q 709 525 728 574 q 648 457 689 476 q 649 271 648 365 q 650 88 650 176 q 572 23 620 45 q 477 1 525 1 q 399 17 439 1 q 326 62 358 33 l 317 450 z "},"5":{"ha":719,"x_min":1,"x_max":713,"o":"m 68 353 q 132 178 83 244 q 247 83 182 111 q 384 65 312 56 q 516 117 456 75 q 616 235 576 160 q 655 415 655 311 q 621 528 655 477 q 536 618 587 579 q 428 681 486 656 q 323 716 370 705 l 324 792 l 604 796 q 622 838 617 808 q 624 901 627 867 q 612 964 621 935 q 586 1009 602 994 l 77 1004 l 80 594 q 187 572 127 583 q 299 541 247 562 q 387 484 351 519 q 426 389 423 448 q 381 307 414 326 q 314 300 349 288 q 250 351 279 313 q 214 441 221 389 q 168 467 197 465 q 113 454 138 468 q 73 412 88 439 q 68 353 57 385 m 350 4 q 235 24 290 4 q 133 87 179 45 q 54 193 87 129 q 9 343 22 256 q 9 408 1 377 q 37 463 18 439 q 84 503 57 487 q 140 522 111 518 q 128 524 133 524 q 118 526 123 525 q 98 531 111 528 q 69 537 84 534 q 41 543 54 540 q 22 548 27 547 l 19 1062 l 608 1067 q 640 1029 625 1051 q 664 982 654 1008 q 679 930 674 956 q 684 879 684 903 q 669 804 684 841 q 628 738 655 766 l 449 735 q 544 682 496 713 q 629 610 591 651 q 690 521 666 570 q 713 415 713 472 q 682 239 713 316 q 600 111 651 163 q 483 31 548 58 q 350 4 418 4 m 368 392 q 325 460 365 435 q 232 500 285 486 q 269 463 251 490 q 298 384 275 415 q 343 353 320 353 q 356 361 350 353 q 368 392 362 369 z "},"6":{"ha":783,"x_min":27,"x_max":755,"o":"m 358 301 q 358 371 346 339 q 393 422 370 403 q 442 446 416 442 q 483 433 468 450 q 487 366 498 399 q 454 311 476 332 q 404 283 431 289 q 358 301 376 278 m 90 317 q 131 196 99 247 q 210 115 163 145 q 318 73 258 84 q 445 72 378 62 q 580 144 526 96 q 662 250 633 191 q 695 372 690 308 q 686 491 700 435 q 637 589 671 547 q 555 646 604 631 q 446 644 507 661 q 312 566 384 628 q 328 639 308 593 q 384 730 347 685 q 472 807 420 774 q 586 841 524 840 q 600 907 604 878 q 583 958 595 936 q 554 995 570 981 q 530 1016 538 1009 q 388 990 453 1017 q 271 913 323 963 q 182 797 220 864 q 121 652 144 730 q 90 488 98 574 q 90 317 81 403 m 31 313 q 27 401 27 354 q 62 652 27 530 q 163 869 96 774 q 328 1019 231 963 q 552 1074 426 1076 q 606 1035 581 1066 q 644 961 631 1004 q 654 871 656 918 q 623 784 651 825 q 507 758 556 783 q 429 700 458 732 q 467 709 448 707 q 505 711 486 711 q 609 686 563 711 q 688 618 655 661 q 738 521 720 576 q 755 404 755 465 q 739 287 755 346 q 686 176 722 228 q 594 81 650 123 q 461 16 538 39 q 418 11 437 12 q 381 9 399 9 q 255 28 315 9 q 149 85 195 47 q 72 180 103 123 q 31 311 41 236 l 31 313 z "},"7":{"ha":791,"x_min":9,"x_max":781,"o":"m 704 1002 l 144 1005 q 83 954 100 989 q 68 883 66 918 q 84 820 69 848 q 119 789 99 792 l 397 777 l 176 87 q 311 46 244 47 q 446 88 377 45 l 704 1002 m 496 53 q 400 3 446 19 q 312 -12 354 -12 q 218 6 269 -12 q 106 58 167 24 l 319 722 q 214 726 266 724 q 110 731 161 728 q 71 748 90 734 q 39 783 53 762 q 18 831 26 804 q 9 887 9 859 q 16 939 9 913 q 37 988 23 964 q 75 1031 52 1012 q 133 1063 99 1051 l 781 1061 l 496 53 z "},"8":{"ha":852,"x_min":23,"x_max":829,"o":"m 397 864 q 437 850 423 864 q 456 817 452 837 q 458 772 461 796 q 445 729 454 749 q 422 696 435 709 q 392 686 408 684 q 330 710 349 685 q 314 767 312 735 q 338 828 316 799 q 397 864 359 857 m 433 491 q 497 448 477 481 q 515 377 517 414 q 490 311 513 340 q 430 282 468 282 q 361 294 385 279 q 330 331 338 308 q 327 381 321 354 q 347 432 332 408 q 385 473 362 456 q 433 491 407 490 m 400 61 q 552 91 481 58 q 673 175 623 123 q 749 292 723 227 q 769 420 776 357 q 720 538 762 484 q 589 624 677 593 q 645 682 628 646 q 659 762 662 719 q 635 848 656 804 q 578 929 614 892 q 493 990 543 966 q 385 1017 444 1015 q 287 999 332 1020 q 208 942 241 978 q 154 860 174 906 q 133 764 134 814 q 151 665 132 713 q 214 576 170 616 q 114 469 145 526 q 81 355 83 411 q 106 245 80 298 q 175 153 132 193 q 277 87 218 113 q 400 61 335 62 m 399 3 q 255 33 323 4 q 136 111 187 62 q 54 221 84 159 q 23 351 23 283 q 48 471 23 411 q 130 585 73 530 q 87 668 100 624 q 75 758 75 712 q 98 878 75 819 q 164 981 122 936 q 263 1052 206 1025 q 387 1076 320 1078 q 522 1041 461 1073 q 627 962 583 1009 q 694 859 670 916 q 718 749 718 802 q 711 692 718 720 q 689 640 704 663 q 798 532 766 594 q 829 396 829 469 q 795 253 829 324 q 704 125 762 182 q 568 35 646 69 q 399 3 490 0 m 429 340 q 451 353 445 340 q 456 380 457 365 q 448 411 456 396 q 429 431 441 426 q 401 412 414 427 q 385 381 388 397 q 391 353 382 365 q 429 340 400 340 m 429 431 q 433 435 433 434 q 431 437 433 437 q 428 435 430 437 q 429 431 426 433 m 396 745 q 401 753 397 743 q 409 774 406 762 q 411 796 412 787 q 399 804 410 806 q 383 801 391 810 q 374 780 376 792 q 376 756 372 768 q 396 745 381 745 z "},"9":{"ha":724,"x_min":15,"x_max":708,"o":"m 342 814 q 386 806 369 818 q 410 776 403 795 q 415 732 416 757 q 404 686 414 708 q 378 648 395 665 q 339 628 362 632 q 289 637 308 625 q 262 669 270 650 q 257 713 255 689 q 270 759 259 738 q 299 795 281 780 q 342 814 317 811 m 380 94 q 439 54 399 64 q 519 47 479 45 q 588 61 559 50 q 616 84 617 72 q 637 328 629 224 q 648 506 646 431 q 649 633 651 581 q 643 722 647 685 q 631 787 639 760 q 616 844 624 815 q 565 930 597 894 q 493 986 533 966 q 406 1008 453 1006 q 309 990 359 1009 q 194 924 245 966 q 112 829 142 882 q 75 713 81 776 q 94 585 68 651 q 146 505 113 536 q 221 459 179 473 q 309 447 263 445 q 401 467 355 449 l 380 94 m 339 391 q 318 388 327 388 q 297 388 309 388 q 144 430 214 388 q 38 562 75 472 q 20 626 26 594 q 15 689 15 658 q 35 803 15 749 q 92 903 56 857 q 179 985 129 948 q 288 1044 229 1021 q 399 1066 347 1066 q 562 1011 490 1066 q 673 859 633 956 q 686 808 680 833 q 698 751 693 783 q 705 681 703 720 q 708 587 708 642 q 701 384 708 506 q 675 79 693 262 l 675 80 q 657 47 673 64 q 617 17 642 30 q 562 -4 593 4 q 499 -12 532 -12 q 401 8 450 -12 q 320 77 353 28 l 339 391 m 349 755 q 330 742 339 753 q 316 719 320 731 q 315 696 312 707 q 331 685 317 685 q 347 698 340 686 q 355 722 353 709 q 355 745 357 735 q 349 755 354 755 z "}," ":{"ha":543,"x_min":0,"x_max":0,"o":""}," ":{"ha":543,"x_min":0,"x_max":0,"o":""},"\"":{"ha":966,"x_min":39,"x_max":922,"o":"m 441 643 q 381 623 406 631 q 339 610 357 614 q 309 604 321 606 q 283 602 296 602 q 186 628 232 602 q 106 697 140 654 q 56 795 72 741 q 46 910 39 850 q 80 998 57 959 q 134 1063 103 1036 q 200 1105 164 1090 q 271 1119 236 1119 q 358 1097 319 1119 q 440 1015 412 1066 q 468 911 468 963 q 438 810 468 854 q 347 754 408 766 q 366 732 351 750 q 397 695 381 715 q 425 660 412 675 q 441 643 438 644 m 882 590 q 792 550 822 559 q 739 541 762 541 q 640 567 686 541 q 560 635 594 593 q 510 733 526 678 q 500 848 494 788 q 535 935 511 897 q 589 1001 559 974 q 655 1042 620 1028 q 726 1057 690 1057 q 814 1035 772 1057 l 812 1035 q 895 952 867 1004 q 922 849 922 901 q 892 748 922 792 q 802 692 863 704 q 819 671 807 688 q 845 637 831 655 q 869 606 859 620 q 882 590 880 591 m 808 616 q 787 630 803 618 q 755 659 770 642 q 729 701 739 677 q 726 754 719 726 q 822 764 788 739 q 863 828 856 788 q 849 913 869 868 q 784 983 829 958 q 718 998 753 1000 q 652 977 684 996 q 595 923 620 958 q 559 840 570 888 q 571 732 552 783 q 627 646 590 681 q 711 602 663 612 q 808 616 758 591 m 353 678 q 332 692 349 681 q 300 722 316 704 q 273 764 283 739 q 271 817 263 788 q 366 826 332 802 q 407 890 400 850 q 394 975 414 930 q 330 1046 374 1020 q 264 1060 298 1062 q 197 1039 229 1058 q 140 985 165 1020 q 104 902 115 951 q 117 794 98 845 q 172 709 136 743 q 256 664 208 674 q 353 678 304 654 z "},")":{"ha":712,"x_min":37,"x_max":675,"o":"m 121 194 q 111 89 104 126 q 133 33 118 52 q 167 9 148 15 q 194 0 186 4 l 197 0 q 348 94 271 33 q 486 232 425 155 q 585 398 548 309 q 617 575 623 487 q 573 757 613 665 q 469 926 533 849 q 324 1055 406 1002 q 156 1116 243 1107 q 117 1090 132 1114 q 97 1037 102 1067 q 96 977 92 1006 q 111 930 99 947 q 161 909 121 930 q 250 845 202 887 q 339 739 298 803 q 389 591 380 675 q 370 476 395 537 q 304 359 345 415 q 213 258 263 302 q 121 194 163 214 m 95 247 q 176 302 133 264 q 254 388 218 340 q 311 488 289 435 q 331 586 334 540 q 283 707 320 654 q 203 797 245 760 q 123 854 160 834 q 79 873 87 873 q 47 937 58 903 q 37 1001 37 970 q 43 1061 37 1031 q 65 1115 50 1090 q 102 1156 80 1139 q 157 1175 125 1172 q 283 1139 221 1168 q 402 1065 346 1109 q 506 964 458 1021 q 590 842 553 906 q 648 711 627 779 q 675 579 670 643 q 631 385 675 484 q 517 199 587 286 q 361 42 448 111 q 193 -64 275 -27 q 98 -15 133 -52 q 52 67 64 22 q 52 161 41 113 q 95 247 64 210 z "},"*":{"ha":808,"x_min":38,"x_max":770,"o":"m 218 685 l 141 685 q 107 644 118 669 q 97 590 96 618 q 109 533 98 562 q 141 480 121 505 l 231 480 l 180 389 q 201 339 184 361 q 242 304 217 317 q 298 288 267 292 q 359 290 328 283 l 399 359 l 442 279 q 509 275 476 264 q 566 304 541 285 q 607 347 591 324 q 623 378 623 369 l 567 479 l 673 479 q 709 534 703 500 q 711 599 716 567 q 693 655 705 631 q 673 685 681 680 l 578 685 l 629 777 q 599 836 624 814 q 543 868 574 857 q 486 880 513 879 q 450 878 458 882 l 399 785 l 349 876 q 294 886 321 888 q 243 869 267 883 q 199 831 218 854 q 168 777 179 807 l 218 685 m 114 796 q 146 856 126 829 q 191 903 165 883 q 244 935 216 924 q 304 945 273 945 q 392 921 339 945 l 399 906 q 403 913 401 910 q 407 921 404 917 q 439 926 416 926 q 492 922 463 926 q 555 905 522 917 q 616 874 587 894 q 665 826 644 854 q 690 760 685 798 l 677 743 l 688 743 q 713 720 699 736 q 740 678 727 703 q 762 625 753 654 q 770 568 770 597 q 754 493 770 530 q 693 420 738 456 l 666 420 q 674 405 670 412 q 682 391 678 397 q 665 347 681 377 q 621 288 648 317 q 558 235 594 258 q 483 213 522 213 q 448 218 468 213 q 401 233 427 222 l 399 237 q 355 230 374 232 q 321 228 335 228 q 248 241 285 228 q 181 274 212 254 q 130 319 151 294 q 107 368 110 345 l 130 422 l 114 422 q 57 509 76 465 q 38 593 38 553 q 58 671 38 632 q 121 742 77 711 l 117 749 l 114 796 z "},"#":{"ha":1080,"x_min":38,"x_max":1040,"o":"m 488 624 l 579 621 l 579 509 l 488 511 l 488 624 m 579 146 q 626 118 600 125 q 680 114 652 111 q 730 126 707 117 q 769 146 754 136 l 769 315 l 926 309 q 958 346 947 317 q 970 406 968 374 q 961 465 971 438 q 929 498 951 492 l 769 503 l 769 616 l 937 609 q 969 650 958 618 q 981 715 981 681 q 972 779 982 750 q 941 814 963 808 l 769 819 l 769 979 q 731 1010 760 1000 q 670 1021 703 1020 q 611 1011 637 1021 q 579 979 585 1001 l 579 826 l 488 829 l 488 979 q 451 1010 479 1000 q 393 1021 423 1020 q 336 1011 362 1021 q 307 979 311 1001 l 307 834 l 145 840 q 115 792 122 821 q 109 733 107 764 q 120 676 111 703 q 140 635 129 650 l 307 629 l 307 517 l 133 524 q 103 478 110 505 q 98 425 96 452 q 109 374 100 399 q 129 335 118 350 l 307 330 l 307 146 q 351 118 326 125 q 403 114 377 111 q 451 126 429 117 q 488 146 473 136 l 488 324 l 579 321 l 579 146 m 663 56 q 599 67 632 56 q 534 110 566 79 q 463 72 503 88 q 387 56 422 56 q 317 70 353 56 q 248 123 282 84 l 248 273 q 169 275 209 274 q 98 278 129 277 q 76 312 87 293 q 57 353 65 331 q 43 396 49 374 q 38 438 38 418 q 54 510 38 473 q 109 579 71 547 q 68 658 87 610 q 50 747 50 705 q 67 826 50 787 q 123 899 84 865 l 248 894 l 248 985 q 300 1056 258 1032 q 391 1080 342 1080 q 469 1063 430 1080 q 533 1015 509 1046 q 589 1063 552 1047 q 667 1080 625 1080 q 715 1074 690 1080 q 761 1057 739 1067 q 800 1029 783 1046 q 827 993 818 1013 l 827 878 q 890 875 863 876 q 952 872 918 873 q 1019 819 998 861 q 1040 723 1040 776 q 1017 623 1040 673 q 952 552 994 574 q 1010 498 991 537 q 1029 414 1029 460 q 1023 365 1029 389 q 1005 319 1017 340 q 976 279 993 297 q 937 251 959 260 l 827 256 l 827 119 q 751 76 796 96 q 663 56 705 56 z "},":":{"ha":503,"x_min":81,"x_max":420,"o":"m 254 602 q 312 620 288 604 q 349 661 336 636 q 362 713 361 685 q 352 765 363 741 q 316 805 340 789 q 254 822 292 821 q 191 801 216 818 q 155 760 167 784 q 144 707 144 735 q 157 656 144 680 q 193 618 170 633 q 254 602 217 602 m 250 209 q 308 227 283 210 q 345 268 332 244 q 358 320 357 292 q 348 372 359 349 q 312 412 336 396 q 250 429 288 429 q 187 408 212 426 q 151 366 163 391 q 140 315 140 342 q 153 264 140 288 q 189 224 165 240 q 250 209 213 209 m 248 151 q 176 165 208 151 q 124 202 145 179 q 92 255 103 225 q 81 316 81 285 q 92 375 81 346 q 122 428 102 404 q 173 468 142 452 q 245 487 203 484 q 321 473 289 487 q 375 435 354 458 q 406 383 396 412 q 416 324 416 354 q 406 262 416 293 q 374 208 395 232 q 323 168 354 183 q 252 151 293 152 l 248 151 m 252 544 q 180 558 212 544 q 128 595 149 572 q 96 647 107 617 q 85 708 85 677 q 96 768 85 738 q 126 821 106 798 q 177 861 146 845 q 250 880 208 878 q 325 866 293 880 q 378 829 357 852 q 410 777 400 806 q 420 716 420 747 q 410 654 420 685 q 378 600 399 624 q 327 560 358 575 q 255 544 296 545 l 252 544 z "},"+":{"ha":825,"x_min":68,"x_max":757,"o":"m 507 483 l 646 483 q 684 521 670 496 q 699 572 697 545 q 688 625 700 600 q 650 666 675 651 l 507 666 l 507 837 q 477 881 502 868 q 421 892 452 894 q 361 875 391 890 q 316 837 331 860 l 316 666 l 179 666 q 127 556 126 604 q 179 483 127 509 l 316 483 l 316 288 q 335 260 311 275 q 394 237 359 244 q 462 240 429 231 q 507 288 495 250 l 507 483 m 563 271 q 509 197 548 217 q 426 176 471 176 q 364 188 395 176 q 310 217 334 199 q 272 256 286 235 q 258 296 258 277 l 258 288 l 258 425 l 165 425 q 68 557 68 472 q 152 724 68 625 l 258 724 l 258 852 q 292 893 271 875 q 335 924 312 911 q 382 943 358 936 q 430 949 407 949 q 517 924 479 949 q 566 840 555 898 l 566 724 l 666 724 q 734 657 712 697 q 757 576 757 617 q 732 491 757 532 q 662 425 708 450 l 566 425 l 563 271 z "},";":{"ha":511,"x_min":72,"x_max":444,"o":"m 251 480 q 310 498 286 481 q 347 538 334 514 q 360 591 359 563 q 349 643 361 618 q 313 683 338 667 q 251 700 289 699 q 168 661 195 696 q 142 586 141 625 q 170 513 142 547 q 251 480 197 480 m 176 -60 q 254 -71 216 -80 q 323 -35 293 -62 q 368 35 353 -7 q 378 122 384 76 q 349 190 369 161 q 302 234 328 218 q 247 251 275 250 q 194 239 218 252 q 142 182 157 218 q 132 113 126 146 q 164 60 137 80 q 241 53 191 41 q 239 10 247 30 q 219 -24 232 -9 q 193 -49 206 -39 q 176 -60 180 -58 m 88 -71 q 137 -28 121 -53 q 157 -3 153 -4 q 93 50 114 14 q 72 130 72 87 q 95 218 72 174 q 165 289 118 263 q 243 311 201 311 q 304 298 274 311 q 361 263 335 286 q 408 207 388 240 q 437 132 427 174 q 429 33 444 80 q 386 -52 415 -15 q 317 -110 357 -88 q 232 -132 277 -132 q 210 -130 221 -132 q 182 -121 198 -127 q 144 -103 167 -115 q 88 -71 121 -91 m 250 422 q 178 436 209 422 q 125 473 146 450 q 94 526 104 496 q 83 587 83 556 q 93 646 83 617 q 123 699 103 675 q 175 739 144 723 q 248 758 206 755 q 323 744 292 758 q 376 707 355 730 q 408 654 397 684 q 418 595 418 625 q 407 534 418 564 q 376 479 396 503 q 325 439 355 454 q 254 422 294 423 l 250 422 z "},"$":{"ha":833,"x_min":16,"x_max":815,"o":"m 289 712 q 293 749 278 731 q 339 781 308 766 l 334 673 q 305 692 317 682 q 289 712 293 701 m 492 412 q 537 357 525 381 q 547 313 549 332 q 527 280 544 293 q 486 259 510 267 l 492 412 m 307 -26 q 357 -58 332 -50 q 402 -62 381 -65 q 441 -46 423 -58 q 475 -20 460 -34 l 479 76 q 606 122 549 90 q 699 198 662 155 q 749 292 735 241 q 751 392 764 342 q 696 489 739 442 q 575 571 652 536 q 540 585 559 578 q 500 601 521 593 l 509 810 q 543 806 519 810 q 591 799 566 803 q 638 790 616 795 q 670 781 661 785 q 704 794 688 774 q 726 843 720 814 q 723 904 731 872 q 685 955 715 936 q 649 962 673 958 q 599 972 625 967 q 549 980 572 977 q 514 985 525 983 l 518 1104 q 478 1139 505 1127 q 424 1151 452 1152 q 374 1137 396 1150 q 350 1099 353 1124 l 346 981 q 236 944 286 968 q 150 885 186 920 q 94 809 114 850 q 75 723 75 768 q 98 635 75 673 q 159 568 122 597 q 240 520 195 540 q 327 487 285 500 l 317 259 q 287 262 307 259 q 244 273 267 264 q 197 296 221 281 q 156 336 174 311 q 117 306 132 327 q 103 254 103 285 q 121 186 103 224 q 178 109 138 149 q 245 85 212 94 q 311 73 278 77 l 307 -26 m 250 24 q 145 58 201 37 q 68 165 91 115 q 45 255 45 216 q 80 345 45 305 q 176 406 115 384 q 224 352 203 369 q 262 328 245 335 q 264 382 263 353 q 267 445 266 412 q 178 486 222 463 q 97 543 133 510 q 39 621 61 576 q 16 723 16 665 q 36 820 16 773 q 92 907 56 867 q 178 977 127 947 q 289 1025 228 1008 q 290 1068 290 1047 q 292 1108 290 1089 q 338 1185 298 1160 q 426 1210 377 1210 q 510 1186 468 1210 q 578 1118 552 1162 l 574 1035 q 610 1029 590 1032 q 648 1022 629 1025 q 682 1015 666 1019 q 708 1009 699 1012 q 769 945 751 983 q 787 869 787 907 q 775 806 787 837 q 745 755 764 776 q 701 725 726 734 q 650 727 675 716 l 651 727 q 616 735 640 730 q 564 745 591 741 q 562 696 563 719 q 559 639 560 674 q 566 637 563 637 q 574 635 570 636 q 591 627 582 631 q 605 623 600 624 q 766 497 716 571 q 815 345 815 423 q 795 246 815 294 q 738 157 774 198 q 650 83 701 115 q 536 31 598 50 q 534 -12 534 8 q 533 -49 534 -31 q 465 -98 502 -76 q 387 -121 427 -121 q 323 -105 358 -121 q 248 -50 289 -90 l 250 24 z "},",":{"ha":415,"x_min":23,"x_max":393,"o":"m 126 -24 q 205 -36 167 -45 q 273 1 244 -27 q 318 70 302 28 q 328 157 334 111 q 298 225 319 197 q 252 269 278 254 q 198 286 227 285 q 145 274 170 288 q 93 218 109 254 q 83 149 77 182 q 115 96 88 115 q 193 88 142 76 q 190 45 198 65 q 169 11 182 26 q 143 -14 156 -4 q 126 -24 130 -23 m 47 -35 q 56 -24 47 -35 q 76 -1 65 -14 q 96 21 87 11 q 109 33 106 31 q 44 85 65 49 q 23 165 23 122 q 46 254 23 209 q 117 324 69 298 q 194 346 152 346 q 256 334 225 346 q 313 298 286 321 q 359 242 339 275 q 388 167 378 209 q 379 68 393 115 q 336 -16 365 20 q 268 -75 308 -53 q 183 -96 228 -96 q 102 -77 142 -96 l 47 -35 z "},"<":{"ha":754,"x_min":56,"x_max":703,"o":"m 536 229 q 591 256 570 231 q 623 316 613 282 q 635 384 633 350 q 631 434 636 418 l 387 556 l 647 670 q 652 717 659 686 q 629 778 646 747 q 592 831 613 808 q 555 854 571 853 l 125 656 l 115 463 l 536 229 m 56 429 l 68 694 l 545 914 q 585 905 563 918 q 627 869 606 892 q 666 813 648 845 q 693 747 684 781 q 701 681 703 713 q 684 623 700 648 l 524 552 q 604 512 564 532 q 680 475 644 492 q 689 435 685 456 q 693 397 693 414 q 684 328 693 366 q 655 254 675 289 q 602 196 635 220 q 522 171 570 172 l 56 429 z "},"%":{"ha":1053,"x_min":22,"x_max":1031,"o":"m 210 856 q 222 890 210 879 q 250 902 235 902 q 278 890 266 902 q 290 856 290 878 q 278 818 290 831 q 250 804 266 804 q 222 816 235 803 q 210 856 210 829 m 80 850 q 112 748 80 785 q 189 699 144 711 q 286 696 235 686 q 374 736 336 707 q 429 814 412 766 q 423 925 445 863 q 375 998 407 971 q 305 1034 343 1024 q 227 1036 267 1043 q 155 1004 187 1028 q 101 942 122 981 q 80 850 80 903 m 817 251 q 844 235 838 251 q 846 198 849 218 q 832 161 842 178 q 811 145 822 145 q 775 161 785 145 q 767 198 765 178 q 782 235 769 218 q 817 251 795 251 m 894 907 q 873 964 891 940 q 829 1002 854 989 q 773 1015 803 1015 q 715 997 743 1015 l 119 102 q 159 60 136 77 q 210 35 182 42 q 267 33 237 28 q 324 56 296 37 l 894 907 m 787 15 q 883 36 844 11 q 945 100 922 61 q 972 187 967 140 q 963 277 977 235 q 917 348 949 319 q 834 381 884 377 q 731 361 772 385 q 669 296 690 336 q 646 209 648 256 q 660 119 644 161 q 707 47 675 76 q 787 15 739 18 m 784 -43 q 700 -19 736 -41 q 638 37 663 3 q 600 113 613 71 q 587 198 587 155 q 602 292 587 247 q 648 372 617 338 q 727 426 680 407 q 838 439 774 445 l 837 439 q 922 416 886 437 q 983 364 959 396 q 1019 292 1008 332 q 1031 210 1031 252 q 1015 115 1031 163 q 968 31 1000 68 q 891 -26 937 -5 q 784 -43 845 -47 m 369 16 q 303 -17 335 -7 q 244 -27 271 -27 q 138 8 190 -27 q 49 104 85 43 l 671 1039 q 776 1073 727 1073 q 839 1060 808 1073 q 894 1023 869 1047 q 934 965 918 998 q 952 891 949 932 l 369 16 m 22 850 q 43 956 22 910 q 98 1034 64 1002 q 175 1081 132 1065 q 263 1097 218 1097 q 391 1061 331 1097 q 479 945 450 1024 q 490 901 486 922 q 495 859 495 880 q 473 764 495 806 q 414 693 450 722 q 333 649 378 665 q 241 633 288 633 q 159 646 198 633 q 89 684 119 658 q 40 752 58 711 q 22 850 22 793 z "},"-":{"ha":572,"x_min":26,"x_max":545,"o":"m 445 267 q 473 303 463 273 q 486 368 484 334 q 477 433 487 403 q 442 472 467 464 l 140 467 q 113 452 125 467 q 93 415 100 437 q 83 368 85 393 q 87 319 81 342 q 107 281 94 297 q 144 264 121 266 l 445 267 m 142 206 q 88 220 110 208 q 52 254 66 233 q 32 301 38 275 q 26 355 26 327 q 34 416 26 385 q 58 471 42 446 q 94 510 73 495 q 140 525 115 525 q 294 528 214 526 q 450 530 374 529 q 523 471 500 515 q 545 377 545 427 q 538 323 545 350 q 519 273 532 297 q 490 233 507 250 q 453 209 473 216 l 142 206 z "},"­":{"ha":572,"x_min":26,"x_max":545,"o":"m 445 267 q 473 303 463 273 q 486 368 484 334 q 477 433 487 403 q 442 472 467 464 l 140 467 q 113 452 125 467 q 93 415 100 437 q 83 368 85 393 q 87 319 81 342 q 107 281 94 297 q 144 264 121 266 l 445 267 m 142 206 q 88 220 110 208 q 52 254 66 233 q 32 301 38 275 q 26 355 26 327 q 34 416 26 385 q 58 471 42 446 q 94 510 73 495 q 140 525 115 525 q 294 528 214 526 q 450 530 374 529 q 523 471 500 515 q 545 377 545 427 q 538 323 545 350 q 519 273 532 297 q 490 233 507 250 q 453 209 473 216 l 142 206 z "},"=":{"ha":694,"x_min":34,"x_max":661,"o":"m 563 245 q 600 301 593 269 q 601 366 606 334 q 583 421 595 397 q 563 450 571 445 l 137 450 q 103 409 114 434 q 92 355 92 384 q 104 298 92 327 q 137 245 115 270 l 563 245 m 563 612 q 600 667 593 633 q 601 731 606 700 q 583 787 595 762 q 563 817 571 811 l 137 817 q 103 775 114 800 q 92 722 92 750 q 104 665 92 693 q 137 612 115 636 l 563 612 m 92 572 q 34 724 34 642 q 54 804 34 765 q 118 875 75 844 l 578 875 q 603 851 589 868 q 630 810 617 834 q 652 757 643 785 q 661 701 661 728 q 644 626 661 663 q 583 553 628 589 l 137 553 l 92 572 m 92 206 q 49 279 64 240 q 34 358 34 319 q 54 438 34 399 q 118 509 75 477 l 578 509 q 603 485 589 502 q 630 444 617 468 q 652 391 643 419 q 661 335 661 362 q 644 260 661 297 q 583 187 628 222 l 137 187 l 92 206 z "},".":{"ha":393,"x_min":28,"x_max":363,"o":"m 197 60 q 255 77 231 61 q 292 118 279 94 q 304 170 304 142 q 294 222 305 198 q 259 262 283 247 q 197 279 235 278 q 135 259 160 277 q 98 217 110 241 q 87 165 87 193 q 100 115 87 138 q 136 75 113 91 q 197 60 160 60 m 195 1 q 123 16 155 1 q 71 53 92 30 q 39 106 50 76 q 28 167 28 136 q 39 226 28 197 q 69 279 49 255 q 120 319 90 302 q 193 338 151 335 q 268 323 236 338 q 321 286 300 309 q 353 234 343 263 q 363 175 363 205 q 353 113 363 144 q 321 58 342 83 q 270 18 301 34 q 198 1 239 3 l 195 1 z "},"&":{"ha":933,"x_min":22,"x_max":914,"o":"m 490 891 q 507 868 503 890 q 506 821 510 846 q 491 774 502 795 q 465 754 480 753 q 448 777 453 754 q 444 825 442 799 q 458 872 446 852 q 490 891 469 892 m 495 357 q 450 309 475 331 q 398 273 425 286 q 347 256 372 259 q 305 267 323 254 q 293 307 290 278 q 311 373 296 336 q 353 448 327 410 q 410 513 378 486 l 495 357 m 88 274 q 104 159 81 206 q 168 85 126 111 q 264 54 209 60 q 378 64 320 49 q 494 115 437 79 q 597 206 552 151 l 690 49 q 721 38 697 41 q 771 42 745 35 q 819 66 798 49 q 844 117 841 84 l 718 321 l 846 490 q 846 547 854 518 q 822 596 838 575 q 785 626 806 617 q 749 625 765 635 l 627 483 l 543 636 q 635 768 608 699 q 656 898 663 838 q 611 997 650 958 q 505 1036 572 1036 q 379 1002 431 1036 q 302 912 327 967 q 281 791 277 857 q 330 661 286 724 q 245 574 286 621 q 170 477 203 528 q 113 374 136 426 q 88 274 91 321 m 30 277 q 53 378 33 326 q 104 482 73 431 q 175 582 136 533 q 256 671 214 631 q 222 814 222 743 q 243 922 222 871 q 300 1011 263 972 q 389 1072 336 1050 q 505 1095 441 1095 q 595 1078 555 1095 q 661 1031 635 1061 q 702 961 688 1001 q 716 875 716 921 q 692 751 716 814 q 614 627 669 688 q 621 612 617 621 q 636 585 625 604 q 673 627 655 605 q 709 669 692 650 q 777 674 738 686 q 848 631 817 662 q 897 555 880 600 q 899 464 914 510 l 788 317 q 846 222 817 271 q 903 130 876 174 q 883 59 901 88 q 840 12 865 30 q 786 -14 815 -5 q 732 -22 757 -22 q 682 -12 705 -22 q 643 15 658 -3 l 586 110 q 444 24 521 53 q 293 -5 366 -5 q 183 12 235 -5 q 95 65 132 30 q 40 154 58 100 q 30 279 22 208 l 30 277 m 399 411 q 353 316 361 359 q 388 333 369 320 q 426 365 407 346 l 399 411 z "},">":{"ha":765,"x_min":47,"x_max":703,"o":"m 643 463 l 633 656 l 203 854 q 166 831 187 853 q 129 778 145 808 q 106 717 113 747 q 111 670 99 686 l 372 556 l 127 434 q 123 384 122 418 q 135 316 125 350 q 166 256 145 282 q 222 229 187 231 l 643 463 m 237 171 q 157 196 190 172 q 103 254 123 220 q 74 328 83 289 q 65 397 65 366 q 69 435 65 414 q 79 475 73 456 l 233 552 q 152 589 193 571 q 75 623 111 606 q 51 680 54 647 q 56 745 47 712 q 83 810 65 779 q 123 867 100 842 q 169 904 145 891 q 213 914 193 917 l 690 694 l 703 429 l 237 171 z "},"‘":{"ha":444,"x_min":5,"x_max":434,"o":"m 320 635 q 298 649 315 637 q 267 678 282 661 q 241 720 251 696 q 237 773 231 745 q 334 783 300 758 q 374 847 368 807 q 361 932 381 887 q 296 1002 340 977 q 230 1017 264 1019 q 163 996 195 1015 q 106 942 132 977 q 71 859 81 907 q 83 751 64 802 q 138 665 102 700 q 222 621 175 631 q 320 635 270 610 m 345 583 q 251 559 297 559 q 152 585 198 559 q 72 654 106 610 q 22 752 38 697 q 12 867 5 807 q 46 954 23 916 q 100 1020 69 993 q 166 1061 130 1047 q 237 1076 202 1076 q 326 1054 283 1076 l 324 1054 q 406 971 378 1023 q 434 868 434 920 q 404 767 434 811 q 313 711 374 723 q 333 691 319 707 q 362 659 347 675 q 390 630 377 643 q 404 616 403 617 l 345 583 z "},"{":{"ha":647,"x_min":-9,"x_max":658,"o":"m 115 88 q 153 -55 111 0 q 259 -137 194 -110 q 403 -165 324 -164 q 552 -148 481 -167 q 581 -81 578 -119 q 576 -5 585 -42 q 555 58 568 31 q 534 87 541 84 q 448 71 483 73 q 393 73 414 68 q 362 92 372 79 q 351 125 353 106 q 358 199 349 156 q 374 288 368 241 q 374 379 380 334 q 332 463 368 425 q 390 534 373 499 q 409 604 407 570 q 403 673 411 639 q 385 743 395 708 q 367 815 374 779 q 363 891 359 852 q 404 947 380 928 q 454 972 427 966 q 507 979 480 979 q 553 975 533 978 q 585 1026 574 991 q 599 1097 597 1061 q 593 1162 601 1133 q 568 1199 586 1192 q 441 1194 509 1204 q 314 1156 374 1184 q 210 1078 254 1127 q 155 955 167 1028 q 159 858 146 902 q 187 776 171 814 q 216 705 203 738 q 219 643 228 671 q 172 589 210 614 q 52 540 134 563 l 61 387 q 148 358 119 377 q 183 315 176 339 q 181 260 190 290 q 159 201 172 231 q 132 142 145 171 q 115 88 118 113 m 57 96 q 72 148 61 121 q 96 203 83 175 q 117 252 107 228 q 127 292 127 275 q 101 314 127 302 q 5 336 75 326 l -9 583 q 127 631 91 612 q 164 667 164 651 q 157 699 164 680 q 140 739 149 719 q 109 821 123 776 q 94 918 94 865 q 94 939 94 928 q 98 964 95 949 l 98 963 q 154 1099 110 1043 q 258 1192 198 1156 q 389 1244 319 1227 q 526 1260 460 1260 q 552 1259 537 1260 q 583 1257 567 1257 q 640 1202 623 1242 q 658 1114 658 1161 q 652 1061 658 1089 q 635 1006 646 1034 q 608 955 624 979 q 570 913 591 930 q 532 919 549 917 q 505 921 515 921 q 458 912 481 921 q 420 876 435 903 q 425 812 418 842 q 442 750 433 783 l 442 751 q 460 684 453 718 q 468 616 468 651 q 454 536 468 576 q 408 457 441 496 q 429 399 423 429 q 435 338 435 369 q 430 273 435 305 q 419 210 425 241 q 412 165 415 187 q 410 129 408 144 q 426 127 410 127 q 541 148 456 127 q 568 123 551 144 q 601 73 585 103 q 629 9 617 43 q 642 -60 642 -26 q 629 -131 642 -95 q 585 -201 616 -167 q 500 -217 541 -212 q 419 -222 458 -222 q 282 -205 349 -222 q 164 -150 216 -187 q 83 -53 113 -113 q 57 92 53 7 l 57 96 z "},"?":{"ha":749,"x_min":18,"x_max":722,"o":"m 282 49 q 340 67 316 50 q 377 108 365 84 q 391 159 389 132 q 380 212 392 187 q 345 252 369 236 q 282 269 320 267 q 220 248 244 266 q 184 206 195 231 q 172 155 172 182 q 185 104 172 127 q 222 64 198 80 q 282 49 245 49 m 183 456 q 235 430 205 439 q 295 419 264 420 q 354 426 326 418 q 403 452 382 434 l 401 537 q 496 568 449 547 q 579 622 543 589 q 639 702 616 655 q 662 811 662 749 q 625 968 662 902 q 530 1074 587 1035 q 404 1122 473 1112 q 271 1107 335 1131 q 158 1027 208 1084 q 90 875 109 970 q 94 815 79 842 q 134 774 109 788 q 189 762 160 760 q 235 788 217 764 q 267 859 240 830 q 328 896 294 888 q 393 886 361 903 q 441 818 425 868 q 400 740 430 765 q 332 706 370 715 q 254 698 294 697 q 182 699 214 699 l 183 456 m 123 716 q 47 783 76 736 q 33 891 18 830 q 81 1022 47 967 q 159 1113 114 1077 q 257 1166 203 1149 q 366 1183 311 1183 q 496 1158 433 1183 q 610 1086 560 1134 q 691 970 661 1039 q 722 811 722 901 q 700 691 722 743 q 642 600 678 639 q 557 534 605 560 q 460 492 510 507 q 460 456 460 473 q 461 425 461 438 q 381 376 422 391 q 301 361 340 361 q 213 378 259 361 q 125 429 167 395 l 123 716 m 290 765 q 287 762 288 764 q 283 757 286 760 q 342 772 315 760 q 380 815 369 784 q 349 841 366 841 q 312 820 330 841 q 290 765 294 799 m 281 -9 q 209 5 240 -9 q 157 42 178 19 q 125 95 136 65 q 114 156 114 125 q 124 215 114 186 q 155 268 134 244 q 205 308 175 292 q 278 327 236 324 q 353 313 321 327 q 407 275 385 298 q 439 223 429 252 q 449 164 449 194 q 438 102 449 133 q 407 47 427 72 q 355 7 387 23 q 283 -9 324 -8 l 281 -9 z "},"'":{"ha":491,"x_min":33,"x_max":461,"o":"m 146 635 q 244 621 197 610 q 328 665 292 631 q 383 751 363 700 q 396 859 403 802 q 360 942 385 907 q 303 996 335 977 q 236 1017 271 1015 q 170 1002 201 1019 q 105 932 125 977 q 92 847 85 887 q 133 783 99 807 q 229 773 167 758 q 226 720 236 745 q 200 678 216 696 q 168 649 184 661 q 146 635 152 637 m 65 633 q 78 645 66 635 q 104 669 90 655 q 134 694 119 682 q 153 711 148 707 q 62 767 91 723 q 33 868 33 811 q 60 971 33 920 q 142 1054 87 1023 l 141 1054 q 229 1076 183 1076 q 300 1061 264 1076 q 366 1020 335 1047 q 420 954 396 993 q 454 867 444 916 q 445 752 461 807 q 395 654 429 697 q 315 585 361 610 q 216 559 269 559 q 184 564 203 559 q 144 577 165 568 q 101 600 122 586 q 65 633 80 614 z "},"~":{"ha":787,"x_min":42,"x_max":746,"o":"m 208 457 q 256 527 232 507 q 307 543 279 547 q 347 529 327 544 q 389 496 366 514 q 437 465 411 479 q 498 457 464 452 q 538 479 511 464 q 593 519 564 494 q 646 581 621 545 q 682 665 671 617 q 670 711 688 686 q 626 751 652 735 q 572 771 600 768 q 530 754 544 774 q 523 719 528 738 q 509 683 518 700 q 484 655 499 666 q 445 644 469 644 q 407 661 423 644 q 374 696 391 677 q 336 731 357 715 q 285 747 316 747 q 235 739 264 755 q 179 694 206 722 q 131 637 152 667 q 106 589 110 608 q 101 536 95 570 q 123 477 107 503 q 162 440 140 450 q 208 457 184 430 m 251 416 q 174 380 218 380 q 117 407 144 380 q 71 471 90 434 q 47 548 53 509 q 54 613 42 587 q 92 673 64 639 q 155 736 119 707 q 227 786 190 766 q 292 803 263 806 l 285 806 q 333 799 312 806 q 370 781 354 792 q 399 755 387 769 q 425 727 412 741 q 437 709 431 716 q 445 703 444 703 q 455 710 450 703 q 464 729 460 718 q 471 754 468 741 q 476 779 473 768 q 518 818 495 806 q 567 830 541 830 q 629 812 595 830 q 688 768 662 795 q 730 711 715 742 q 739 651 746 680 q 696 551 726 594 q 633 477 666 507 q 568 428 600 446 q 518 401 536 410 q 458 400 484 396 q 410 413 431 404 q 372 435 389 422 q 339 460 355 448 l 340 460 q 319 476 328 469 q 308 483 311 483 q 260 433 288 487 l 251 416 z "},"l":{"ha":403,"x_min":15,"x_max":388,"o":"m 330 96 q 323 300 324 195 q 321 511 321 406 q 320 722 321 617 q 315 926 319 826 q 296 971 313 952 q 252 1000 278 990 q 195 1013 225 1010 q 139 1008 165 1015 q 94 988 113 1002 q 73 952 76 974 l 79 99 q 144 61 104 71 q 224 55 184 52 q 294 70 264 58 q 330 96 324 81 m 385 77 q 362 46 380 61 q 319 20 345 31 q 264 3 294 9 q 202 -4 233 -4 q 109 14 157 -4 q 20 77 61 33 l 15 959 q 71 1044 22 1016 q 180 1072 119 1072 q 248 1063 214 1072 q 309 1036 282 1054 q 353 991 336 1017 q 373 929 370 964 q 379 737 378 836 q 380 541 380 639 q 380 317 380 427 q 388 100 381 206 l 385 77 z "},"^":{"ha":612,"x_min":42,"x_max":571,"o":"m 568 627 l 562 635 q 566 585 571 620 q 543 515 560 551 q 496 452 525 480 q 431 425 468 425 q 379 437 407 425 q 324 479 351 449 l 323 479 q 319 472 321 476 q 315 465 317 468 q 271 436 293 445 q 227 427 248 427 q 172 439 201 427 q 118 473 144 450 q 72 527 92 495 q 42 598 52 559 l 186 807 l 184 807 q 244 857 208 842 q 319 871 281 871 q 403 852 362 871 q 463 804 444 834 l 568 627 m 414 774 q 379 800 403 789 q 328 813 355 811 q 275 806 301 815 q 233 774 248 798 l 104 587 q 133 532 113 555 q 178 497 153 509 q 229 486 203 486 q 270 500 254 486 l 326 597 l 374 511 q 437 482 407 476 q 488 511 467 488 q 517 562 509 534 q 518 597 526 589 l 414 774 z "},"}":{"ha":648,"x_min":-9,"x_max":658,"o":"m 533 95 q 517 148 530 119 q 490 207 503 176 q 467 267 476 237 q 465 321 458 296 q 500 364 472 346 q 587 392 528 382 l 597 545 q 475 595 513 570 q 429 650 438 621 q 433 711 420 678 q 461 782 445 743 q 490 865 477 821 q 494 960 502 909 q 438 1083 481 1034 q 334 1162 395 1133 q 206 1201 274 1191 q 80 1206 138 1211 q 54 1168 61 1198 q 50 1102 47 1138 q 63 1031 52 1066 q 95 981 75 997 q 142 984 115 983 q 195 978 168 985 q 245 952 221 971 q 285 897 269 933 q 281 822 289 859 q 264 749 274 785 q 245 679 254 713 q 239 610 237 644 q 258 540 241 575 q 316 468 275 505 q 275 385 281 430 q 275 293 269 339 q 290 204 281 247 q 297 130 300 161 q 286 98 296 111 q 256 79 277 85 q 200 76 235 73 q 114 92 165 79 q 94 63 107 90 q 72 0 80 37 q 67 -75 64 -37 q 96 -142 71 -114 q 245 -159 167 -161 q 389 -130 324 -157 q 496 -48 454 -103 q 533 95 537 7 m 591 98 q 566 -47 595 12 q 484 -144 536 -107 q 366 -199 433 -182 q 229 -217 300 -217 q 149 -212 190 -217 q 64 -195 107 -206 q 20 -125 33 -160 q 7 -54 7 -90 q 18 15 7 -20 q 46 79 30 50 q 79 130 62 109 q 107 155 96 151 q 222 133 190 133 q 239 134 239 133 q 237 172 240 151 q 229 216 233 193 q 218 279 224 247 q 213 343 213 311 q 219 404 213 374 q 240 463 225 434 q 194 543 208 503 q 180 621 180 582 q 188 689 180 656 q 206 755 195 722 q 223 818 216 788 q 228 880 231 848 q 189 917 212 907 q 144 926 167 926 q 116 924 133 926 q 79 920 99 922 q 41 961 57 937 q 13 1012 24 985 q -4 1067 1 1039 q -9 1120 -9 1096 q 8 1208 -9 1168 q 65 1263 26 1248 q 96 1265 81 1264 q 122 1265 111 1265 q 259 1249 189 1265 q 390 1198 330 1233 q 494 1106 450 1162 q 552 970 538 1050 l 552 971 q 555 945 555 956 q 555 924 555 935 q 540 826 555 869 q 509 745 525 783 q 491 705 498 723 q 484 673 484 686 q 521 637 484 656 q 658 589 557 617 l 644 342 q 547 320 574 331 q 521 298 521 309 q 530 257 521 281 q 552 209 540 233 q 576 154 566 182 q 591 103 587 126 l 591 98 z "},"¨":{"ha":777,"x_min":16,"x_max":735,"o":"m 568 920 q 627 937 602 921 q 663 978 651 954 q 677 1030 675 1002 q 667 1082 678 1058 q 631 1122 655 1107 q 568 1139 606 1138 q 507 1119 532 1137 q 471 1077 483 1101 q 459 1025 458 1053 q 472 974 460 997 q 508 935 484 951 q 568 920 532 920 m 184 910 q 243 928 218 911 q 279 968 267 944 q 293 1021 292 993 q 282 1073 294 1048 q 246 1113 270 1097 q 184 1130 222 1128 q 123 1109 148 1127 q 86 1067 98 1092 q 75 1015 75 1043 q 87 964 75 987 q 124 926 100 941 q 184 910 148 910 m 183 852 q 111 866 142 852 q 59 903 80 880 q 27 955 38 925 q 16 1016 16 985 q 26 1076 16 1046 q 57 1129 37 1105 q 108 1169 77 1153 q 180 1188 138 1185 q 256 1174 224 1188 q 309 1137 288 1160 q 341 1084 331 1114 q 351 1024 351 1055 q 340 963 351 993 q 309 909 330 933 q 257 869 288 884 q 186 852 227 853 l 183 852 m 567 861 q 495 876 526 861 q 443 912 464 890 q 411 964 422 935 q 400 1025 400 994 q 410 1085 400 1055 q 441 1139 420 1115 q 492 1179 461 1162 q 564 1198 524 1195 q 640 1183 608 1198 q 694 1146 673 1169 q 725 1094 715 1123 q 735 1034 735 1065 q 724 972 735 1002 q 693 918 713 943 q 642 878 673 894 q 571 861 612 863 l 567 861 z "},"f":{"ha":694,"x_min":20,"x_max":781,"o":"m 235 416 l 236 92 q 293 64 258 71 q 364 61 328 58 q 430 74 400 64 q 472 95 460 84 l 473 416 l 582 420 q 612 461 604 433 q 619 520 621 490 q 605 577 617 551 q 571 610 593 604 l 457 612 q 457 727 452 680 q 474 800 463 774 q 501 830 486 826 q 533 818 517 834 q 555 753 553 774 q 557 724 556 732 q 584 707 557 709 q 641 711 610 705 q 697 728 671 718 q 723 747 723 738 q 659 946 723 883 q 491 1009 594 1009 q 287 911 351 1009 q 239 610 222 812 l 121 606 q 84 566 92 597 q 81 501 76 534 q 99 442 85 468 q 127 416 113 416 l 235 416 m 127 358 q 87 373 107 358 q 53 412 68 388 q 29 465 38 435 q 20 525 20 495 q 41 608 20 570 q 113 665 62 647 l 176 667 l 176 684 q 256 972 176 876 q 491 1067 336 1067 q 609 1048 556 1067 q 701 990 662 1029 q 760 890 739 951 q 781 747 781 830 q 765 717 781 732 q 724 687 749 701 q 671 663 700 673 q 616 650 642 652 q 663 587 647 627 q 678 509 678 548 q 658 427 678 467 q 597 362 637 387 l 533 361 q 532 212 533 288 q 530 68 530 136 q 495 44 517 56 q 447 23 473 33 q 392 7 420 14 q 338 1 363 1 q 255 17 297 1 q 178 69 213 33 l 176 358 l 127 358 m 514 670 l 521 670 l 514 677 l 514 674 l 514 670 z "},"I":{"ha":738,"x_min":4,"x_max":732,"o":"m 629 73 q 668 144 661 102 q 671 228 675 187 q 654 300 666 269 q 637 338 643 331 l 476 338 l 472 811 l 613 808 q 652 878 642 844 q 659 942 662 911 q 644 1000 656 972 q 613 1047 631 1027 l 130 1050 q 85 1014 100 1036 q 67 966 71 991 q 68 913 64 940 q 82 865 73 887 q 101 827 91 842 q 118 808 111 811 l 247 808 l 245 339 l 111 332 q 94 297 107 330 q 75 222 81 264 q 79 136 69 179 q 127 72 88 94 l 629 73 m 113 11 q 33 88 54 42 q 12 186 12 134 q 22 254 12 218 q 46 318 33 289 q 73 368 60 347 q 90 392 85 388 l 184 397 q 184 486 184 444 q 185 568 184 528 q 186 652 186 609 q 186 747 186 696 l 104 747 q 75 772 92 753 q 43 819 58 791 q 16 879 27 846 q 4 944 4 911 q 29 1037 4 991 q 115 1109 54 1082 l 640 1107 q 697 1021 675 1066 q 719 928 719 975 q 702 845 719 890 q 642 747 685 800 l 532 750 q 532 662 532 704 q 534 578 533 620 q 536 493 536 537 q 537 399 537 449 l 663 399 q 683 369 671 391 q 705 318 694 347 q 724 256 716 289 q 732 191 732 222 q 715 100 732 145 q 652 12 699 54 l 113 11 z "},"`":{"ha":426,"x_min":27,"x_max":403,"o":"m 389 1042 q 396 983 403 1016 q 368 919 389 949 q 317 867 347 888 q 252 846 286 846 q 208 855 229 846 q 163 887 186 864 l 27 1099 q 40 1171 27 1139 q 75 1225 53 1203 q 124 1259 96 1248 q 179 1271 152 1271 q 233 1259 206 1271 q 281 1223 260 1246 l 389 1042 m 233 1190 q 192 1211 217 1208 q 143 1204 167 1214 q 102 1171 119 1194 q 85 1116 85 1149 l 210 922 q 260 905 233 899 q 309 928 288 910 q 340 971 331 947 q 338 1012 350 996 l 233 1190 z "},"R":{"ha":935,"x_min":16,"x_max":918,"o":"m 340 841 q 412 859 374 854 q 479 858 449 864 q 528 835 509 852 q 544 791 547 818 q 511 731 536 754 q 455 695 486 708 q 393 679 425 682 q 342 680 362 675 l 340 841 m 76 104 q 94 71 76 85 q 139 46 111 56 q 200 33 167 37 q 264 35 233 30 q 319 53 296 39 q 353 91 343 66 l 351 415 l 529 62 q 620 68 570 64 q 717 86 670 72 q 801 126 764 100 q 852 195 838 152 l 635 513 q 695 578 665 545 q 749 648 726 612 q 788 722 773 684 q 803 802 803 760 q 748 937 791 884 q 644 1017 705 990 q 507 1049 582 1044 q 357 1042 433 1054 q 212 1003 282 1029 q 87 941 141 977 l 76 104 m 27 974 q 126 1029 73 1004 q 236 1074 179 1055 q 351 1102 293 1092 q 464 1112 408 1112 q 602 1095 536 1112 q 723 1042 669 1078 q 814 946 777 1005 q 864 803 852 887 q 852 717 864 757 q 819 640 840 677 q 770 571 798 604 q 712 506 742 538 q 817 353 764 433 q 918 203 871 273 q 848 96 898 136 q 736 37 798 57 q 609 9 674 16 q 491 1 544 3 l 414 156 l 414 80 q 339 -3 392 22 q 227 -28 286 -28 q 151 -18 189 -28 q 84 10 114 -8 q 35 53 54 28 q 16 106 16 77 l 27 974 m 403 739 q 450 758 426 745 q 483 796 475 770 q 443 809 469 812 q 400 796 416 806 l 403 739 z "},"q":{"ha":716,"x_min":16,"x_max":907,"o":"m 270 407 q 298 486 278 458 q 340 514 319 513 q 378 490 361 515 q 399 408 396 464 q 372 307 396 340 q 323 274 349 274 q 280 307 298 274 q 270 407 262 340 m 406 84 q 399 -191 401 -91 q 404 -340 397 -292 q 429 -397 411 -389 q 480 -393 446 -404 l 825 -180 q 846 -122 842 -157 q 844 -54 850 -87 q 823 -1 838 -22 q 787 12 807 19 l 598 -96 l 632 747 q 581 790 612 780 q 520 798 551 800 q 464 786 490 796 q 426 766 438 776 l 426 727 q 312 743 363 750 q 220 704 260 735 q 151 623 180 673 q 104 515 122 574 q 79 393 85 457 q 76 271 72 330 q 124 152 88 199 q 208 81 160 104 q 307 59 255 58 q 403 84 359 60 l 406 84 m 340 -222 q 342 -123 340 -179 q 346 4 343 -68 q 304 0 323 0 q 210 17 256 0 q 125 67 164 34 q 58 151 87 100 q 18 271 30 202 q 16 292 16 282 q 16 313 16 302 q 36 485 16 397 q 96 643 56 572 q 196 758 136 713 q 338 803 256 803 q 356 803 347 803 q 376 800 365 803 q 408 820 389 810 q 448 838 427 830 q 491 852 469 846 q 533 857 513 857 q 617 837 575 857 q 692 764 659 817 l 661 7 q 713 37 688 23 q 764 66 738 52 q 820 67 793 77 q 866 33 846 57 q 897 -25 886 9 q 907 -96 907 -60 q 897 -163 907 -130 q 867 -222 887 -195 l 502 -448 q 446 -458 467 -458 q 395 -448 415 -458 q 362 -410 374 -437 q 345 -338 350 -384 q 340 -222 340 -292 z "},"_":{"ha":948,"x_min":46,"x_max":902,"o":"m 803 62 q 840 117 833 84 q 841 182 846 151 q 823 237 836 213 q 803 267 811 262 l 149 270 q 115 227 126 252 q 105 174 104 202 q 117 117 106 146 q 149 64 129 88 l 803 62 m 104 26 q 46 178 46 95 q 66 257 46 217 q 130 328 87 297 l 819 326 q 844 302 830 319 q 871 260 859 285 q 893 208 884 236 q 902 152 902 179 q 885 77 902 114 q 823 4 868 39 l 149 5 l 104 26 z "},"g":{"ha":705,"x_min":9,"x_max":694,"o":"m 278 472 q 298 528 279 509 q 337 544 316 547 q 375 517 358 541 q 392 445 392 494 q 370 329 392 365 q 323 298 347 293 q 282 347 298 302 q 278 472 266 391 m 401 90 q 409 3 407 49 q 405 -83 411 -43 q 383 -150 399 -123 q 338 -176 368 -176 q 319 -167 330 -176 q 298 -139 308 -157 q 281 -93 288 -121 q 274 -30 274 -65 q 251 3 277 -18 q 191 33 225 23 q 121 32 156 43 q 73 -31 87 20 q 78 -163 65 -98 q 123 -284 91 -229 q 209 -377 156 -339 q 334 -423 262 -415 q 475 -391 419 -433 q 566 -273 532 -349 q 616 -97 601 -198 q 635 113 632 4 q 634 329 639 221 q 623 526 629 437 q 612 675 617 614 q 613 753 608 736 q 574 781 608 774 q 503 786 541 788 q 435 776 465 784 q 404 760 404 768 l 404 722 q 256 737 319 755 q 151 668 193 719 q 89 543 110 617 q 68 390 68 468 q 90 239 69 312 q 153 119 111 167 q 257 60 195 72 q 401 90 319 47 m 18 -18 q 52 53 30 28 q 103 88 75 77 q 33 226 57 145 q 9 393 9 307 q 28 543 9 469 q 83 673 46 616 q 174 766 119 731 q 302 802 229 802 q 334 800 317 802 q 366 795 350 798 q 433 829 389 814 q 522 845 477 845 q 617 823 574 845 q 674 750 661 802 q 669 690 667 732 q 677 583 671 647 q 688 404 682 505 q 694 198 694 304 q 688 25 694 111 q 665 -138 681 -61 q 621 -281 648 -216 q 553 -394 594 -347 q 456 -465 513 -441 q 327 -481 400 -488 q 194 -431 252 -469 q 95 -338 136 -393 q 33 -216 54 -283 q 12 -80 12 -149 q 13 -56 12 -69 q 18 -18 14 -42 m 351 -18 q 351 -5 351 -11 q 350 8 351 1 q 334 5 342 5 q 319 3 327 4 q 332 -38 334 -22 q 338 -118 332 -118 q 348 -87 345 -118 q 351 -18 351 -57 z "},"´":{"ha":372,"x_min":14,"x_max":391,"o":"m 79 1020 q 76 979 66 1004 q 107 937 85 955 q 157 913 129 918 q 208 930 184 907 l 331 1124 q 314 1179 331 1157 q 274 1212 297 1202 q 226 1219 251 1222 q 184 1198 201 1217 l 79 1020 m 33 1054 l 134 1227 q 182 1266 155 1253 q 237 1279 210 1279 q 292 1267 264 1279 q 342 1234 320 1256 q 377 1179 363 1211 q 389 1107 391 1147 l 254 895 q 209 863 231 872 q 165 854 187 854 q 98 877 130 854 q 45 930 66 899 q 19 996 24 962 q 33 1055 14 1031 l 28 1048 l 33 1054 z "},"r":{"ha":692,"x_min":16,"x_max":674,"o":"m 77 96 q 116 61 84 71 q 184 55 148 52 q 253 71 221 58 q 293 100 285 83 l 293 416 q 323 485 301 458 q 370 517 345 511 q 417 506 395 524 q 448 444 439 488 q 486 425 461 430 q 536 425 510 419 q 585 450 563 431 q 616 505 608 469 q 598 593 614 549 q 555 673 582 637 q 494 731 529 708 q 421 758 460 754 q 342 744 382 762 q 266 677 302 726 l 262 761 q 235 780 260 773 q 179 783 210 787 q 117 764 148 780 q 75 715 87 749 l 77 96 m 16 724 q 88 811 38 787 q 190 836 138 836 q 258 823 227 836 q 311 792 290 811 q 407 818 357 818 q 506 790 458 818 q 590 718 553 762 q 649 615 627 673 q 674 498 671 557 q 608 394 656 425 q 510 363 560 363 q 448 377 479 363 q 393 416 418 391 q 382 460 385 460 q 366 448 374 460 q 351 414 357 437 l 351 87 q 323 52 343 68 q 277 23 302 35 q 222 3 251 11 q 164 -4 193 -4 q 73 18 114 -4 q 19 88 33 39 l 16 724 z "},"S":{"ha":783,"x_min":12,"x_max":770,"o":"m 115 387 q 81 335 92 374 q 73 247 71 296 q 93 149 76 198 q 144 68 110 99 q 305 64 220 62 q 469 87 391 65 q 610 160 548 110 q 703 304 673 210 q 701 418 715 373 q 656 492 686 463 q 584 541 625 522 q 502 579 543 560 q 427 621 461 598 q 374 678 392 643 q 398 760 372 728 q 465 804 425 792 q 552 808 506 817 q 635 773 598 800 q 689 830 673 798 q 709 898 705 863 q 707 967 712 933 q 693 1025 701 1001 q 593 1050 651 1047 q 474 1038 536 1053 q 350 991 412 1023 q 233 915 288 960 q 139 810 179 869 q 81 682 99 751 q 94 572 69 614 q 161 501 119 529 q 250 456 202 473 q 331 423 297 439 q 365 385 362 401 q 352 358 368 369 q 306 343 336 347 q 241 342 275 339 q 172 355 206 345 q 115 387 138 366 m 153 433 q 208 407 175 412 q 138 441 172 422 q 77 490 104 461 q 33 556 50 518 q 16 646 16 594 q 18 671 16 658 q 22 696 19 684 q 107 867 46 791 q 247 998 168 944 q 413 1082 326 1053 q 578 1111 500 1111 q 745 1066 656 1111 q 763 995 755 1034 q 770 921 770 956 q 741 808 770 865 q 631 700 712 750 q 569 738 598 726 q 518 750 540 750 q 461 738 487 750 q 434 694 435 726 q 482 658 450 675 q 548 625 514 640 q 628 587 589 608 q 699 536 667 566 q 749 464 730 506 q 769 361 769 422 q 767 327 769 346 q 761 286 765 308 q 680 142 732 197 q 559 56 627 87 q 416 14 492 24 q 263 3 339 3 q 189 4 232 3 q 118 8 146 5 q 71 66 91 34 q 37 132 50 98 q 18 199 24 165 q 12 264 12 233 q 31 372 12 324 q 87 439 50 420 l 153 433 z "},"J":{"ha":726,"x_min":34,"x_max":868,"o":"m 340 61 q 488 100 431 61 q 577 203 545 140 q 621 348 609 267 q 633 513 632 429 q 628 676 633 597 q 620 817 623 755 l 742 823 q 791 881 774 845 q 808 952 807 917 q 795 1015 810 987 q 750 1048 780 1043 l 229 1040 q 180 970 186 1009 q 185 898 174 932 q 218 841 197 864 q 251 817 239 818 l 362 821 q 393 734 381 787 q 410 625 404 682 q 414 511 415 568 q 405 408 412 454 q 384 333 397 362 q 350 304 370 304 q 303 319 316 293 q 288 389 290 346 q 290 482 286 433 q 294 564 294 532 q 270 580 288 572 q 228 589 252 587 q 175 583 203 590 q 119 556 146 576 q 104 479 113 528 q 95 376 96 431 q 103 265 94 321 q 140 163 113 209 q 215 90 167 118 q 340 61 263 61 m 340 0 q 187 33 247 0 q 94 117 127 65 q 47 233 60 168 q 34 363 34 298 q 45 488 34 425 q 68 593 57 551 q 147 637 110 624 q 216 650 184 650 q 296 630 258 650 q 353 587 334 610 q 343 680 350 635 q 324 758 336 724 q 287 758 305 758 q 250 757 269 758 q 212 773 235 757 q 169 815 190 789 q 132 874 148 841 q 117 944 117 907 q 137 1023 117 983 q 209 1101 157 1062 l 753 1108 q 840 1054 811 1097 q 868 955 868 1010 q 842 853 868 906 q 764 764 815 800 l 684 758 q 684 745 684 754 q 685 731 685 735 q 690 633 688 685 q 693 529 693 581 q 680 338 693 433 q 629 168 667 243 q 522 46 591 92 q 340 0 453 0 m 349 397 q 353 452 351 419 q 354 521 354 484 q 353 508 353 514 q 353 498 353 502 q 350 454 351 477 q 349 410 349 430 l 349 397 z "},"A":{"ha":1013,"x_min":12,"x_max":998,"o":"m 438 648 q 468 758 452 715 q 502 809 484 802 q 536 781 519 817 q 568 654 553 745 l 438 648 m 431 454 l 579 450 l 631 85 q 699 65 665 75 q 769 54 734 56 q 843 62 804 53 q 926 99 882 72 l 665 989 q 629 1021 656 1006 q 563 1042 601 1035 q 482 1050 525 1050 q 401 1040 439 1050 q 332 1011 362 1031 q 288 960 301 991 l 76 111 q 94 93 75 103 q 142 75 113 83 q 210 62 172 66 q 282 60 247 58 q 348 74 317 62 q 395 109 378 85 l 431 454 m 445 73 q 364 16 415 31 q 256 0 313 0 q 166 12 210 0 q 87 41 122 23 q 33 81 53 60 q 15 123 12 103 l 228 975 q 271 1037 243 1012 q 333 1078 298 1062 q 407 1102 368 1095 q 486 1109 446 1109 q 562 1102 524 1109 q 633 1082 601 1095 q 688 1050 665 1069 q 723 1008 712 1031 l 998 72 q 873 12 926 28 q 779 -5 821 -5 q 680 8 732 -5 q 575 39 628 22 l 525 392 q 509 393 518 392 q 486 393 500 393 q 471 248 479 320 q 456 103 463 176 l 445 73 z "},"h":{"ha":699,"x_min":12,"x_max":686,"o":"m 79 83 q 121 62 94 71 q 180 54 148 54 q 244 62 212 54 q 301 90 277 71 l 307 433 q 370 504 346 488 q 406 505 393 519 q 421 452 418 491 q 425 356 425 412 q 423 231 425 300 q 425 92 422 163 q 459 66 431 73 q 519 61 487 58 q 583 75 552 64 q 627 106 614 87 q 615 492 635 338 q 553 720 595 647 q 447 781 510 793 q 305 665 384 768 l 308 970 q 254 1008 290 1001 q 180 1010 218 1016 q 111 989 142 1004 q 71 960 79 974 l 79 83 m 12 977 q 43 1008 22 991 q 94 1038 65 1024 q 154 1062 122 1053 q 216 1072 186 1072 q 300 1052 259 1072 q 366 985 340 1032 l 365 804 q 467 841 415 841 q 628 686 570 841 q 686 231 686 530 q 686 161 686 201 q 685 88 685 121 q 604 25 656 47 q 500 3 551 3 q 418 21 456 3 q 366 81 380 39 q 365 147 365 113 q 365 209 365 182 l 365 286 q 366 323 365 305 q 366 357 366 340 q 370 419 366 395 q 367 416 368 416 q 365 414 366 416 q 363 237 365 330 q 359 62 361 144 q 268 11 313 26 q 183 -4 222 -4 q 96 13 140 -4 q 20 57 52 30 l 12 977 z "},"s":{"ha":636,"x_min":18,"x_max":617,"o":"m 262 334 q 199 370 240 354 q 119 412 159 387 q 51 477 80 438 q 24 583 22 517 q 58 680 30 635 q 130 760 85 726 q 234 813 175 793 q 359 833 293 833 q 518 803 433 833 q 562 749 549 781 q 575 682 575 718 q 551 588 575 632 q 491 530 526 544 q 586 429 555 487 q 617 315 617 372 q 589 197 617 255 q 514 93 562 138 q 404 19 467 47 q 271 -9 342 -9 q 171 6 221 -9 q 71 56 121 22 l 58 69 q 26 130 35 99 q 18 189 18 161 q 24 240 18 210 q 43 299 31 270 q 74 351 56 328 q 115 380 92 373 q 155 355 132 369 q 200 332 178 342 q 240 321 222 323 q 262 334 258 319 m 104 104 q 251 51 178 54 q 387 75 324 47 q 494 155 449 103 q 553 265 538 206 q 547 382 568 324 q 457 483 526 441 q 420 503 437 495 q 390 519 403 511 q 370 535 377 526 q 361 560 362 544 q 367 575 361 567 q 386 588 373 583 q 420 593 399 593 q 471 585 441 593 q 496 602 484 582 q 513 651 509 623 q 513 709 518 680 q 490 753 509 738 q 342 774 414 779 q 216 744 271 770 q 124 674 160 718 q 83 578 88 631 q 95 510 79 537 q 138 463 111 483 q 199 429 165 444 q 261 402 232 415 q 312 374 290 389 q 338 338 334 359 q 336 283 345 302 q 308 259 327 264 q 263 258 289 254 q 210 271 237 262 q 158 293 183 281 q 115 315 133 305 q 90 279 102 302 q 75 226 79 255 q 76 165 71 197 q 104 104 81 133 z "},"T":{"ha":842,"x_min":-3,"x_max":846,"o":"m 289 793 l 267 110 q 291 87 270 98 q 341 68 312 76 q 404 58 370 61 q 469 60 438 56 q 521 79 499 65 q 548 117 543 92 q 546 265 548 174 q 541 455 544 357 q 536 645 538 553 q 534 793 534 736 l 730 793 q 775 878 762 836 q 787 955 788 920 q 773 1015 785 990 q 745 1047 761 1040 l 87 1032 q 65 979 72 1010 q 58 912 58 947 q 64 844 58 878 q 79 787 69 811 l 289 793 m 37 724 q 8 821 19 772 q -3 910 -3 871 q 10 1002 -3 955 q 54 1092 23 1048 l 755 1107 q 821 1048 795 1090 q 846 949 846 1006 q 827 851 846 906 q 758 734 807 796 l 595 734 q 597 604 597 675 q 601 456 598 532 q 604 357 602 407 q 606 261 605 307 q 607 176 606 216 q 608 107 608 136 q 543 22 594 47 q 429 -3 492 -3 q 355 6 392 -3 q 287 31 319 15 q 233 65 255 46 q 206 104 212 84 l 225 731 l 37 724 z "},"K":{"ha":836,"x_min":14,"x_max":821,"o":"m 75 117 q 119 65 84 79 q 195 52 153 52 q 275 63 237 53 q 328 84 313 73 l 308 358 l 518 80 q 540 69 521 73 q 585 67 559 65 q 641 77 612 69 q 694 102 670 85 q 733 144 719 118 q 743 208 747 170 l 452 552 l 754 871 q 759 895 757 875 q 758 939 761 914 q 744 989 754 964 q 713 1029 734 1015 q 657 1042 692 1043 q 572 1016 623 1042 l 317 735 l 327 1025 q 267 1050 301 1042 q 197 1055 232 1058 q 132 1038 163 1053 q 81 993 100 1023 l 75 117 m 22 1008 q 110 1091 57 1066 q 216 1116 163 1116 q 301 1101 256 1116 q 389 1058 346 1085 l 384 899 q 460 982 422 940 q 533 1063 498 1024 q 607 1095 575 1086 q 663 1104 639 1104 q 741 1084 711 1104 q 789 1036 772 1065 q 814 974 807 1008 q 821 911 821 940 q 814 864 821 886 q 799 829 807 842 l 533 548 q 669 389 598 471 q 803 231 739 307 q 787 124 810 167 q 728 55 765 81 q 648 17 692 28 q 568 5 604 5 q 507 17 534 5 q 468 45 480 28 q 438 85 445 76 q 428 98 431 94 q 417 113 425 103 q 384 157 410 123 q 388 102 387 130 q 392 52 389 75 q 353 32 377 42 q 302 13 330 22 q 245 -2 274 4 q 191 -8 217 -8 q 133 -3 161 -8 q 81 16 104 3 q 39 52 57 30 q 14 107 22 75 l 22 1008 z "},"[":{"ha":515,"x_min":1,"x_max":514,"o":"m 414 -130 q 451 -62 444 -103 q 454 19 458 -20 q 438 88 449 58 q 422 125 427 118 l 266 125 l 262 951 l 399 948 q 435 1015 426 982 q 442 1077 445 1047 q 427 1133 439 1107 q 399 1179 415 1158 l 60 1181 l 60 -138 l 414 -130 m 1 -198 l 1 1240 l 426 1237 q 480 1153 458 1198 q 502 1063 502 1108 q 485 984 502 1027 q 426 890 468 941 l 320 892 q 321 713 320 800 q 323 541 321 627 q 325 366 324 454 q 326 183 326 278 l 448 183 q 466 155 454 175 q 488 106 477 134 q 507 45 499 77 q 514 -16 514 14 q 497 -104 514 -60 q 437 -190 480 -149 l 1 -198 z "},"i":{"ha":393,"x_min":15,"x_max":378,"o":"m 210 924 q 263 943 241 926 q 296 985 285 960 q 309 1037 308 1009 q 302 1088 311 1065 q 274 1128 293 1112 q 227 1146 255 1145 q 152 1128 183 1145 q 104 1086 121 1111 q 83 1034 87 1062 q 93 982 80 1006 q 135 941 106 958 q 210 924 164 925 m 79 114 q 131 80 95 92 q 205 68 167 68 q 277 81 244 68 q 320 125 309 95 l 316 727 q 271 768 302 755 q 203 782 240 781 q 132 772 167 783 q 75 745 96 762 l 79 114 m 15 770 q 104 821 54 803 q 199 840 155 840 q 300 817 251 840 q 374 742 349 793 l 378 114 q 309 35 358 58 q 205 11 259 11 q 102 33 153 11 q 20 95 52 54 l 15 770 m 209 865 q 127 880 161 867 q 70 916 92 894 q 36 965 47 937 q 24 1023 24 993 q 38 1086 24 1054 q 77 1143 52 1118 q 139 1185 102 1168 q 225 1204 176 1202 q 288 1190 260 1203 q 332 1154 315 1176 q 359 1103 350 1131 q 368 1044 368 1074 q 357 983 368 1013 q 328 926 347 952 q 281 884 309 901 q 214 865 252 868 l 209 865 z "},"t":{"ha":629,"x_min":0,"x_max":628,"o":"m 191 85 q 215 57 191 66 q 273 46 239 47 q 347 50 308 45 q 414 66 385 56 l 412 582 l 541 581 q 568 631 564 598 q 566 699 572 665 q 547 760 560 732 q 522 796 534 788 l 412 793 l 410 979 q 350 1006 385 1001 q 281 1008 315 1012 q 222 994 248 1004 q 187 974 195 983 l 184 793 l 90 791 q 64 720 71 755 q 60 653 58 684 q 72 601 62 623 q 94 574 81 579 l 191 578 l 191 85 m 132 517 q 106 515 119 515 q 83 515 94 515 q 24 574 47 532 q 0 670 0 617 q 13 749 0 704 q 54 849 26 795 l 126 850 q 128 926 127 887 q 129 997 129 966 q 159 1021 138 1008 q 204 1044 179 1034 q 258 1062 229 1055 q 315 1069 288 1069 q 389 1055 350 1069 q 467 1006 429 1042 l 469 853 q 507 855 486 854 q 540 856 528 856 q 569 825 553 846 q 598 776 585 803 q 620 718 612 749 q 628 658 628 686 q 614 587 628 621 q 560 522 600 553 l 471 524 q 471 272 471 403 q 472 26 472 141 q 375 -3 425 7 q 288 -12 326 -12 q 228 -7 256 -12 q 178 10 199 -1 q 144 40 156 22 q 132 85 132 58 l 132 517 z "},"B":{"ha":970,"x_min":15,"x_max":955,"o":"m 288 821 q 336 846 305 840 q 399 846 368 852 q 456 824 431 841 q 484 779 480 807 q 463 726 481 743 q 416 701 444 709 q 355 692 388 693 q 292 689 321 690 l 288 821 m 288 492 q 393 498 338 491 q 502 528 449 505 q 595 457 570 495 q 614 384 620 419 q 578 319 609 349 q 503 273 548 289 q 401 256 457 256 q 292 278 346 255 l 288 492 m 85 84 q 205 45 130 57 q 365 38 279 34 q 538 62 450 42 q 701 118 627 81 q 826 208 774 155 q 888 330 878 260 q 882 473 902 415 q 823 568 861 532 q 736 619 784 604 q 648 635 688 635 q 677 674 666 651 q 694 722 688 697 q 704 774 701 747 q 707 822 707 800 q 657 930 696 886 q 562 1000 618 974 q 439 1036 506 1027 q 304 1040 372 1046 q 178 1013 237 1034 q 76 958 118 991 l 85 84 m 15 986 q 176 1073 84 1043 q 359 1103 267 1103 q 498 1086 430 1103 q 622 1036 566 1070 q 716 949 678 1001 q 766 825 754 897 q 762 753 766 792 q 745 680 758 715 q 821 644 783 667 q 888 585 859 620 q 937 500 918 549 q 955 389 955 452 q 948 320 955 358 q 866 172 930 236 q 712 64 802 107 q 518 -2 623 20 q 319 -24 414 -24 q 161 -6 237 -24 q 24 49 85 12 l 15 986 m 350 321 q 406 316 376 316 q 463 323 435 316 q 510 340 490 330 q 543 366 530 351 q 555 397 555 381 q 542 427 555 411 q 498 461 529 442 q 423 443 463 450 q 350 433 384 435 l 350 321 m 347 745 q 383 741 366 738 q 412 751 400 745 q 429 766 423 758 q 430 777 434 773 q 395 805 422 803 q 347 796 369 807 l 347 745 z "},"j":{"ha":464,"x_min":-267,"x_max":444,"o":"m 220 1070 q 147 1059 175 1076 q 107 1017 119 1043 q 96 960 95 991 q 111 901 98 928 q 149 857 125 875 q 206 842 172 840 q 266 859 241 842 q 302 899 290 875 q 315 953 315 924 q 306 1007 316 982 q 274 1050 296 1032 q 220 1070 252 1067 m -20 8 q -62 47 -33 33 q -122 60 -91 61 q -178 41 -153 58 q -206 -14 -202 24 q -210 -76 -209 -38 q -205 -157 -210 -114 q -184 -242 -199 -199 q -142 -321 -170 -285 q -71 -380 -114 -357 q 37 -406 -27 -403 q 201 -351 136 -406 q 305 -206 266 -296 q 362 -4 345 -117 q 384 224 380 109 q 382 449 388 340 q 370 637 377 557 q 336 677 361 663 q 280 696 311 692 q 217 696 250 700 q 159 683 184 693 q 118 659 133 673 q 109 627 103 644 q 123 532 118 598 q 131 381 129 465 q 131 205 133 297 q 122 34 129 113 q 103 -100 115 -45 q 75 -168 91 -156 q 30 -170 50 -184 q -3 -125 9 -155 q -21 -58 -16 -95 q -20 8 -26 -20 m 37 -1 q 33 -36 34 -15 q 31 -77 31 -57 q 33 -110 31 -96 q 39 -121 35 -123 q 54 -71 47 -111 q 65 29 61 -30 q 71 159 69 88 q 73 301 73 229 q 72 401 73 353 q 68 491 71 450 q 62 562 65 532 q 53 609 58 593 q 57 666 43 639 q 99 713 71 693 q 167 745 127 734 q 247 757 206 757 q 355 733 304 757 q 427 652 406 709 q 438 496 433 583 q 444 319 444 410 q 437 136 444 229 q 413 -45 430 42 q 366 -208 396 -132 q 291 -341 336 -285 q 182 -431 245 -397 q 35 -464 119 -464 q -121 -420 -62 -460 q -213 -323 -180 -380 q -256 -201 -245 -266 q -267 -81 -267 -136 q -267 -39 -267 -58 q -264 -5 -266 -19 l -264 -8 q -215 88 -258 58 q -118 118 -172 118 q -31 96 -73 118 q 33 34 12 75 l 37 -1 m 229 1127 q 293 1104 266 1122 q 338 1061 320 1086 q 366 1006 357 1036 q 376 945 376 975 q 364 880 376 911 q 330 826 353 849 q 275 791 308 803 q 198 784 241 779 q 129 798 159 783 q 79 838 99 812 q 47 897 58 864 q 37 964 37 930 q 47 1030 37 998 q 81 1086 58 1062 q 140 1122 104 1109 q 227 1128 176 1134 l 229 1127 z "},"U":{"ha":852,"x_min":19,"x_max":830,"o":"m 102 381 q 131 264 114 321 q 178 161 148 206 q 253 89 208 117 q 368 61 298 61 q 509 77 446 62 q 619 129 572 91 q 699 233 666 167 q 749 404 731 300 q 770 656 766 509 q 762 1005 773 804 q 703 1051 742 1042 q 625 1056 665 1061 q 556 1038 586 1051 q 524 1016 526 1025 q 529 697 529 827 q 522 486 529 567 q 497 368 514 404 q 452 328 480 331 q 400 369 418 335 q 375 455 382 403 q 368 574 368 507 q 370 716 368 642 q 374 867 373 791 q 372 1016 376 944 q 309 1056 353 1048 q 218 1056 264 1063 q 134 1034 171 1048 q 90 1006 96 1019 q 85 884 88 948 q 80 745 81 821 q 83 581 79 670 q 102 381 87 491 m 42 373 q 21 695 19 533 q 30 1025 23 857 q 61 1055 37 1039 q 119 1086 85 1072 q 191 1109 152 1100 q 266 1119 229 1119 q 359 1100 315 1119 q 433 1032 403 1081 q 433 819 439 926 q 427 590 427 711 q 433 466 427 518 q 453 395 438 414 q 462 462 458 418 q 467 562 465 506 q 468 680 468 617 q 467 806 468 743 q 465 925 467 868 q 463 1024 464 982 q 485 1053 467 1036 q 530 1083 503 1069 q 589 1107 557 1097 q 654 1118 621 1118 q 746 1097 701 1118 q 822 1021 791 1077 q 828 870 826 945 q 830 734 830 795 q 818 467 830 581 q 781 272 806 353 q 718 139 755 191 q 628 56 680 87 q 511 14 576 26 q 368 0 446 1 q 224 32 279 0 q 132 116 168 64 q 77 234 96 168 q 42 369 57 300 l 42 373 z "},"L":{"ha":728,"x_min":3,"x_max":726,"o":"m 614 77 q 652 129 640 91 q 665 211 663 167 q 657 296 666 255 q 632 354 648 336 l 334 347 l 349 1016 q 293 1051 334 1040 q 206 1061 252 1062 q 119 1049 160 1061 q 64 1016 79 1038 q 64 855 64 945 q 64 669 64 765 q 64 476 64 572 q 66 297 65 380 q 67 152 66 214 q 69 62 68 90 l 614 77 m 12 1 q 10 76 11 24 q 8 197 9 127 q 6 350 7 267 q 5 519 5 433 q 3 691 4 606 q 3 849 3 776 l 3 1034 q 92 1099 34 1077 q 210 1122 151 1122 q 324 1101 269 1122 q 410 1032 380 1080 l 395 408 q 530 411 460 410 q 659 414 600 412 q 708 325 690 378 q 726 220 726 271 q 720 159 726 190 q 703 100 715 127 q 672 51 690 73 q 629 16 654 28 l 12 1 z "},"u":{"ha":694,"x_min":15,"x_max":678,"o":"m 429 64 q 488 48 458 49 q 542 54 517 47 q 587 74 567 61 q 620 102 608 87 l 616 735 q 558 781 595 772 q 486 783 521 789 q 425 758 450 776 q 399 727 399 741 l 410 366 q 336 348 362 335 q 300 410 311 361 q 290 538 289 458 q 298 722 292 618 q 276 772 293 754 q 236 794 259 789 q 188 795 213 799 q 141 781 163 791 q 103 760 119 772 q 84 738 87 747 q 75 590 79 674 q 77 420 72 506 q 102 257 83 334 q 161 132 121 180 q 266 72 201 83 q 429 107 331 61 l 429 64 m 498 -11 q 445 -3 475 -11 q 376 24 415 5 q 290 12 331 12 q 151 58 205 12 q 67 176 98 103 q 26 339 37 248 q 15 521 15 430 q 18 644 15 582 q 26 750 22 705 q 50 785 31 766 q 94 819 68 803 q 151 844 121 834 q 212 854 182 854 q 294 832 256 854 q 350 753 332 810 q 377 785 359 769 q 418 815 395 802 q 467 837 441 829 q 521 845 494 845 q 604 825 564 845 q 674 753 644 804 l 678 80 q 600 17 648 45 q 498 -11 552 -11 z "},"]":{"ha":564,"x_min":26,"x_max":538,"o":"m 103 -186 q 43 -101 60 -145 q 26 -12 26 -57 q 33 50 26 18 q 52 109 41 81 q 74 158 62 137 q 92 187 85 179 l 214 187 q 215 366 214 279 q 217 538 216 452 q 219 712 218 624 q 220 895 220 800 q 163 895 191 895 q 113 894 136 894 q 55 988 72 945 q 38 1067 38 1031 q 60 1156 38 1112 q 114 1240 81 1200 l 538 1242 l 538 -195 l 103 -186 m 480 -136 l 480 1184 l 141 1181 q 111 1135 123 1161 q 97 1080 99 1109 q 104 1019 95 1051 q 141 952 114 986 l 278 955 l 273 129 l 118 129 q 102 92 113 122 q 86 22 91 61 q 88 -59 81 -18 q 126 -127 95 -100 l 480 -136 z "},"k":{"ha":819,"x_min":20,"x_max":799,"o":"m 79 103 q 121 65 96 77 q 172 50 145 53 q 227 52 199 47 q 276 61 254 56 q 313 71 298 66 q 331 73 328 75 l 343 363 l 547 64 q 599 63 568 61 q 659 78 629 65 q 710 118 688 91 q 738 194 732 145 q 686 260 715 224 q 630 334 658 297 q 577 408 602 372 q 534 471 552 444 l 534 477 q 610 556 581 526 q 655 604 639 586 q 677 631 671 621 q 682 651 682 642 q 665 706 675 677 q 635 757 654 735 q 586 789 616 779 q 513 787 556 799 l 347 637 l 334 987 q 282 1012 316 1005 q 210 1015 248 1019 q 138 998 172 1012 q 85 963 103 985 l 79 103 m 27 982 q 122 1050 64 1027 q 236 1074 180 1074 q 318 1059 277 1074 q 391 1013 359 1044 l 401 766 q 444 804 422 785 q 484 840 465 823 q 524 849 507 846 q 555 852 541 852 q 633 833 601 852 q 686 787 665 815 q 721 724 708 758 q 741 661 734 690 q 735 625 741 642 q 717 589 730 608 q 683 547 704 570 q 632 494 662 525 q 619 480 625 487 q 606 467 613 473 q 650 405 625 438 q 701 337 674 372 q 752 270 727 302 q 799 210 777 237 q 757 92 791 134 q 680 31 723 50 q 591 8 636 11 q 514 8 547 5 l 395 183 q 393 136 393 155 q 392 104 392 118 q 392 75 392 90 q 391 42 392 61 q 314 10 359 26 q 218 -7 269 -5 q 115 12 167 -8 q 20 85 62 31 l 27 982 z "},"C":{"ha":926,"x_min":16,"x_max":910,"o":"m 850 392 q 833 439 849 419 q 793 471 817 458 q 741 489 769 484 q 687 490 712 494 q 642 474 662 487 q 617 438 623 461 q 532 349 574 373 q 452 331 490 326 q 385 366 415 336 q 335 438 354 396 q 310 529 316 480 q 316 623 304 578 q 340 686 324 652 q 380 747 357 719 q 432 793 403 774 q 494 811 461 811 q 566 789 528 811 q 643 715 604 768 q 700 699 666 696 q 764 720 734 703 q 814 766 795 738 q 830 825 834 793 q 742 978 802 924 q 608 1049 682 1032 q 454 1048 534 1066 q 302 987 373 1031 q 176 878 231 944 q 102 732 122 812 q 77 513 72 616 q 115 328 83 411 q 200 184 146 245 q 319 90 254 123 q 458 55 385 57 q 603 88 532 53 q 739 197 674 123 q 850 392 803 271 m 906 369 q 814 199 865 270 q 706 83 764 129 q 587 16 648 38 q 463 -5 525 -5 q 295 35 376 -5 q 153 146 214 75 q 54 319 91 218 q 16 543 16 420 q 43 747 16 635 q 115 895 64 827 q 233 1013 165 963 q 379 1090 300 1062 q 536 1118 458 1118 q 647 1101 593 1118 q 748 1051 701 1085 q 831 963 795 1017 q 891 834 868 909 q 878 761 895 796 q 831 699 861 726 q 765 655 802 671 q 693 639 728 639 q 645 646 669 639 q 601 671 621 654 q 543 733 568 715 q 496 751 517 751 q 455 738 475 751 q 420 703 435 724 q 392 656 404 681 q 374 608 380 631 l 376 608 q 372 548 370 585 q 384 477 373 511 q 415 416 395 442 q 468 391 435 391 q 511 409 487 391 q 563 467 536 427 q 620 531 579 510 q 709 552 661 552 q 779 541 743 552 q 844 510 815 530 q 890 460 872 490 q 910 395 909 431 l 906 369 z "},"V":{"ha":983,"x_min":16,"x_max":967,"o":"m 365 76 q 406 62 378 66 q 467 57 433 58 q 536 58 500 56 q 605 63 572 60 q 663 71 637 66 q 700 81 689 76 l 906 963 q 884 1011 902 993 q 840 1039 865 1029 q 784 1050 814 1048 q 727 1050 754 1053 q 679 1040 700 1047 q 650 1027 658 1034 l 518 477 l 368 1027 q 302 1044 345 1040 q 216 1044 260 1048 q 133 1025 172 1039 q 77 991 94 1012 q 79 986 77 990 q 89 956 80 982 q 115 876 98 930 q 165 719 133 821 q 245 460 197 617 q 365 76 294 304 m 321 23 q 207 374 255 225 q 125 629 159 524 q 72 802 92 734 q 39 913 52 871 q 22 979 27 956 q 16 1015 18 1001 q 62 1053 34 1036 q 125 1082 91 1070 q 195 1101 159 1095 q 264 1107 231 1107 q 345 1097 304 1107 q 419 1066 387 1086 l 514 724 q 554 893 533 810 q 594 1058 575 977 q 665 1096 618 1080 q 761 1112 712 1112 q 829 1105 795 1112 q 892 1079 864 1097 q 941 1031 921 1061 q 967 960 962 1002 l 751 38 q 659 10 716 22 q 538 -5 601 -1 q 416 -3 475 -9 q 321 23 358 3 z "},"M":{"ha":1016,"x_min":11,"x_max":1004,"o":"m 81 107 q 156 45 114 62 q 238 28 198 27 q 311 45 278 30 q 362 81 345 61 l 355 457 l 481 85 q 532 73 509 64 q 576 98 556 83 q 585 127 578 98 q 602 199 591 156 q 623 292 612 241 q 644 385 633 342 q 661 456 654 427 q 669 484 667 484 q 671 456 670 484 q 672 385 671 427 q 674 292 673 342 q 676 199 675 241 q 677 127 677 156 q 680 98 678 98 q 719 71 688 84 q 790 56 750 57 q 871 73 830 54 q 941 141 913 91 l 891 1027 q 854 1048 888 1039 q 777 1061 821 1058 q 690 1055 732 1063 q 632 1021 648 1046 l 502 624 l 328 1035 q 276 1054 309 1046 q 205 1061 243 1062 q 132 1048 168 1061 q 71 1004 96 1035 l 81 107 m 11 1024 q 109 1101 56 1080 q 212 1122 161 1122 q 300 1109 256 1122 q 376 1077 345 1096 l 496 796 q 538 926 517 861 q 579 1051 560 990 q 654 1106 605 1090 q 755 1122 703 1122 q 823 1114 789 1122 q 884 1095 857 1107 q 930 1067 911 1082 q 952 1034 948 1051 l 1004 127 q 904 23 960 52 q 795 -5 848 -5 q 740 -1 766 -5 q 691 16 713 4 q 653 46 669 27 q 631 95 637 65 q 588 36 617 61 q 519 11 559 11 q 477 22 499 11 q 422 73 454 33 l 422 61 q 340 -5 391 22 q 232 -33 289 -33 q 124 -6 180 -33 q 20 85 68 20 l 11 1024 z "},"v":{"ha":773,"x_min":12,"x_max":761,"o":"m 302 110 q 342 80 315 92 q 400 66 369 68 q 461 73 431 64 q 509 110 491 83 l 701 694 q 663 750 692 731 q 600 775 635 769 q 532 774 566 781 q 480 750 499 766 l 396 416 l 288 724 q 214 774 252 772 q 143 758 175 777 q 91 708 111 738 q 71 659 71 678 l 302 110 m 12 647 q 27 699 12 667 q 68 761 42 731 q 129 812 95 791 q 201 834 163 834 q 272 815 236 834 q 339 753 308 796 l 388 618 l 429 781 q 495 822 457 807 q 570 837 533 837 q 629 829 600 837 q 685 803 659 821 q 731 758 711 785 q 761 690 751 730 l 562 83 q 494 25 534 43 q 412 7 454 7 q 319 28 365 7 q 251 83 274 49 l 12 647 z "},"|":{"ha":427,"x_min":24,"x_max":401,"o":"m 343 5 q 337 153 339 72 q 334 323 335 235 q 333 504 334 411 q 332 685 332 597 q 329 854 331 773 q 324 1002 327 936 q 305 1048 323 1029 q 261 1076 288 1066 q 205 1088 235 1086 q 149 1084 175 1090 q 104 1064 122 1078 q 83 1028 85 1050 l 92 8 q 158 -30 118 -20 q 238 -36 198 -39 q 308 -21 278 -33 q 343 5 338 -9 m 397 -14 q 374 -45 392 -30 q 332 -71 357 -60 q 277 -88 307 -81 q 216 -95 247 -95 q 121 -77 170 -95 q 34 -14 73 -58 l 24 1035 q 80 1120 31 1092 q 190 1147 129 1147 q 258 1139 224 1147 q 319 1112 292 1130 q 363 1067 346 1093 q 382 1005 380 1040 q 388 792 387 911 q 391 545 389 673 q 393 257 392 397 q 401 9 395 117 l 397 -14 z "},"D":{"ha":825,"x_min":5,"x_max":821,"o":"m 296 758 q 485 675 430 735 q 530 524 540 614 q 507 443 526 481 q 458 376 488 404 q 387 331 427 347 q 296 319 346 315 l 296 758 m 77 76 q 209 65 137 64 q 355 83 281 66 q 498 134 429 100 q 624 222 568 168 q 715 351 680 277 q 757 524 751 426 q 732 687 761 609 q 651 830 704 765 q 528 943 598 895 q 378 1018 457 991 q 219 1046 300 1044 q 66 1020 138 1048 l 77 76 m 5 1061 q 117 1096 65 1085 q 213 1107 170 1107 q 361 1086 286 1107 q 505 1027 437 1065 q 633 935 574 989 q 734 817 692 882 q 798 676 776 751 q 817 521 821 601 q 781 353 811 427 q 704 221 751 278 q 596 123 656 164 q 468 56 536 81 q 330 18 400 30 q 195 5 260 5 q 16 27 123 5 l 5 1061 m 357 387 q 434 442 406 401 q 469 530 463 483 q 447 621 473 581 q 357 682 420 661 l 357 387 z "},"a":{"ha":766,"x_min":24,"x_max":736,"o":"m 431 293 q 381 275 403 274 q 345 288 359 275 q 321 324 330 301 q 313 374 313 347 q 328 448 313 416 q 362 498 342 479 q 405 525 382 518 q 444 525 427 532 l 431 293 m 439 80 q 458 62 441 71 q 500 51 475 54 q 555 49 525 47 q 610 58 585 50 q 655 79 636 65 q 678 114 674 92 l 678 724 q 640 766 675 751 q 563 783 605 780 q 484 779 521 787 q 439 753 448 770 l 439 713 q 318 709 377 731 q 211 637 259 688 q 130 512 163 586 q 90 353 98 438 q 95 262 85 308 q 125 180 104 217 q 178 116 146 142 q 250 81 210 90 q 338 87 290 73 q 437 146 385 102 l 439 80 m 540 -9 q 451 5 492 -9 q 391 46 410 20 q 282 20 335 20 q 172 50 221 20 q 90 128 123 80 q 41 237 57 176 q 31 358 24 297 q 71 522 39 445 q 149 656 102 600 q 257 747 197 713 q 384 780 317 780 l 389 780 q 452 826 411 810 q 540 842 494 842 q 606 836 572 842 q 668 815 640 829 q 714 781 696 802 q 736 731 732 760 l 736 109 q 710 54 730 76 q 663 17 690 31 q 604 -3 636 3 q 540 -9 571 -9 z "},"N":{"ha":928,"x_min":12,"x_max":916,"o":"m 83 73 q 136 52 96 60 q 221 43 175 45 q 311 46 267 42 q 377 61 355 50 l 387 450 l 556 87 q 600 64 564 76 q 682 50 636 53 q 772 60 727 47 q 845 107 818 72 l 854 1027 q 798 1048 840 1039 q 707 1059 755 1057 q 611 1054 658 1061 q 538 1028 564 1047 l 555 511 l 346 1024 q 279 1041 319 1038 q 200 1040 240 1044 q 125 1025 160 1036 q 73 998 91 1015 l 83 73 m 12 1027 q 60 1059 33 1044 q 117 1083 87 1073 q 180 1099 148 1093 q 243 1104 213 1104 q 318 1096 279 1104 q 393 1069 357 1088 l 483 845 q 479 954 480 898 q 477 1059 479 1009 q 577 1105 521 1090 q 685 1120 633 1120 q 751 1116 718 1120 q 815 1101 784 1111 q 873 1080 846 1092 q 916 1053 899 1067 l 905 87 q 808 10 863 31 q 699 -11 753 -11 q 634 -5 666 -11 q 576 11 602 1 q 530 33 549 20 q 505 56 511 45 l 441 194 q 439 106 439 149 q 437 23 438 62 q 344 -7 393 3 q 248 -18 294 -18 q 184 -14 217 -18 q 120 -1 151 -9 q 64 21 90 8 q 22 50 38 34 l 12 1027 z "},"W":{"ha":1241,"x_min":16,"x_max":1225,"o":"m 600 361 l 685 83 q 733 68 694 73 q 817 64 772 62 q 899 77 861 66 q 941 107 936 87 l 1162 945 q 1139 991 1160 971 q 1088 1023 1118 1010 q 1023 1042 1058 1036 q 957 1046 987 1048 q 904 1036 926 1044 q 876 1010 882 1027 l 810 526 l 723 750 q 686 774 712 766 q 628 781 659 783 q 564 767 597 780 q 510 728 532 754 l 435 547 l 347 1048 q 281 1050 321 1051 q 199 1043 240 1050 q 125 1021 159 1036 q 80 979 92 1005 l 247 80 q 372 64 311 65 q 481 91 434 64 l 600 361 m 529 47 q 453 18 491 27 q 374 7 415 8 q 289 13 334 7 q 194 30 244 19 l 16 987 q 66 1048 34 1024 q 138 1086 99 1072 q 219 1105 178 1100 q 296 1111 260 1111 q 345 1109 317 1111 q 397 1105 372 1107 l 458 760 q 544 822 495 803 q 637 841 593 841 q 720 823 681 841 q 780 773 758 806 l 781 769 q 798 895 789 831 q 815 1020 807 958 q 871 1085 829 1063 q 968 1107 914 1107 q 1051 1096 1008 1107 q 1132 1065 1095 1085 q 1195 1014 1169 1044 q 1225 943 1221 983 l 1000 91 q 965 44 990 62 q 905 16 940 26 q 831 5 871 7 q 753 7 791 3 q 682 24 715 12 q 631 52 650 35 l 590 186 l 529 47 z "},"m":{"ha":952,"x_min":30,"x_max":922,"o":"m 88 88 q 120 66 88 72 q 193 62 152 60 q 270 72 233 64 q 317 92 307 80 q 323 177 324 121 q 323 292 323 233 q 329 399 323 351 q 355 457 335 446 q 379 430 372 456 q 389 357 387 404 q 391 241 391 309 q 393 88 391 174 q 423 75 401 80 q 469 69 445 69 q 515 75 494 69 q 548 95 537 81 q 557 189 555 133 q 565 296 560 244 q 578 388 570 349 q 608 431 587 427 q 626 402 621 425 q 633 339 631 380 q 637 239 635 298 q 650 99 640 179 q 677 74 654 88 q 730 54 700 60 q 795 54 761 47 q 856 92 829 61 q 857 492 872 345 q 800 703 841 640 q 692 755 758 766 q 540 680 625 745 q 490 751 517 731 q 431 768 463 770 q 366 748 400 766 q 298 705 332 730 l 298 751 q 254 769 281 764 q 199 772 228 774 q 140 758 170 769 q 88 724 111 746 l 88 88 m 30 750 q 123 812 73 793 q 216 830 172 830 q 332 796 273 830 q 384 819 358 811 q 437 827 410 827 q 503 813 472 827 q 559 765 533 799 q 708 815 639 815 q 798 788 758 815 q 865 702 838 761 q 907 549 892 643 q 922 321 922 454 q 920 203 922 270 q 913 71 918 136 q 837 9 875 27 q 762 -8 799 -8 q 712 -1 736 -8 q 666 18 688 7 q 627 43 644 28 q 601 69 610 57 q 542 25 579 39 q 469 11 505 11 q 410 21 441 11 q 354 50 378 31 q 271 15 323 27 q 172 3 220 3 q 73 23 115 3 q 30 88 30 43 l 30 750 z "},"w":{"ha":1085,"x_min":27,"x_max":1061,"o":"m 206 109 q 241 83 213 92 q 304 71 270 73 q 370 77 338 69 q 418 104 403 85 l 524 387 l 598 98 q 638 67 609 77 q 701 58 667 57 q 764 68 734 58 q 806 99 793 79 l 998 690 q 987 723 1001 708 q 951 747 974 738 q 901 762 929 757 q 849 768 873 768 q 806 764 825 769 q 784 750 788 760 l 684 444 l 631 715 q 545 750 595 750 q 448 715 495 750 l 376 433 l 311 745 q 253 766 286 764 q 187 758 220 768 q 127 728 155 747 q 88 685 100 708 l 206 109 m 27 692 q 64 743 39 719 q 117 785 88 766 q 179 814 146 803 q 243 825 212 825 q 301 814 271 825 q 362 777 331 803 l 380 690 q 388 720 384 705 q 396 749 392 734 q 545 808 476 808 q 684 743 618 808 l 699 673 q 713 721 705 696 q 728 769 722 746 q 771 813 739 799 q 844 827 803 827 q 917 817 878 827 q 989 788 956 807 q 1041 741 1021 769 q 1055 677 1061 713 l 860 76 q 791 19 837 39 q 699 -1 746 -1 q 608 17 651 -1 q 545 72 566 35 l 514 191 q 492 132 502 160 q 471 76 481 104 q 401 26 444 41 q 317 12 359 12 q 264 18 290 12 q 216 33 239 23 q 177 56 194 42 q 152 88 160 71 l 27 692 z "},"E":{"ha":764,"x_min":11,"x_max":753,"o":"m 72 77 l 637 88 q 665 135 652 107 q 683 195 678 163 q 682 263 688 228 q 651 331 675 298 l 307 330 l 301 517 l 528 524 q 546 566 541 538 q 549 623 551 594 q 538 675 547 652 q 518 704 530 699 l 312 711 l 300 836 l 623 840 q 671 879 655 849 q 691 943 688 909 q 688 1008 694 978 q 667 1050 681 1039 l 72 1043 l 72 77 m 11 1103 l 688 1111 q 734 1046 716 1088 q 753 964 753 1005 q 746 907 753 936 q 725 853 739 879 q 687 808 711 827 q 631 780 663 789 l 368 774 l 368 769 q 450 768 408 769 q 530 765 492 766 q 563 742 548 758 q 589 703 578 726 q 605 655 600 681 q 610 605 610 629 q 597 532 610 570 q 552 464 583 495 l 363 458 q 365 430 365 445 q 366 389 365 415 q 526 391 449 389 q 682 392 604 392 q 731 303 716 345 q 746 227 746 262 q 722 119 746 172 q 667 28 697 65 l 11 16 l 11 1103 z "},"b":{"ha":747,"x_min":18,"x_max":730,"o":"m 407 559 q 438 536 426 557 q 457 486 450 515 q 463 422 464 456 q 456 359 463 388 q 434 311 449 330 q 397 293 419 292 q 369 314 380 293 q 354 365 358 335 q 351 429 350 395 q 359 493 353 464 q 378 541 366 522 q 407 559 389 560 m 83 79 q 130 54 99 60 q 193 51 160 49 q 254 62 225 53 q 297 81 283 71 l 297 114 q 449 67 378 61 q 571 128 519 73 q 650 281 623 183 q 670 513 677 380 q 612 686 654 624 q 517 765 571 747 q 406 758 464 783 q 297 670 347 732 l 292 970 q 235 1012 269 1004 q 170 1013 202 1020 q 112 991 138 1006 q 76 963 85 975 l 83 79 m 18 985 q 49 1013 28 997 q 94 1042 69 1028 q 147 1065 119 1055 q 202 1074 175 1074 q 278 1056 240 1074 q 350 989 316 1038 l 354 796 q 473 830 410 830 q 559 812 518 830 q 633 755 600 793 q 690 657 666 716 q 727 518 715 598 q 729 490 728 505 q 730 463 730 475 q 708 274 730 358 q 648 131 686 190 q 555 40 609 72 q 437 8 500 8 q 321 34 378 8 q 250 3 290 15 q 172 -8 209 -8 q 95 7 133 -8 q 24 56 57 22 l 18 985 z "},"O":{"ha":902,"x_min":9,"x_max":891,"o":"m 410 316 q 357 361 374 321 q 337 454 339 400 q 345 570 335 509 q 376 680 355 631 q 425 759 396 730 q 487 780 453 788 q 528 734 513 772 q 549 645 544 697 q 547 535 553 593 q 524 429 541 477 q 477 347 506 380 q 410 316 449 315 m 71 511 q 96 335 71 418 q 169 191 122 252 q 279 94 216 129 q 420 58 343 58 q 589 113 515 66 q 713 232 662 160 q 793 393 764 304 q 829 574 822 483 q 819 753 836 666 q 764 909 803 841 q 663 1017 726 977 q 515 1058 601 1058 q 342 1018 423 1058 q 201 905 262 978 q 106 732 141 833 q 71 511 71 632 m 9 511 q 50 758 9 646 q 159 949 90 869 q 319 1074 228 1029 q 515 1118 411 1118 q 681 1078 610 1118 q 798 969 751 1038 q 868 812 845 901 q 891 627 891 723 q 862 411 891 519 q 774 214 833 302 q 629 66 716 125 q 426 -3 541 7 q 258 37 334 -3 q 126 147 182 77 q 40 311 71 217 q 9 511 9 404 m 472 722 q 448 699 460 722 q 425 642 435 677 q 406 565 414 608 q 397 484 399 522 q 399 415 395 445 q 418 376 404 385 l 415 376 q 445 394 431 373 q 469 450 458 415 q 486 526 480 484 q 494 608 492 568 q 490 678 495 647 q 472 722 484 709 z "},"n":{"ha":787,"x_min":23,"x_max":764,"o":"m 490 104 q 522 72 495 84 q 582 58 548 60 q 650 66 616 57 q 704 99 684 76 q 703 256 704 168 q 693 431 703 345 q 662 591 684 517 q 598 708 640 666 q 490 749 556 750 q 327 684 425 749 l 330 718 q 312 743 330 734 q 268 755 294 751 q 211 755 241 758 q 153 745 180 753 q 106 726 126 738 q 83 699 87 713 l 83 110 q 124 70 91 83 q 196 56 157 57 q 271 68 235 56 q 320 104 307 80 l 317 476 q 417 504 382 518 q 467 436 452 490 q 486 296 483 382 q 490 104 488 209 m 431 103 q 429 239 430 176 q 425 349 429 302 q 416 422 422 396 q 397 449 410 449 q 377 442 391 449 q 377 264 377 359 q 378 88 377 170 q 301 20 351 43 q 199 -3 251 -3 q 91 22 141 -3 q 23 99 41 47 l 23 703 q 52 749 30 728 q 104 785 73 770 q 170 807 134 799 q 237 815 205 815 q 310 805 277 815 q 365 772 343 795 q 500 808 439 808 q 608 778 564 808 q 682 696 652 747 q 727 577 711 644 q 751 437 743 510 q 762 291 760 365 q 764 153 764 217 l 764 76 q 680 18 727 37 q 591 0 633 0 q 538 5 564 0 q 491 22 513 11 q 454 50 469 34 q 434 88 439 66 l 431 103 z "},"F":{"ha":699,"x_min":-1,"x_max":701,"o":"m 76 122 q 102 77 81 94 q 151 53 123 60 q 211 47 179 46 q 271 56 243 49 q 319 76 298 64 q 345 103 339 88 l 350 469 l 551 477 q 572 518 560 488 q 587 582 585 548 q 578 646 590 616 q 528 689 567 677 l 350 690 l 350 802 l 571 804 q 625 864 609 826 q 640 941 642 902 q 616 1010 637 979 q 557 1050 595 1042 l 61 1048 l 76 122 m -1 1108 l 564 1109 q 666 1044 631 1096 q 701 929 701 991 q 674 827 701 878 q 590 745 647 777 l 553 743 q 627 681 606 720 q 648 598 648 642 q 641 547 648 574 q 623 496 633 521 q 600 450 612 471 q 579 419 587 430 l 410 411 q 408 250 410 330 q 406 91 407 171 q 376 50 397 69 q 328 17 355 31 q 269 -5 301 3 q 203 -14 236 -14 q 141 -7 171 -14 q 85 16 111 0 q 42 55 60 31 q 16 114 24 79 l -1 1108 z "},"c":{"ha":646,"x_min":8,"x_max":633,"o":"m 71 408 q 92 244 66 313 q 160 133 117 175 q 259 79 203 91 q 372 85 315 66 q 481 156 429 104 q 572 296 534 208 q 550 334 570 313 q 505 366 530 354 q 454 378 480 378 q 415 357 429 378 q 363 315 388 321 q 321 322 339 309 q 292 361 302 335 q 285 414 282 387 q 302 486 288 448 q 338 547 317 525 q 382 562 359 568 q 423 503 404 556 q 475 503 449 495 q 523 528 502 510 q 555 573 544 547 q 560 628 566 600 q 469 735 521 703 q 364 768 418 768 q 259 739 311 768 q 166 661 208 709 q 99 547 125 612 q 71 408 73 481 m 12 411 q 47 570 15 495 q 128 703 79 646 q 239 793 178 760 q 366 826 301 826 q 500 785 435 826 q 616 650 564 743 q 604 562 624 604 q 547 492 583 521 q 466 452 511 464 q 377 456 420 441 q 368 503 362 495 q 349 489 358 509 q 334 443 339 469 q 332 394 330 416 q 350 372 335 372 q 371 382 359 372 q 395 404 382 392 q 424 427 408 416 q 457 437 439 437 q 513 422 483 437 q 568 386 543 408 q 612 337 594 363 q 633 288 631 311 q 565 167 604 218 q 484 81 526 115 q 395 31 441 47 q 304 15 349 15 q 190 41 244 15 q 95 118 136 68 q 31 242 54 168 q 12 411 8 316 z "},"X":{"ha":1021,"x_min":3,"x_max":1008,"o":"m 79 214 q 81 176 71 197 q 114 136 92 156 q 164 97 136 115 q 221 65 193 79 q 274 45 250 52 q 312 43 298 39 l 496 368 l 696 88 q 730 87 703 80 q 793 111 758 94 q 863 153 827 127 q 920 206 898 178 q 947 263 943 235 q 924 316 951 292 l 707 608 l 853 865 q 860 927 867 897 q 834 983 853 958 q 789 1029 815 1009 q 736 1059 762 1048 q 687 1070 709 1070 q 654 1057 665 1070 l 494 757 l 271 1053 q 205 1040 240 1054 q 139 1005 170 1027 q 89 957 109 983 q 72 906 69 930 l 315 549 l 79 214 m 240 551 q 123 726 183 635 q 7 901 62 818 q 30 975 3 936 q 100 1045 57 1013 q 195 1097 142 1077 q 292 1115 247 1116 l 486 868 q 544 978 513 920 q 602 1088 575 1036 q 688 1131 633 1131 q 760 1113 719 1131 q 836 1064 800 1095 q 897 993 872 1034 q 922 906 922 952 q 903 831 922 873 l 779 612 q 873 485 826 548 q 967 358 920 422 q 999 315 990 338 q 1008 267 1008 292 q 985 195 1008 232 q 928 126 963 159 q 852 68 894 94 q 770 32 810 43 q 700 24 731 20 q 655 56 669 28 l 502 255 q 425 122 464 190 q 351 -7 387 54 q 290 -20 327 -23 q 212 1 252 -16 q 132 47 171 19 q 64 108 92 75 q 24 177 35 141 q 26 245 12 213 l 240 551 z "},"x":{"ha":879,"x_min":19,"x_max":863,"o":"m 633 60 q 690 67 655 53 q 754 105 724 81 q 800 159 784 129 q 798 214 815 189 l 578 439 l 764 651 q 740 713 761 688 q 692 752 719 738 q 637 768 665 766 q 594 761 610 770 l 430 576 l 281 777 q 225 772 260 783 q 156 740 190 761 q 98 692 122 719 q 77 640 75 665 l 264 395 l 90 170 q 117 113 96 138 q 166 73 138 88 q 226 52 194 57 q 286 54 258 46 l 427 277 l 633 60 m 435 180 q 379 91 408 137 q 324 4 350 45 q 250 -8 275 -8 q 179 5 214 -8 q 113 45 144 19 q 58 105 81 71 q 26 183 35 140 l 191 396 q 104 509 148 452 q 22 618 61 566 q 34 670 19 643 q 75 722 49 697 q 136 769 102 747 q 203 806 170 791 q 267 827 236 821 q 316 829 297 834 l 434 670 q 495 739 464 704 q 553 806 526 773 q 591 823 571 817 q 628 829 610 829 q 689 816 656 829 q 750 779 722 803 q 800 718 779 754 q 825 633 821 681 l 658 441 q 752 345 705 393 q 845 250 799 297 q 857 193 863 222 q 832 134 852 163 q 783 79 812 104 q 720 35 753 53 q 655 9 686 18 q 602 7 624 0 l 435 180 z "},"o":{"ha":686,"x_min":22,"x_max":663,"o":"m 362 555 q 381 532 374 553 q 390 478 388 510 q 389 410 392 446 q 378 343 387 373 q 357 295 370 313 q 326 281 345 277 q 304 305 312 283 q 293 359 296 327 q 294 426 290 391 q 306 490 297 461 q 328 538 315 519 q 362 555 342 557 m 313 62 q 432 91 380 61 q 521 169 484 121 q 578 280 557 217 q 604 409 600 343 q 598 538 609 475 q 559 652 587 601 q 488 734 532 703 q 382 769 444 766 q 280 747 328 774 q 193 673 232 720 q 127 563 155 625 q 88 434 100 500 q 81 303 76 368 q 112 186 85 239 q 188 100 138 134 q 313 62 237 66 m 311 4 q 177 37 232 8 q 87 113 122 66 q 37 218 53 159 q 22 342 22 277 q 50 519 22 430 q 128 680 79 609 q 244 793 178 751 q 387 829 311 836 l 385 829 q 508 792 456 825 q 595 707 560 760 q 646 589 629 655 q 663 450 663 522 q 641 289 663 369 q 575 145 618 209 q 465 42 532 81 q 312 4 399 3 l 311 4 z "},"P":{"ha":829,"x_min":9,"x_max":818,"o":"m 347 826 q 441 844 399 840 q 509 841 476 846 q 548 810 541 836 q 524 760 548 780 q 469 729 500 741 q 404 713 437 718 q 351 708 370 708 l 347 826 m 103 91 q 130 67 110 77 q 178 52 151 57 q 238 45 206 46 q 300 50 270 45 q 355 65 330 54 q 393 95 380 76 l 374 463 q 572 536 494 486 q 694 647 650 586 q 751 770 738 708 q 751 882 764 833 q 680 977 734 941 q 555 1030 627 1013 q 402 1046 483 1047 q 252 1030 321 1044 q 132 989 182 1016 q 71 929 81 963 l 103 91 m 9 937 q 60 1006 22 975 q 154 1060 99 1038 q 275 1095 209 1082 q 408 1107 340 1107 q 539 1095 475 1107 q 659 1058 604 1084 q 753 993 713 1032 q 810 897 793 954 q 818 830 818 864 q 798 714 818 776 q 732 595 777 652 q 614 490 686 538 q 437 415 541 442 q 447 245 442 334 q 456 77 452 157 q 361 5 419 27 q 245 -16 302 -16 q 123 9 180 -16 q 42 76 65 34 l 9 937 z "},"d":{"ha":718,"x_min":22,"x_max":694,"o":"m 260 419 q 288 521 267 490 q 332 554 309 552 q 372 536 354 556 q 392 484 389 515 q 372 358 392 403 q 327 306 351 313 q 282 327 302 298 q 260 419 262 355 m 80 296 q 112 160 84 221 q 184 73 140 99 q 284 64 228 46 q 400 163 340 81 l 400 80 q 439 65 411 73 q 500 56 467 57 q 571 65 534 54 q 636 109 608 76 l 636 975 q 612 1011 631 1000 q 567 1025 593 1023 q 512 1022 541 1028 q 459 1006 483 1016 q 420 985 435 997 q 408 962 406 972 l 408 711 q 298 759 347 754 q 212 739 250 764 q 149 667 175 715 q 106 559 122 620 q 83 431 90 499 q 80 296 77 362 m 22 290 l 22 339 q 37 511 22 425 q 83 665 52 597 q 165 775 115 732 q 282 818 214 818 q 315 814 297 818 q 350 806 332 811 l 350 962 l 350 955 q 368 999 350 977 q 416 1040 387 1021 q 481 1072 445 1059 q 553 1084 518 1084 q 642 1061 602 1084 q 694 979 682 1038 l 694 88 q 600 16 647 35 q 509 -3 552 -3 q 429 11 469 -3 q 361 38 388 24 q 243 -4 302 -4 q 158 20 197 -4 q 90 84 119 43 q 42 178 60 125 q 22 293 24 232 l 22 290 z "},"G":{"ha":918,"x_min":9,"x_max":909,"o":"m 454 608 q 431 583 442 602 q 415 537 420 563 q 411 483 410 511 q 422 431 412 454 q 451 392 431 407 q 503 380 471 377 l 589 388 q 507 314 552 332 q 421 307 463 296 q 348 355 380 317 q 308 450 316 393 q 302 516 304 477 q 308 597 301 555 q 332 677 315 639 q 384 742 350 716 q 471 775 418 768 q 601 762 524 783 q 646 765 627 755 q 680 794 666 774 q 700 839 693 814 q 709 888 707 864 q 708 932 711 913 q 697 960 705 952 q 645 1000 677 982 q 572 1030 613 1019 q 484 1046 532 1042 q 382 1043 435 1050 q 219 965 285 1029 q 117 808 153 901 q 72 606 80 715 q 83 397 64 498 q 149 214 103 296 q 266 92 195 132 q 431 66 336 52 q 643 174 526 81 l 643 88 q 692 64 661 71 q 755 60 723 57 q 815 73 788 62 q 849 100 842 84 l 838 602 l 454 608 m 897 663 l 909 88 q 841 23 891 47 q 736 -1 791 -1 q 658 13 697 -1 q 586 62 618 27 q 478 16 529 30 q 380 1 427 1 q 221 48 290 1 q 105 171 152 95 q 34 345 58 247 q 9 545 9 444 q 31 737 9 643 q 98 909 53 831 q 212 1038 144 986 q 374 1104 281 1090 l 373 1103 q 413 1107 396 1105 q 448 1108 430 1108 q 621 1077 544 1108 q 741 1002 699 1046 q 763 961 755 986 q 770 907 770 936 q 760 830 770 871 q 726 757 749 789 q 669 707 704 724 q 585 704 633 690 l 586 703 q 499 716 536 716 q 439 704 464 716 q 399 671 415 692 q 376 625 384 651 q 365 572 368 600 q 396 632 376 606 q 439 669 416 658 l 897 663 z "},"Y":{"ha":1046,"x_min":11,"x_max":1034,"o":"m 374 103 q 465 52 416 65 q 558 42 513 38 q 642 64 604 46 q 701 110 680 83 l 708 614 l 964 994 q 911 1038 951 1024 q 825 1057 872 1053 q 732 1056 777 1061 q 662 1043 686 1051 l 519 770 l 313 1053 q 296 1058 312 1055 q 257 1062 281 1061 q 204 1060 233 1063 q 149 1047 175 1057 q 102 1020 123 1038 q 75 974 81 1002 l 378 605 l 374 103 m 319 583 q 242 678 281 628 q 165 779 203 728 q 87 880 126 830 q 11 974 49 929 q 38 1040 16 1012 q 92 1087 60 1069 q 164 1114 125 1105 q 241 1121 203 1122 q 313 1110 279 1120 q 368 1081 346 1100 l 513 887 q 568 992 540 939 q 620 1093 595 1046 q 697 1112 652 1104 q 783 1119 742 1119 q 857 1112 819 1119 q 928 1090 894 1105 q 989 1050 962 1074 q 1034 989 1017 1025 l 769 597 q 765 342 766 473 q 761 87 764 210 q 663 11 723 41 q 536 -19 604 -19 q 428 3 484 -19 q 313 77 372 24 l 319 583 z "},"y":{"ha":836,"x_min":3,"x_max":831,"o":"m 109 -370 q 149 -396 115 -381 q 227 -419 182 -411 q 318 -422 271 -427 q 400 -389 365 -418 l 772 686 q 741 737 769 719 q 677 762 713 755 q 602 764 640 768 q 543 751 564 761 l 407 292 l 324 743 q 254 781 293 779 q 176 770 214 784 q 109 734 138 757 q 68 694 79 711 l 290 73 l 109 -370 m 228 76 q 115 390 172 231 q 3 703 58 549 q 40 744 15 720 q 98 789 65 768 q 167 826 130 811 q 239 841 203 841 q 310 825 274 841 q 380 769 346 808 l 420 543 q 458 671 439 608 q 495 795 477 734 q 562 815 526 807 q 628 823 597 823 q 697 816 662 823 q 761 791 732 808 q 809 747 789 774 q 831 681 829 720 l 449 -425 q 368 -469 411 -456 q 285 -483 326 -483 q 208 -471 247 -483 q 135 -443 168 -460 q 77 -408 102 -426 q 43 -374 52 -389 l 228 76 z "},"e":{"ha":727,"x_min":8,"x_max":718,"o":"m 315 559 q 334 586 315 576 q 376 596 354 595 q 416 588 399 597 q 430 559 434 579 q 410 537 427 547 q 371 526 392 528 q 333 531 350 524 q 315 559 316 538 m 571 346 q 462 287 513 305 q 372 272 411 269 q 309 301 334 275 q 279 374 285 327 q 340 356 305 359 q 412 357 374 353 q 486 376 449 362 q 551 413 522 391 q 599 466 581 435 q 618 533 617 496 q 596 641 620 590 q 528 726 572 692 q 423 774 484 761 q 292 772 362 788 q 186 721 228 757 q 118 639 144 685 q 81 541 92 593 q 67 441 69 490 q 69 354 65 393 q 79 294 73 315 q 121 203 92 247 q 190 127 149 160 q 281 76 231 95 q 387 59 331 57 q 504 87 444 61 q 624 171 564 114 q 657 229 652 197 q 651 288 662 260 q 618 332 640 315 q 571 346 597 349 m 677 530 q 660 458 675 491 q 618 397 644 425 q 689 340 661 381 q 718 248 718 298 q 705 186 718 217 q 663 129 692 156 q 518 30 590 60 q 377 0 446 0 q 254 23 312 0 q 150 85 197 46 q 70 174 103 123 q 22 279 37 224 q 13 333 18 298 q 8 412 8 368 q 19 534 8 469 q 60 657 30 598 q 143 763 91 716 q 279 829 195 810 q 323 837 301 836 q 365 838 345 838 q 494 813 435 838 q 593 746 552 788 q 656 648 635 704 q 677 530 678 591 z "},"Q":{"ha":944,"x_min":11,"x_max":932,"o":"m 11 338 q 23 492 11 407 q 62 663 35 576 q 131 831 88 750 q 233 976 174 913 q 372 1076 293 1039 q 552 1112 452 1114 q 696 1071 629 1116 q 812 948 762 1025 q 891 772 863 871 q 920 571 920 673 q 908 442 920 506 q 871 321 897 378 q 878 318 878 319 q 886 313 879 317 q 932 213 932 275 q 920 151 932 182 q 882 96 907 119 q 817 62 856 72 q 724 66 779 53 l 694 88 q 557 18 629 41 q 408 -4 484 -4 q 259 18 331 -4 q 132 85 187 41 q 44 193 77 129 q 11 338 11 256 m 71 338 q 102 213 71 267 q 184 123 133 159 q 302 70 236 87 q 437 58 368 53 q 572 88 506 62 q 692 164 639 114 l 750 122 q 823 127 795 111 q 863 168 850 142 q 872 222 875 194 q 853 262 869 250 l 788 297 q 848 446 831 363 q 858 614 864 529 q 827 781 852 700 q 763 924 803 863 q 671 1021 723 986 q 559 1051 618 1057 q 397 1021 468 1055 q 271 930 326 987 q 178 797 217 872 q 116 641 140 722 q 81 481 92 560 q 71 338 71 403 m 543 829 q 613 789 589 826 q 646 699 637 751 q 651 590 654 647 q 640 492 648 533 l 632 496 l 640 491 q 629 448 635 464 q 621 434 624 431 l 557 471 q 498 476 525 481 q 453 454 471 471 q 427 410 435 437 q 425 354 419 384 l 481 313 q 390 281 426 278 q 334 314 354 285 q 311 393 315 343 q 315 499 307 442 q 345 614 324 556 q 394 720 365 673 q 461 798 423 768 q 543 829 499 829 m 543 761 q 482 732 511 762 q 431 654 453 701 q 393 551 408 608 q 373 442 377 495 q 410 491 384 469 q 469 525 437 513 q 533 537 500 537 q 589 521 566 537 q 597 587 594 549 q 597 659 601 624 q 580 722 593 694 q 543 761 567 750 m 636 487 q 637 484 636 486 l 636 486 l 636 487 z "},"p":{"ha":777,"x_min":18,"x_max":761,"o":"m 343 384 q 343 458 335 426 q 368 511 351 491 q 407 538 385 530 q 448 538 429 545 q 479 509 467 532 q 490 449 491 487 q 473 382 488 410 q 437 343 458 354 q 390 340 415 332 q 343 384 365 349 m 83 -391 q 138 -413 104 -406 q 203 -420 171 -420 q 264 -410 236 -419 q 305 -382 293 -400 l 292 122 q 417 81 359 80 q 522 111 475 81 q 604 193 568 141 q 661 304 639 244 q 694 425 684 365 q 700 534 704 486 q 677 642 699 597 q 623 715 656 688 q 546 754 589 743 q 458 761 503 765 q 369 737 412 757 q 290 685 326 718 l 286 734 q 257 764 281 746 q 201 788 233 781 q 136 785 170 795 q 76 735 102 776 l 83 -391 m 18 751 q 93 828 53 807 q 172 849 133 849 q 255 827 214 849 q 320 779 296 804 q 399 810 358 800 q 483 821 441 821 q 583 804 534 821 q 670 752 632 787 q 732 665 708 718 q 758 540 755 612 q 753 438 761 494 q 726 325 745 382 q 678 213 707 267 q 611 117 650 159 q 525 49 572 75 q 420 23 477 23 q 389 26 406 23 q 353 33 372 28 q 358 -186 355 -73 q 363 -401 361 -300 q 290 -459 336 -441 q 197 -477 244 -477 q 112 -464 157 -477 q 24 -423 66 -450 l 18 751 z "},"H":{"ha":848,"x_min":14,"x_max":831,"o":"m 77 99 q 147 66 102 72 q 239 66 193 61 q 321 83 285 72 q 363 103 357 95 l 376 408 l 486 408 l 490 95 q 539 73 502 83 q 621 62 576 64 q 707 71 665 61 q 769 106 749 81 l 770 977 q 754 1017 772 1001 q 709 1042 736 1034 q 649 1053 682 1051 q 585 1048 616 1054 q 530 1032 555 1043 q 496 1005 506 1021 l 492 621 l 376 624 l 370 991 q 340 1023 363 1010 q 285 1043 316 1036 q 218 1049 254 1050 q 152 1042 183 1048 q 99 1024 121 1036 q 73 993 77 1012 l 77 99 m 14 1000 q 39 1048 19 1027 q 86 1082 58 1069 q 148 1103 114 1096 q 217 1109 182 1109 q 286 1103 251 1109 q 349 1082 320 1096 q 399 1048 378 1069 q 430 1000 420 1027 l 433 819 q 435 922 434 871 q 437 1021 435 974 q 471 1060 449 1043 q 519 1089 492 1077 q 576 1107 545 1101 q 636 1114 606 1114 q 708 1105 673 1114 q 771 1080 743 1097 q 815 1038 799 1063 q 831 977 831 1012 q 831 531 831 758 q 830 84 830 304 q 737 20 792 38 q 631 3 682 3 q 571 8 601 3 q 514 22 541 14 q 465 44 487 31 q 429 72 442 57 l 429 195 q 425 136 426 165 q 423 80 425 107 q 391 57 415 71 q 334 31 368 43 q 263 11 301 19 q 191 3 225 3 q 100 19 145 3 q 16 75 54 35 l 14 1000 z "},"z":{"ha":750,"x_min":18,"x_max":731,"o":"m 612 76 q 654 117 639 87 q 673 182 670 146 q 664 253 675 217 q 627 312 652 289 l 369 302 l 612 506 q 631 559 618 522 q 644 637 643 595 q 625 715 644 678 q 551 772 606 753 l 122 757 q 93 718 106 753 q 77 643 80 684 q 85 566 75 602 q 125 521 95 529 l 397 529 l 104 288 q 87 231 94 260 q 81 172 81 201 q 86 120 80 144 q 107 80 92 96 l 612 76 m 83 22 q 37 95 50 57 q 23 168 23 133 q 31 243 23 203 q 54 321 39 283 l 229 465 q 172 464 201 464 q 117 463 144 464 q 41 523 64 477 q 18 623 18 568 q 26 686 18 654 q 47 745 34 718 q 78 791 61 772 q 113 815 95 810 l 560 830 q 673 751 643 803 q 703 642 703 700 q 698 589 703 614 q 686 540 693 563 q 671 498 678 517 q 661 471 665 480 l 537 368 q 593 370 563 369 q 647 372 624 370 q 711 286 692 332 q 731 197 731 240 q 703 90 731 140 q 624 18 675 39 l 83 22 z "},"Z":{"ha":944,"x_min":5,"x_max":939,"o":"m 830 81 q 863 132 848 98 q 878 210 878 167 q 858 296 879 252 q 783 376 837 340 l 449 365 l 727 792 q 753 827 739 804 q 780 878 768 850 q 800 936 792 906 q 805 989 807 966 q 788 1029 803 1013 q 741 1047 773 1046 l 142 1039 q 71 951 88 1008 q 85 806 53 895 l 412 806 l 126 407 q 117 367 123 395 q 104 304 110 339 q 94 230 98 269 q 95 157 91 191 q 113 96 99 122 q 153 61 126 71 l 830 81 m 144 0 q 54 81 79 23 q 30 209 30 140 q 34 277 30 243 q 43 342 38 312 q 53 397 47 373 q 62 434 58 422 l 300 746 l 43 746 q 14 840 23 800 q 5 907 5 880 q 37 1020 5 972 q 126 1100 68 1067 l 741 1107 q 839 1069 811 1105 q 867 979 867 1032 q 857 917 867 951 q 833 852 848 883 q 804 794 819 821 q 774 753 788 768 q 716 663 741 700 q 669 591 692 625 q 621 519 646 556 q 563 429 597 481 q 684 433 624 431 q 799 437 743 434 q 909 327 879 387 q 939 210 939 267 q 931 155 939 183 q 911 102 924 127 q 884 56 899 77 q 854 22 869 35 l 144 0 z "},"!":{"ha":401,"x_min":24,"x_max":377,"o":"m 84 449 q 136 426 107 434 q 195 419 165 418 q 255 431 225 420 q 309 461 285 441 l 319 1090 q 273 1124 308 1114 q 200 1135 239 1135 q 128 1122 161 1134 q 87 1088 95 1109 l 84 449 m 194 38 q 255 57 229 39 q 294 100 281 75 q 309 156 308 126 q 298 211 311 186 q 261 252 286 236 q 197 269 236 269 q 134 250 159 267 q 97 207 109 232 q 87 152 85 182 q 100 97 88 122 q 136 55 113 72 q 194 38 160 38 m 194 -20 q 123 -5 155 -20 q 71 35 92 11 q 39 92 50 60 q 28 156 28 123 q 39 218 28 187 q 70 272 49 248 q 122 311 91 296 q 195 327 153 326 q 272 313 240 327 q 326 277 304 300 q 357 224 347 254 q 368 161 368 194 q 357 98 368 129 q 324 41 346 66 q 271 -1 302 15 q 197 -20 239 -18 l 194 -20 m 28 1096 q 96 1168 45 1143 q 205 1194 148 1194 q 306 1171 258 1194 q 377 1103 354 1149 l 368 433 q 276 379 321 396 q 189 362 231 362 q 111 376 153 362 q 24 419 68 389 l 28 1096 z "},"(":{"ha":689,"x_min":24,"x_max":665,"o":"m 605 194 q 648 103 639 152 q 644 10 658 54 q 593 -68 631 -34 q 496 -114 556 -102 q 332 -10 416 -79 q 180 146 248 58 q 68 332 111 233 q 24 525 24 430 q 78 724 33 623 q 195 910 123 825 q 357 1053 266 996 q 544 1122 448 1111 q 599 1102 576 1119 q 636 1061 621 1085 q 658 1007 651 1036 q 665 948 665 978 q 654 884 665 917 q 621 819 643 850 q 576 800 613 819 q 497 743 540 780 q 417 653 454 707 q 369 533 380 600 q 389 435 366 487 q 447 335 411 382 q 526 250 483 288 q 605 194 568 212 m 581 141 q 488 205 537 161 q 397 306 438 250 q 330 423 355 362 q 311 538 305 484 q 338 642 316 594 q 389 726 359 689 q 450 792 418 764 q 512 840 483 821 q 562 868 541 859 q 590 878 583 878 q 606 924 602 894 q 604 984 609 954 q 585 1038 600 1015 q 545 1063 570 1061 q 377 1002 458 1054 q 232 873 296 949 q 128 704 168 796 q 83 522 88 612 q 116 345 79 434 q 215 179 153 256 q 353 41 277 102 q 503 -53 430 -20 l 507 -53 q 534 -43 515 -49 q 568 -20 552 -38 q 589 36 583 -1 q 581 141 595 73 z "},"/":{"ha":949,"x_min":23,"x_max":926,"o":"m 868 940 q 847 997 865 972 q 803 1034 829 1021 q 747 1047 777 1047 q 689 1029 718 1047 l 94 134 q 133 92 110 110 q 184 68 156 75 q 241 65 212 61 q 298 88 270 69 l 868 940 m 343 49 q 277 16 309 26 q 218 5 245 5 q 112 41 164 5 q 23 137 60 76 l 646 1072 q 750 1105 701 1105 q 813 1093 783 1105 q 868 1055 844 1080 q 908 998 892 1031 q 926 924 924 964 l 343 49 z "},"⁄":{"ha":949,"x_min":23,"x_max":926,"o":"m 868 929 q 847 986 865 962 q 803 1023 829 1010 q 747 1036 777 1036 q 689 1019 718 1036 l 94 123 q 133 81 110 99 q 184 57 156 64 q 241 54 212 50 q 298 77 270 58 l 868 929 m 343 38 q 277 5 309 15 q 218 -5 245 -5 q 112 30 164 -5 q 23 126 60 65 l 646 1061 q 750 1095 701 1095 q 813 1082 783 1095 q 868 1044 844 1069 q 908 987 892 1020 q 926 913 924 954 l 343 38 z "},"∕":{"ha":949,"x_min":23,"x_max":926,"o":"m 868 929 q 847 986 865 962 q 803 1023 829 1010 q 747 1036 777 1036 q 689 1019 718 1036 l 94 123 q 133 81 110 99 q 184 57 156 64 q 241 54 212 50 q 298 77 270 58 l 868 929 m 343 38 q 277 5 309 15 q 218 -5 245 -5 q 112 30 164 -5 q 23 126 60 65 l 646 1061 q 750 1095 701 1095 q 813 1082 783 1095 q 868 1044 844 1069 q 908 987 892 1020 q 926 913 924 954 l 343 38 z "},"\\":{"ha":949,"x_min":22,"x_max":926,"o":"m 22 894 q 41 968 24 935 q 81 1025 57 1001 q 136 1063 106 1050 q 199 1076 167 1076 q 250 1067 224 1076 q 304 1042 275 1058 l 926 107 q 838 11 890 46 q 731 -24 785 -24 q 671 -14 703 -24 q 606 19 640 -4 l 22 894 m 651 58 q 709 35 680 39 q 766 38 738 31 q 817 62 793 45 q 856 104 840 80 l 260 1000 q 201 1017 232 1017 q 145 1004 171 1017 q 102 967 119 991 q 81 910 84 943 l 651 58 z "},"@":{"ha":1424,"x_min":79,"x_max":1344,"o":"m 711 388 q 644 372 671 362 q 617 419 617 382 q 627 471 617 449 q 652 507 637 494 q 682 524 666 519 q 708 525 697 529 l 711 388 m 901 92 q 779 67 844 71 q 653 78 715 64 q 536 124 591 92 q 442 206 481 156 q 385 323 403 256 q 377 476 366 391 q 444 650 391 576 q 566 766 496 723 q 714 824 636 810 q 856 822 792 838 q 896 811 865 819 q 960 777 926 803 q 1022 702 994 751 q 1055 567 1050 652 q 1038 460 1059 511 q 985 374 1016 408 q 922 332 955 340 q 869 352 888 323 q 850 455 849 381 q 888 661 850 529 q 859 694 886 680 q 798 715 831 708 q 736 720 765 722 q 701 707 707 719 l 701 680 q 613 674 658 692 q 532 618 568 656 q 473 526 496 581 q 449 411 449 472 q 469 315 449 363 q 525 235 490 266 q 608 202 560 205 q 711 245 656 199 q 768 162 722 194 q 879 122 815 130 q 1013 134 943 114 q 1144 206 1084 155 q 1244 345 1204 258 q 1286 560 1284 433 q 1251 720 1279 646 q 1176 852 1223 795 q 1064 948 1128 910 q 922 1000 1000 986 q 753 1010 840 1015 q 586 982 667 1005 q 431 916 505 959 q 297 812 357 873 q 197 669 237 750 q 141 486 156 587 q 153 300 126 391 q 236 132 180 209 q 370 -7 292 54 q 536 -106 448 -69 q 718 -151 625 -142 q 895 -130 810 -159 q 945 -77 930 -110 q 959 -9 960 -43 q 942 54 958 26 q 901 92 926 83 m 1344 564 q 1312 361 1343 448 q 1233 214 1282 274 q 1122 118 1184 153 q 998 71 1061 83 q 1016 -14 1016 31 q 994 -106 1016 -61 q 920 -182 971 -152 q 755 -210 836 -210 q 594 -187 675 -210 q 437 -121 513 -164 q 296 -20 362 -79 q 182 108 231 38 q 106 258 134 178 q 79 422 79 338 q 80 456 79 438 q 84 495 81 475 l 84 494 q 174 747 106 639 q 339 927 241 856 q 555 1034 437 998 q 793 1069 673 1069 q 930 1057 861 1069 q 1092 998 1019 1042 q 1219 890 1165 955 q 1305 743 1274 826 q 1344 564 1337 659 m 845 764 q 821 769 833 768 q 799 772 810 770 q 850 755 825 766 q 896 730 875 745 q 931 696 917 715 q 948 656 945 678 q 918 526 926 579 q 909 438 909 473 q 909 400 909 411 q 907 389 909 389 q 939 404 922 389 q 968 444 955 419 q 990 499 982 468 q 997 563 998 530 q 972 665 993 627 q 928 726 952 704 q 880 755 903 747 q 844 765 856 762 q 845 764 844 765 m 631 145 q 673 134 652 138 q 716 126 694 129 q 686 161 697 142 q 659 151 671 155 q 631 145 646 146 z "},"ˆ":{"ha":597,"x_min":33,"x_max":566,"o":"m 403 1207 q 370 1233 393 1222 q 319 1246 346 1244 q 265 1239 292 1248 q 224 1207 239 1230 l 95 1020 q 123 966 103 989 q 169 930 144 943 q 218 919 194 918 q 259 935 243 920 l 316 1029 l 363 944 q 407 917 387 921 q 446 921 427 913 q 477 945 464 929 q 500 978 491 960 q 511 1010 509 996 q 509 1029 514 1024 l 403 1207 m 552 1067 q 562 1016 566 1051 q 538 945 557 981 q 489 884 519 910 q 420 857 458 857 q 369 869 396 857 q 315 911 342 882 l 313 911 q 309 905 311 909 q 305 898 308 901 q 260 869 283 878 q 217 860 237 860 q 163 871 191 860 q 109 905 134 883 q 62 960 83 928 q 33 1031 42 991 l 175 1240 q 235 1290 198 1275 q 309 1305 271 1305 q 393 1286 353 1305 q 453 1238 434 1267 l 552 1067 z "},"˜":{"ha":747,"x_min":38,"x_max":742,"o":"m 203 926 q 251 996 227 977 q 302 1012 275 1016 q 342 998 323 1013 q 383 966 361 983 q 433 935 406 948 q 494 926 460 921 q 534 949 507 933 q 589 989 560 964 q 642 1050 617 1015 q 678 1134 667 1086 q 665 1180 684 1156 q 621 1221 647 1204 q 567 1242 594 1238 q 526 1225 540 1245 q 519 1189 524 1208 q 505 1153 514 1169 q 480 1126 495 1137 q 441 1115 465 1115 q 403 1131 419 1115 q 370 1166 387 1147 q 332 1202 353 1185 q 281 1218 312 1218 q 231 1209 260 1226 q 175 1165 202 1192 q 127 1108 148 1138 q 102 1059 106 1078 q 97 1007 91 1040 q 119 947 103 974 q 158 911 136 921 q 203 926 180 901 m 247 887 q 170 849 213 849 q 113 876 140 849 q 67 941 85 903 q 43 1018 49 978 q 50 1084 38 1058 q 83 1142 60 1109 q 136 1204 106 1175 q 204 1254 167 1233 q 281 1276 241 1275 q 328 1270 308 1276 q 365 1251 349 1263 q 395 1225 381 1240 q 420 1196 408 1211 q 433 1180 427 1187 q 441 1173 439 1173 q 451 1181 446 1173 q 460 1200 456 1188 q 466 1224 464 1211 q 471 1249 468 1237 q 513 1289 490 1276 q 563 1301 537 1301 q 625 1283 591 1301 q 684 1238 658 1265 q 726 1180 711 1211 q 735 1120 742 1149 l 735 1122 q 692 1021 722 1065 q 629 947 662 978 q 564 899 595 917 q 514 872 532 880 q 454 870 480 867 q 406 883 427 873 q 368 905 385 892 q 335 930 351 918 l 336 930 q 315 946 324 939 q 302 954 305 954 q 256 902 283 958 l 247 887 z "},"’":{"ha":491,"x_min":33,"x_max":461,"o":"m 146 635 q 244 621 197 610 q 328 665 292 631 q 383 751 363 700 q 396 859 403 802 q 360 942 385 907 q 303 996 335 977 q 236 1017 271 1015 q 170 1002 201 1019 q 105 932 125 977 q 92 847 85 887 q 133 783 99 807 q 229 773 167 758 q 226 720 236 745 q 200 678 216 696 q 168 649 184 661 q 146 635 152 637 m 64 635 q 77 646 65 636 q 104 669 88 656 q 134 694 119 682 q 153 711 148 707 q 62 767 91 723 q 33 868 33 811 q 60 971 33 920 q 142 1054 87 1023 l 141 1054 q 229 1076 183 1076 q 300 1061 264 1076 q 366 1020 335 1047 q 420 954 396 993 q 454 867 444 916 q 445 752 461 807 q 395 654 429 697 q 315 585 361 610 q 216 559 269 559 q 137 575 175 559 q 64 635 99 591 z "},"„":{"ha":944,"x_min":33,"x_max":916,"o":"m 514 9 q 529 26 515 11 q 558 62 543 42 q 589 99 574 81 q 608 121 604 117 q 517 177 547 133 q 487 278 487 221 q 515 381 487 330 q 597 464 543 433 q 684 486 636 486 q 755 471 719 486 q 821 430 791 457 q 875 364 852 403 q 909 277 898 326 q 899 162 916 217 q 849 64 883 107 q 769 -5 815 20 q 671 -31 723 -31 q 646 -29 659 -31 q 616 -23 633 -27 q 574 -11 598 -19 q 514 9 549 -3 m 73 -43 q 85 -28 75 -42 q 110 4 96 -14 q 136 38 123 22 q 153 58 148 54 q 62 115 92 71 q 33 216 33 159 q 60 319 33 267 q 142 401 88 370 l 141 401 q 229 423 183 423 q 300 409 264 423 q 366 368 335 395 q 420 302 396 340 q 454 214 444 263 q 445 100 461 155 q 395 2 429 45 q 315 -66 361 -41 q 216 -92 269 -92 q 163 -83 193 -92 q 73 -43 133 -75 m 146 -18 q 244 -32 197 -42 q 328 13 292 -22 q 384 98 365 47 q 396 206 403 149 q 360 290 385 255 q 303 343 335 324 q 236 364 271 362 q 171 350 201 366 q 106 279 126 324 q 92 195 85 235 q 133 130 99 155 q 229 121 167 106 q 226 68 236 92 q 200 26 216 43 q 168 -3 184 8 q 146 -18 152 -15 m 602 45 q 699 31 651 20 q 783 75 747 41 q 838 161 819 110 q 850 269 857 212 q 814 352 840 317 q 758 406 789 387 q 690 427 726 425 q 625 412 655 429 q 561 342 581 387 q 548 257 541 297 q 589 193 555 217 q 684 183 623 168 q 682 130 692 155 q 655 88 671 106 q 623 59 639 71 q 602 45 606 47 z "},"‚":{"ha":491,"x_min":33,"x_max":461,"o":"m 146 19 q 244 5 197 -5 q 328 49 292 15 q 384 134 365 83 q 396 241 403 184 q 360 325 385 290 q 303 379 335 359 q 236 401 271 399 q 171 385 201 403 q 106 315 126 359 q 92 230 85 270 q 133 165 99 190 q 229 156 167 141 q 226 104 236 127 q 200 62 216 80 q 168 33 184 43 q 146 19 152 22 m 68 22 q 81 32 69 22 q 106 54 92 42 q 134 78 121 66 q 153 95 148 90 q 62 150 91 106 q 33 251 33 194 q 60 355 33 302 q 142 437 88 407 l 141 437 q 229 458 183 458 q 300 444 264 458 q 366 404 335 430 q 420 338 396 377 q 454 250 444 298 q 445 135 461 190 q 395 37 429 80 q 315 -31 361 -5 q 216 -57 269 -57 q 121 -34 171 -57 l 68 22 z "},"£":{"ha":883,"x_min":0,"x_max":854,"o":"m 199 496 l 159 43 q 355 78 274 69 q 496 83 435 87 q 606 67 556 80 q 708 37 655 54 q 764 57 745 31 q 791 118 784 83 q 794 186 799 153 q 776 225 789 218 q 588 292 688 269 q 377 289 488 315 l 400 496 l 576 500 q 610 543 598 513 q 625 605 623 572 q 618 665 627 637 q 587 699 609 692 l 406 699 q 428 821 404 776 q 483 886 452 867 q 546 903 514 905 q 594 883 578 901 q 608 848 604 861 q 612 826 612 834 q 612 813 613 818 q 613 804 612 808 q 654 770 624 776 q 716 772 685 764 q 772 799 747 781 q 795 834 796 817 q 717 1027 785 956 q 545 1097 648 1097 q 419 1074 476 1097 q 319 1002 362 1051 q 247 876 277 954 q 203 689 217 799 l 100 686 q 64 646 72 677 q 60 581 56 614 q 77 522 64 548 q 107 496 91 496 l 199 496 m 107 438 q 67 453 87 438 q 33 492 47 468 q 9 545 18 515 q 0 605 0 575 q 20 688 0 650 q 90 745 41 727 l 152 746 q 293 1055 193 954 q 545 1156 393 1156 q 661 1133 608 1156 q 754 1067 713 1109 q 821 967 795 1025 q 853 840 846 909 q 837 793 853 817 q 795 751 821 770 q 739 720 769 732 q 678 708 708 708 l 659 708 q 684 617 684 669 q 660 517 684 568 q 593 442 636 467 l 453 438 q 450 408 452 423 q 444 359 448 393 q 465 361 456 361 q 487 361 475 361 q 652 336 574 361 q 803 277 730 312 q 842 231 829 262 q 854 160 854 199 q 845 93 854 127 q 815 31 836 58 q 763 -10 795 4 q 686 -18 731 -24 q 578 14 629 1 q 460 26 528 26 q 320 12 408 26 q 94 -31 232 -1 l 137 438 l 107 438 m 543 845 q 499 827 521 845 q 468 757 477 808 l 571 757 q 565 770 568 764 q 559 783 562 776 l 560 780 q 557 795 560 783 q 555 814 555 807 q 555 824 555 818 q 548 845 555 830 l 543 845 z "},"€":{"ha":1184,"x_min":47,"x_max":1139,"o":"m 206 556 q 204 532 205 544 q 203 509 203 521 l 161 509 q 119 475 133 495 q 106 433 106 456 q 121 388 107 411 q 161 345 134 365 l 232 345 q 307 212 258 270 q 418 115 355 153 q 553 58 480 76 q 704 50 627 41 q 859 94 781 58 q 1006 198 936 130 q 1027 245 1024 220 q 1021 296 1029 271 q 996 343 1012 321 q 960 379 979 365 q 923 396 941 393 q 892 385 905 399 q 779 301 836 327 q 669 274 722 275 q 572 292 617 273 q 494 345 528 312 l 662 345 q 707 390 699 363 q 709 441 715 416 q 687 486 703 467 q 662 509 671 505 l 419 509 q 420 532 419 521 q 422 556 420 544 l 662 556 q 707 601 699 574 q 709 654 715 628 q 687 700 703 680 q 662 724 671 720 l 529 724 q 614 776 567 757 q 709 794 661 795 q 806 770 758 793 q 895 694 854 747 q 949 680 917 677 q 1011 699 982 682 q 1060 743 1040 716 q 1077 800 1080 770 q 986 945 1050 894 q 840 1013 922 997 q 665 1013 757 1028 q 491 957 574 997 q 342 857 408 917 q 245 724 275 796 l 161 724 q 119 689 133 709 q 106 646 106 669 q 121 600 107 624 q 161 556 134 576 l 206 556 m 47 435 q 96 534 47 491 q 47 648 47 587 q 72 722 47 686 q 148 783 96 757 l 210 783 q 306 902 245 848 q 439 996 366 956 q 595 1057 513 1035 q 755 1080 677 1080 q 878 1064 819 1080 q 987 1016 937 1048 q 1076 932 1038 983 q 1135 810 1114 882 q 1122 739 1139 773 q 1077 679 1105 705 q 1013 637 1048 652 q 943 621 977 621 q 897 629 920 621 q 856 651 875 636 q 793 709 825 690 q 728 734 761 728 q 758 684 746 711 q 770 629 770 656 q 760 576 770 602 q 723 528 749 551 q 756 476 742 505 q 770 416 770 448 q 754 354 770 384 q 852 426 803 377 l 849 425 q 915 448 875 453 q 993 416 955 442 q 1058 347 1031 389 q 1085 256 1085 304 q 1077 205 1085 229 q 1050 157 1069 180 q 856 28 956 68 q 656 -12 755 -12 q 512 9 582 -12 q 381 68 442 30 q 272 163 320 107 q 193 286 224 218 l 141 286 q 71 360 95 321 q 47 435 47 399 z "},"˚":{"ha":537,"x_min":37,"x_max":499,"o":"m 222 1084 q 235 1118 222 1107 q 261 1128 247 1128 q 288 1117 275 1128 q 300 1084 300 1105 q 288 1047 300 1059 q 261 1034 275 1035 q 235 1046 247 1034 q 222 1084 222 1058 m 95 1080 q 125 980 95 1016 q 201 932 156 944 q 295 929 245 920 q 381 968 345 939 q 434 1044 418 997 q 429 1152 450 1090 q 382 1222 414 1196 q 314 1257 351 1248 q 238 1259 277 1267 q 168 1229 199 1252 q 115 1168 136 1206 q 95 1080 95 1131 m 37 1080 q 57 1183 37 1138 q 111 1258 77 1227 q 187 1305 145 1289 q 274 1321 229 1321 q 399 1284 340 1321 q 484 1172 457 1248 q 495 1128 491 1149 q 499 1088 499 1108 q 477 995 499 1036 q 420 925 456 954 q 340 881 384 897 q 251 865 296 865 q 170 878 209 865 q 102 918 132 891 q 54 984 72 944 q 37 1080 37 1024 z "},"˝":{"ha":812,"x_min":30,"x_max":777,"o":"m 465 1027 q 463 986 453 1010 q 494 943 472 962 q 543 920 515 925 q 594 937 571 914 l 718 1133 q 701 1187 718 1165 q 660 1220 684 1210 q 611 1227 636 1230 q 570 1204 586 1223 l 465 1027 m 96 1047 q 94 1006 84 1031 q 125 964 103 982 q 174 940 146 945 q 224 958 201 935 l 349 1152 q 332 1206 349 1184 q 291 1239 315 1229 q 242 1246 267 1249 q 201 1225 217 1244 l 96 1047 m 182 882 q 115 903 146 882 q 62 957 83 925 q 35 1023 41 989 q 49 1081 30 1057 l 151 1255 q 200 1293 172 1280 q 255 1306 228 1306 q 310 1295 282 1306 q 359 1261 338 1283 q 394 1206 381 1238 q 407 1135 407 1175 l 271 922 q 227 890 248 899 q 182 882 205 882 m 418 1061 l 519 1236 q 569 1274 541 1261 q 624 1286 597 1286 q 679 1274 651 1286 q 728 1240 707 1263 q 764 1186 750 1218 q 776 1115 777 1154 l 640 902 q 595 870 617 879 q 552 861 574 861 q 484 884 517 861 q 431 937 452 906 q 404 1003 410 968 q 418 1062 399 1038 l 418 1061 z "},"˙":{"ha":411,"x_min":38,"x_max":373,"o":"m 206 906 q 265 924 241 907 q 302 965 289 941 q 315 1017 315 989 q 304 1069 316 1044 q 269 1109 293 1093 q 206 1126 244 1124 q 123 1086 151 1122 q 97 1012 96 1051 q 125 939 98 972 q 206 906 152 906 m 205 848 q 133 862 164 848 q 81 899 102 876 q 49 952 60 922 q 38 1013 38 982 q 48 1072 38 1043 q 79 1125 58 1101 q 130 1165 99 1149 q 202 1184 161 1181 q 278 1170 245 1184 q 332 1133 311 1156 q 363 1080 353 1109 q 373 1021 373 1051 q 362 960 373 990 q 331 905 351 929 q 280 865 311 880 q 209 848 250 849 l 205 848 z "},"ˇ":{"ha":568,"x_min":9,"x_max":551,"o":"m 486 1120 q 488 1141 491 1126 q 477 1173 486 1156 q 454 1206 468 1191 q 422 1230 441 1222 q 383 1234 404 1238 q 340 1206 362 1229 l 293 1120 l 236 1217 q 195 1232 220 1232 q 146 1220 171 1232 q 100 1185 121 1208 q 72 1130 80 1162 l 201 944 q 242 912 216 921 q 296 905 269 903 q 347 918 323 907 q 380 944 370 928 l 486 1120 m 430 911 q 370 865 411 884 q 286 846 330 846 q 212 861 248 846 q 152 910 175 875 q 81 1015 121 958 q 9 1120 41 1073 q 39 1192 19 1160 q 85 1245 60 1223 q 140 1278 111 1267 q 194 1290 168 1290 q 237 1281 214 1290 q 283 1252 260 1272 l 292 1238 q 346 1282 319 1270 q 397 1294 373 1294 q 466 1272 435 1294 q 516 1221 496 1251 q 543 1162 536 1191 q 543 1118 551 1133 l 536 1092 l 430 911 z "},"˘":{"ha":597,"x_min":4,"x_max":590,"o":"m 64 1105 q 111 1016 76 1053 q 192 960 145 979 q 292 939 239 940 q 392 955 345 937 q 477 1010 439 972 q 530 1108 514 1048 q 522 1152 532 1133 q 496 1183 513 1172 q 456 1197 479 1195 q 410 1190 434 1199 q 357 1120 391 1141 q 290 1103 324 1100 q 227 1126 255 1105 q 191 1180 198 1147 q 140 1194 164 1199 q 97 1174 115 1190 q 69 1138 79 1158 q 64 1105 60 1118 m 9 1086 q 12 1131 4 1103 q 39 1187 20 1160 q 86 1234 58 1214 q 148 1253 114 1253 q 244 1214 184 1253 q 263 1175 248 1190 q 297 1161 278 1161 q 331 1179 313 1161 q 363 1236 349 1196 q 411 1251 389 1245 q 448 1256 433 1256 q 505 1244 477 1256 q 551 1213 532 1233 q 580 1164 570 1192 q 589 1101 590 1135 q 544 1002 574 1044 q 475 933 514 960 q 391 892 437 906 q 298 879 345 879 q 203 893 250 879 q 116 935 156 907 q 47 1001 76 962 q 7 1092 19 1040 l 9 1086 z "},"ı":{"ha":411,"x_min":23,"x_max":387,"o":"m 87 99 q 139 65 103 77 q 214 53 175 53 q 285 66 252 53 q 328 110 317 80 l 324 712 q 279 753 311 741 q 212 767 248 766 q 140 758 175 768 q 83 730 104 747 l 87 99 m 23 755 q 113 806 62 788 q 208 825 163 825 q 308 802 259 825 q 382 727 357 779 l 387 99 q 317 20 366 43 q 213 -4 267 -4 q 111 18 161 -4 q 28 80 60 39 l 23 755 z "},"ƒ":{"ha":670,"x_min":-110,"x_max":780,"o":"m 250 71 q 230 -20 244 12 q 195 -66 216 -53 q 150 -77 174 -79 q 104 -67 126 -76 q 62 -45 81 -58 q 31 -24 42 -33 q -21 -56 0 -33 q -48 -109 -42 -79 q -43 -172 -54 -138 q 0 -235 -33 -206 q 138 -296 73 -285 q 257 -290 203 -307 q 352 -233 311 -273 q 421 -140 393 -193 q 462 -26 449 -87 q 471 95 475 35 l 472 416 l 579 420 q 610 461 601 433 q 618 520 620 490 q 604 577 616 551 q 570 610 591 604 l 456 612 q 456 727 450 680 q 473 800 461 774 q 500 830 484 826 q 532 818 515 834 q 553 753 552 774 q 555 724 555 732 q 582 707 556 709 q 639 711 608 705 q 696 728 670 718 q 722 747 722 738 q 657 946 722 883 q 490 1009 593 1009 q 286 911 350 1009 q 236 610 221 812 l 119 606 q 83 566 91 597 q 79 501 75 534 q 96 442 83 468 q 126 416 110 416 l 233 416 q 246 274 243 327 q 250 187 250 221 q 250 129 251 153 q 250 71 250 104 m 191 75 q 192 98 191 87 q 193 119 193 109 l 193 160 q 191 233 193 189 q 180 358 189 278 l 126 358 q 86 373 106 358 q 52 412 66 388 q 28 465 37 435 q 19 525 19 495 q 40 608 19 570 q 111 665 61 647 l 175 667 l 175 684 q 255 972 175 876 q 490 1067 335 1067 q 608 1048 555 1067 q 699 990 661 1029 q 759 890 738 951 q 780 747 780 830 q 764 717 780 732 q 723 687 747 701 q 669 663 699 673 q 613 650 640 652 q 661 587 644 627 q 677 509 677 548 q 656 427 677 467 q 595 362 636 387 l 530 361 q 530 231 530 294 q 529 99 529 167 q 511 -61 533 20 q 445 -208 490 -142 q 335 -316 400 -274 q 187 -358 270 -358 q 80 -339 137 -358 q -41 -277 23 -320 q -94 -207 -77 -245 q -110 -132 -110 -168 q -68 -27 -110 -75 q 43 38 -26 20 q 67 22 53 31 q 96 3 81 12 q 126 -13 111 -7 q 152 -19 141 -19 q 175 1 164 -19 q 191 75 186 20 z "},"…":{"ha":1370,"x_min":85,"x_max":1325,"o":"m 1158 50 q 1217 68 1192 52 q 1253 109 1241 85 q 1266 161 1265 133 q 1256 213 1267 189 q 1221 253 1245 237 q 1158 270 1196 269 q 1096 250 1120 267 q 1060 208 1072 232 q 1048 156 1048 183 q 1061 105 1048 129 q 1098 66 1074 81 q 1158 50 1122 50 m 705 50 q 764 68 741 52 q 801 109 788 85 q 814 161 814 133 q 804 213 815 189 q 768 253 792 237 q 705 270 743 269 q 623 231 650 266 q 596 156 595 195 q 624 83 597 117 q 705 50 651 50 m 254 50 q 313 68 289 52 q 349 109 336 85 q 363 161 362 133 q 352 213 363 189 q 316 253 340 237 q 254 270 292 269 q 171 231 198 266 q 144 156 144 195 q 173 83 145 117 q 254 50 201 50 m 254 -8 q 181 6 213 -8 q 128 43 149 20 q 96 96 107 66 q 85 157 85 126 q 96 216 85 187 q 126 269 106 245 q 178 309 146 293 q 251 328 209 326 q 326 314 294 328 q 380 277 358 300 q 412 224 401 254 q 422 165 422 195 q 411 104 422 134 q 379 49 400 73 q 328 9 358 24 q 256 -8 297 -7 l 254 -8 m 704 -8 q 632 6 663 -8 q 580 43 601 20 q 548 96 559 66 q 537 157 537 126 q 547 216 537 187 q 578 269 557 245 q 629 309 598 293 q 701 328 661 326 q 777 314 745 328 q 831 277 810 300 q 862 224 852 254 q 872 165 872 195 q 861 104 872 134 q 830 49 850 73 q 779 9 810 24 q 708 -8 749 -7 l 704 -8 m 1157 -8 q 1085 6 1116 -8 q 1033 43 1054 20 q 1001 96 1012 66 q 990 157 990 126 q 1000 216 990 187 q 1031 269 1010 245 q 1082 309 1051 293 q 1154 328 1112 326 q 1230 314 1198 328 q 1283 277 1261 300 q 1315 224 1305 254 q 1325 165 1325 195 q 1314 104 1325 134 q 1283 49 1303 73 q 1232 9 1263 24 q 1160 -8 1200 -7 l 1157 -8 z "},"¸":{"ha":537,"x_min":24,"x_max":518,"o":"m 110 -334 q 373 -313 285 -365 q 452 -137 461 -260 q 431 -70 449 -100 q 385 -18 412 -39 q 325 16 358 4 q 260 28 292 28 l 256 80 q 223 117 245 104 q 175 129 201 129 q 125 119 149 129 q 88 88 102 109 l 92 -5 q 100 -60 88 -42 q 134 -85 113 -79 q 180 -93 155 -92 q 228 -96 205 -94 q 268 -108 251 -99 q 288 -140 285 -117 q 277 -173 290 -161 q 243 -189 263 -184 q 199 -193 222 -194 q 156 -190 175 -193 q 127 -184 137 -187 q 125 -178 118 -180 q 102 -205 113 -190 q 85 -241 91 -221 q 85 -284 80 -260 q 110 -334 90 -308 m 62 -370 q 33 -315 42 -342 q 24 -263 24 -288 q 43 -189 24 -220 q 84 -137 62 -157 q 44 -98 56 -136 q 34 0 33 -61 q 31 53 33 23 q 28 104 30 83 q 95 166 56 145 q 174 187 134 187 q 256 164 217 187 q 315 94 294 141 l 315 80 q 382 52 349 71 q 442 5 415 33 q 488 -58 469 -23 q 510 -132 506 -92 q 446 -332 518 -260 q 225 -403 373 -403 q 167 -400 198 -403 q 100 -391 136 -397 l 62 -370 z "},"¡":{"ha":369,"x_min":9,"x_max":362,"o":"m 69 675 q 121 699 92 690 q 180 705 151 707 q 240 694 210 704 q 294 663 270 684 l 304 34 q 258 0 293 11 q 185 -10 224 -11 q 113 3 146 -9 q 72 37 80 15 l 69 675 m 179 1086 q 240 1067 214 1085 q 279 1024 266 1050 q 294 968 293 998 q 283 914 296 939 q 246 872 271 888 q 182 856 221 856 q 119 875 144 857 q 82 918 94 892 q 72 973 71 943 q 85 1027 73 1002 q 121 1069 98 1053 q 179 1086 145 1086 m 179 1145 q 109 1129 140 1145 q 56 1089 77 1114 q 24 1033 35 1065 q 14 968 14 1001 q 24 907 14 937 q 55 852 34 876 q 107 814 76 829 q 180 798 138 799 q 257 811 225 798 q 311 848 289 825 q 342 901 332 871 q 353 963 353 930 q 342 1027 353 996 q 309 1084 331 1058 q 256 1126 288 1109 q 182 1145 224 1142 l 179 1145 m 14 29 q 81 -44 30 -19 q 190 -69 133 -69 q 291 -47 243 -69 q 362 22 339 -24 l 353 692 q 261 745 307 728 q 174 762 216 762 q 96 749 138 762 q 9 705 53 735 l 14 29 z "},"¿":{"ha":749,"x_min":27,"x_max":731,"o":"m 467 1086 q 408 1068 433 1085 q 372 1027 384 1051 q 358 976 359 1004 q 368 924 357 948 q 404 884 380 899 q 467 867 429 868 q 529 887 505 869 q 565 929 553 905 q 576 981 576 954 q 564 1032 576 1008 q 527 1071 551 1055 q 467 1086 503 1086 m 566 680 q 514 705 544 696 q 454 716 484 715 q 395 709 423 718 q 346 684 366 701 l 347 598 q 253 568 300 589 q 170 513 206 547 q 110 433 133 480 q 87 324 87 387 q 124 167 87 233 q 218 62 161 100 q 345 14 275 23 q 477 28 414 4 q 591 109 541 52 q 659 260 640 166 q 655 320 670 293 q 614 362 640 347 q 560 374 589 376 q 514 347 532 372 q 482 276 509 305 q 421 239 454 247 q 356 250 388 232 q 308 317 324 267 q 349 395 319 370 q 416 429 378 421 q 494 437 454 438 q 567 437 534 437 l 566 680 m 625 419 q 702 352 673 399 q 716 244 731 305 q 668 113 701 168 q 590 22 635 58 q 492 -30 545 -13 q 383 -47 438 -47 q 252 -23 316 -47 q 138 49 189 1 q 58 166 88 96 q 27 324 27 235 q 49 444 27 392 q 107 536 71 496 q 191 602 144 575 q 289 643 239 628 q 288 680 289 662 q 288 711 288 697 q 368 760 327 745 q 448 774 408 774 q 536 758 490 774 q 624 707 582 741 l 625 419 m 458 370 q 462 374 461 372 q 465 378 463 376 q 407 364 434 376 q 369 320 380 351 q 400 294 383 294 q 437 315 419 294 q 458 370 454 336 m 468 1145 q 540 1131 509 1145 q 592 1093 571 1116 q 624 1040 613 1070 q 635 979 635 1010 q 625 920 635 949 q 594 867 614 891 q 543 827 574 844 q 471 808 513 811 q 395 823 427 808 q 342 860 364 837 q 310 912 320 883 q 300 971 300 941 q 311 1033 300 1002 q 342 1088 321 1063 q 393 1128 362 1112 q 465 1145 425 1143 l 468 1145 z "},"˛":{"ha":332,"x_min":-8,"x_max":343,"o":"m 221 -96 q 170 -57 190 -88 q 145 8 151 -26 q 149 68 140 42 q 186 92 159 94 l 119 123 q 59 16 76 77 q 56 -99 42 -46 q 114 -185 69 -152 q 239 -206 159 -218 q 276 -170 267 -190 q 280 -132 285 -149 q 259 -104 275 -115 q 221 -96 243 -94 m 237 114 q 198 39 203 66 q 203 -4 193 12 q 236 -31 214 -20 q 280 -54 258 -41 q 320 -88 302 -68 q 340 -146 338 -109 q 323 -207 343 -175 q 256 -262 302 -239 q 224 -265 237 -264 q 201 -266 212 -266 q 107 -248 146 -266 q 42 -201 68 -231 q 4 -132 16 -171 q -8 -49 -8 -92 q 20 69 -8 5 q 106 194 49 133 l 237 114 z "},"¯":{"ha":633,"x_min":39,"x_max":559,"o":"m 458 924 q 488 960 476 929 q 500 1025 499 990 q 490 1090 500 1059 q 456 1128 480 1120 l 153 1123 q 126 1108 138 1123 q 106 1072 114 1093 q 98 1024 99 1050 q 102 976 96 998 q 121 938 107 954 q 157 921 134 922 l 458 924 m 156 863 q 102 877 123 864 q 66 911 80 890 q 45 958 52 932 q 39 1012 39 983 q 47 1072 39 1042 q 71 1127 56 1103 q 108 1166 87 1152 q 153 1181 129 1181 q 309 1184 229 1183 q 464 1187 388 1185 q 536 1128 514 1172 q 559 1034 559 1084 q 552 980 559 1006 q 533 930 545 954 q 504 889 521 906 q 467 865 487 872 l 156 863 z "},"ˉ":{"ha":633,"x_min":39,"x_max":559,"o":"m 458 924 q 488 960 476 929 q 500 1025 499 990 q 490 1090 500 1059 q 456 1128 480 1120 l 153 1123 q 126 1108 138 1123 q 106 1072 114 1093 q 98 1024 99 1050 q 102 976 96 998 q 121 938 107 954 q 157 921 134 922 l 458 924 m 156 863 q 102 877 123 864 q 66 911 80 890 q 45 958 52 932 q 39 1012 39 983 q 47 1072 39 1042 q 71 1127 56 1103 q 108 1166 87 1152 q 153 1181 129 1181 q 309 1184 229 1183 q 464 1187 388 1185 q 536 1128 514 1172 q 559 1034 559 1084 q 552 980 559 1006 q 533 930 545 954 q 504 889 521 906 q 467 865 487 872 l 156 863 z "},"−":{"ha":708,"x_min":94,"x_max":613,"o":"m 513 316 q 541 352 530 321 q 553 417 552 382 q 545 482 555 452 q 510 521 534 513 l 208 517 q 180 502 193 517 q 161 465 168 487 q 151 417 153 444 q 155 368 149 391 q 175 330 161 346 q 212 313 189 315 l 513 316 m 210 255 q 156 269 178 256 q 120 303 134 282 q 100 350 106 324 q 94 404 94 376 q 102 465 94 434 q 125 519 110 495 q 162 559 141 544 q 208 575 183 575 q 362 577 282 576 q 518 579 442 578 q 591 520 568 564 q 613 426 613 476 q 606 373 613 400 q 587 322 600 346 q 558 281 575 298 q 521 258 541 264 l 210 255 z "},"·":{"ha":346,"x_min":5,"x_max":340,"o":"m 174 486 q 233 504 209 487 q 269 545 256 521 q 283 596 282 568 q 272 648 283 624 q 236 688 260 673 q 174 705 212 704 q 91 666 118 701 q 64 591 64 631 q 92 519 65 552 q 174 486 119 486 m 172 427 q 100 441 132 427 q 48 479 69 456 q 16 532 27 502 q 5 593 5 562 q 16 652 5 623 q 46 705 26 681 q 98 745 66 728 q 171 764 129 761 q 246 749 214 764 q 299 712 278 735 q 330 660 320 689 q 340 601 340 631 q 330 539 340 570 q 298 484 319 509 q 248 444 278 460 q 176 427 217 429 l 172 427 z "},"∙":{"ha":346,"x_min":5,"x_max":340,"o":"m 174 486 q 233 504 209 487 q 269 545 256 521 q 283 596 282 568 q 272 648 283 624 q 236 688 260 673 q 174 705 212 704 q 91 666 118 701 q 64 591 64 631 q 92 519 65 552 q 174 486 119 486 m 172 427 q 100 441 132 427 q 48 479 69 456 q 16 532 27 502 q 5 593 5 562 q 16 652 5 623 q 46 705 26 681 q 98 745 66 728 q 171 764 129 761 q 246 749 214 764 q 299 712 278 735 q 330 660 320 689 q 340 601 340 631 q 330 539 340 570 q 298 484 319 509 q 248 444 278 460 q 176 427 217 429 l 172 427 z "},"•":{"ha":716,"x_min":110,"x_max":605,"o":"m 357 328 q 458 359 416 331 q 522 430 500 388 q 545 520 544 472 q 527 610 547 568 q 465 680 507 652 q 357 709 422 708 q 251 673 293 704 q 188 601 209 643 q 168 511 167 559 q 189 423 168 464 q 252 355 210 382 q 357 328 294 328 m 357 270 q 250 291 296 270 q 172 346 203 312 q 125 424 141 380 q 110 514 110 468 q 125 602 110 559 q 170 680 140 644 q 245 739 199 715 q 353 768 292 762 q 464 747 416 768 q 543 692 511 726 q 589 614 574 658 q 605 525 605 571 q 589 434 605 479 q 543 353 574 389 q 465 294 511 317 q 359 270 419 271 l 357 270 z "},"":{"ha":472,"x_min":66,"x_max":434,"o":"m 171 -392 q 249 -404 210 -412 q 317 -367 288 -395 q 363 -298 347 -339 q 373 -210 378 -256 q 342 -142 363 -171 q 296 -98 321 -114 q 241 -81 270 -83 q 189 -94 213 -80 q 136 -151 152 -114 q 126 -220 121 -187 q 159 -273 132 -252 q 236 -281 186 -293 q 233 -323 241 -304 q 212 -357 225 -343 q 186 -381 199 -372 q 171 -392 174 -391 m 87 -431 q 96 -416 87 -431 q 117 -384 106 -401 q 139 -351 129 -366 q 152 -335 149 -336 q 87 -283 109 -320 q 66 -202 66 -245 q 90 -115 66 -159 q 160 -43 113 -71 q 237 -22 195 -22 q 299 -34 269 -22 q 356 -69 330 -46 q 402 -125 382 -92 q 431 -201 422 -159 q 407 -337 434 -281 q 332 -424 380 -393 q 221 -457 285 -454 q 87 -431 157 -460 z "},"Á":{"ha":1013,"x_min":12,"x_max":998,"o":"m 438 648 q 468 758 452 715 q 502 809 484 802 q 536 781 519 817 q 568 654 553 745 l 438 648 m 431 454 l 579 450 l 631 85 q 699 65 665 75 q 769 54 734 56 q 843 62 804 53 q 926 99 882 72 l 665 989 q 629 1021 656 1006 q 563 1042 601 1035 q 482 1050 525 1050 q 401 1040 439 1050 q 332 1011 362 1031 q 288 960 301 991 l 76 111 q 94 93 75 103 q 142 75 113 83 q 210 62 172 66 q 282 60 247 58 q 348 74 317 62 q 395 109 378 85 l 431 454 m 445 73 q 364 16 415 31 q 256 0 313 0 q 166 12 210 0 q 87 41 122 23 q 33 81 53 60 q 15 123 12 103 l 228 975 q 271 1037 243 1012 q 333 1078 298 1062 q 407 1102 368 1095 q 486 1109 446 1109 q 562 1102 524 1109 q 633 1082 601 1095 q 688 1050 665 1069 q 723 1008 712 1031 l 998 72 q 873 12 926 28 q 779 -5 821 -5 q 680 8 732 -5 q 575 39 628 22 l 525 392 q 509 393 518 392 q 486 393 500 393 q 471 248 479 320 q 456 103 463 176 l 445 73 m 420 1293 q 418 1252 408 1276 q 449 1209 427 1227 q 498 1185 471 1191 q 549 1203 526 1180 l 673 1397 q 656 1452 673 1430 q 616 1485 639 1474 q 568 1492 593 1495 q 526 1470 543 1489 l 420 1293 m 374 1326 l 476 1500 q 524 1539 496 1526 q 579 1552 552 1552 q 634 1540 606 1552 q 684 1506 662 1529 q 719 1452 705 1484 q 731 1379 732 1420 l 595 1168 q 551 1136 572 1145 q 507 1127 529 1127 q 440 1149 472 1127 q 387 1203 408 1172 q 361 1269 366 1234 q 374 1328 355 1303 l 370 1321 l 374 1326 z "},"Ă":{"ha":1013,"x_min":12,"x_max":998,"o":"m 438 648 q 468 758 452 715 q 502 809 484 802 q 536 781 519 817 q 568 654 553 745 l 438 648 m 431 454 l 579 450 l 631 85 q 699 65 665 75 q 769 54 734 56 q 843 62 804 53 q 926 99 882 72 l 665 989 q 629 1021 656 1006 q 563 1042 601 1035 q 482 1050 525 1050 q 401 1040 439 1050 q 332 1011 362 1031 q 288 960 301 991 l 76 111 q 94 93 75 103 q 142 75 113 83 q 210 62 172 66 q 282 60 247 58 q 348 74 317 62 q 395 109 378 85 l 431 454 m 445 73 q 364 16 415 31 q 256 0 313 0 q 166 12 210 0 q 87 41 122 23 q 33 81 53 60 q 15 123 12 103 l 228 975 q 271 1037 243 1012 q 333 1078 298 1062 q 407 1102 368 1095 q 486 1109 446 1109 q 562 1102 524 1109 q 633 1082 601 1095 q 688 1050 665 1069 q 723 1008 712 1031 l 998 72 q 873 12 926 28 q 779 -5 821 -5 q 680 8 732 -5 q 575 39 628 22 l 525 392 q 509 393 518 392 q 486 393 500 393 q 471 248 479 320 q 456 103 463 176 l 445 73 m 305 1378 q 352 1289 317 1325 q 433 1232 387 1252 q 533 1211 480 1213 q 633 1227 586 1210 q 718 1283 681 1245 q 772 1381 755 1321 q 764 1425 773 1405 q 737 1456 754 1444 q 698 1470 720 1468 q 651 1462 675 1472 q 599 1393 632 1413 q 531 1375 566 1373 q 468 1399 496 1378 q 433 1453 439 1420 q 381 1467 406 1472 q 338 1447 357 1462 q 311 1411 320 1431 q 305 1378 301 1390 m 251 1359 q 254 1404 245 1375 q 281 1459 262 1432 q 328 1506 300 1487 q 389 1526 355 1526 q 486 1487 426 1526 q 505 1448 490 1462 q 538 1434 519 1434 q 572 1451 555 1434 q 605 1508 590 1469 q 652 1523 631 1518 q 689 1529 674 1529 q 746 1517 719 1529 q 792 1485 773 1506 q 821 1436 811 1465 q 830 1374 831 1408 q 785 1275 815 1317 q 717 1206 755 1233 q 632 1165 678 1179 q 540 1152 586 1152 q 444 1166 491 1152 q 357 1207 397 1180 q 289 1274 317 1234 q 248 1364 260 1313 l 251 1359 z "},"Â":{"ha":1013,"x_min":12,"x_max":998,"o":"m 438 648 q 468 758 452 715 q 502 809 484 802 q 536 781 519 817 q 568 654 553 745 l 438 648 m 431 454 l 579 450 l 631 85 q 699 65 665 75 q 769 54 734 56 q 843 62 804 53 q 926 99 882 72 l 665 989 q 629 1021 656 1006 q 563 1042 601 1035 q 482 1050 525 1050 q 401 1040 439 1050 q 332 1011 362 1031 q 288 960 301 991 l 76 111 q 94 93 75 103 q 142 75 113 83 q 210 62 172 66 q 282 60 247 58 q 348 74 317 62 q 395 109 378 85 l 431 454 m 445 73 q 364 16 415 31 q 256 0 313 0 q 166 12 210 0 q 87 41 122 23 q 33 81 53 60 q 15 123 12 103 l 228 975 q 271 1037 243 1012 q 333 1078 298 1062 q 407 1102 368 1095 q 486 1109 446 1109 q 562 1102 524 1109 q 633 1082 601 1095 q 688 1050 665 1069 q 723 1008 712 1031 l 998 72 q 873 12 926 28 q 779 -5 821 -5 q 680 8 732 -5 q 575 39 628 22 l 525 392 q 509 393 518 392 q 486 393 500 393 q 471 248 479 320 q 456 103 463 176 l 445 73 m 582 1480 q 549 1506 572 1495 q 498 1518 525 1516 q 444 1512 471 1520 q 403 1480 418 1503 l 274 1293 q 302 1238 282 1261 q 348 1203 323 1215 q 397 1192 373 1191 q 438 1207 422 1192 l 495 1302 l 543 1217 q 586 1190 566 1194 q 625 1194 606 1185 q 656 1217 643 1202 q 679 1251 670 1233 q 690 1282 688 1268 q 688 1302 693 1297 l 582 1480 m 731 1340 q 741 1289 745 1324 q 718 1218 736 1253 q 668 1156 699 1183 q 600 1130 637 1130 q 548 1142 575 1130 q 494 1184 521 1154 l 492 1184 q 488 1177 490 1181 q 484 1171 487 1173 q 439 1141 463 1150 q 396 1133 416 1133 q 342 1144 370 1133 q 288 1178 313 1156 q 241 1232 262 1200 q 212 1303 221 1264 l 354 1512 q 414 1563 377 1548 q 488 1577 450 1577 q 572 1558 532 1577 q 632 1511 613 1539 l 731 1340 z "},"À":{"ha":1013,"x_min":12,"x_max":998,"o":"m 438 648 q 468 758 452 715 q 502 809 484 802 q 536 781 519 817 q 568 654 553 745 l 438 648 m 431 454 l 579 450 l 631 85 q 699 65 665 75 q 769 54 734 56 q 843 62 804 53 q 926 99 882 72 l 665 989 q 629 1021 656 1006 q 563 1042 601 1035 q 482 1050 525 1050 q 401 1040 439 1050 q 332 1011 362 1031 q 288 960 301 991 l 76 111 q 94 93 75 103 q 142 75 113 83 q 210 62 172 66 q 282 60 247 58 q 348 74 317 62 q 395 109 378 85 l 431 454 m 445 73 q 364 16 415 31 q 256 0 313 0 q 166 12 210 0 q 87 41 122 23 q 33 81 53 60 q 15 123 12 103 l 228 975 q 271 1037 243 1012 q 333 1078 298 1062 q 407 1102 368 1095 q 486 1109 446 1109 q 562 1102 524 1109 q 633 1082 601 1095 q 688 1050 665 1069 q 723 1008 712 1031 l 998 72 q 873 12 926 28 q 779 -5 821 -5 q 680 8 732 -5 q 575 39 628 22 l 525 392 q 509 393 518 392 q 486 393 500 393 q 471 248 479 320 q 456 103 463 176 l 445 73 m 646 1314 q 652 1255 659 1289 q 625 1192 646 1222 q 573 1140 604 1161 q 509 1119 543 1119 q 464 1128 486 1119 q 419 1160 442 1137 l 283 1371 q 296 1444 283 1412 q 331 1498 309 1476 q 380 1532 353 1520 q 435 1544 408 1544 q 490 1531 463 1544 q 537 1496 517 1519 l 646 1314 m 490 1462 q 448 1484 473 1481 q 399 1476 423 1487 q 359 1444 376 1466 q 342 1389 342 1421 l 467 1195 q 517 1177 490 1172 q 566 1201 544 1183 q 597 1244 587 1219 q 594 1284 606 1268 l 490 1462 z "},"Ä":{"ha":1013,"x_min":12,"x_max":998,"o":"m 438 648 q 468 758 452 715 q 502 809 484 802 q 536 781 519 817 q 568 654 553 745 l 438 648 m 431 454 l 579 450 l 631 85 q 699 65 665 75 q 769 54 734 56 q 843 62 804 53 q 926 99 882 72 l 665 989 q 629 1021 656 1006 q 563 1042 601 1035 q 482 1050 525 1050 q 401 1040 439 1050 q 332 1011 362 1031 q 288 960 301 991 l 76 111 q 94 93 75 103 q 142 75 113 83 q 210 62 172 66 q 282 60 247 58 q 348 74 317 62 q 395 109 378 85 l 431 454 m 445 73 q 364 16 415 31 q 256 0 313 0 q 166 12 210 0 q 87 41 122 23 q 33 81 53 60 q 15 123 12 103 l 228 975 q 271 1037 243 1012 q 333 1078 298 1062 q 407 1102 368 1095 q 486 1109 446 1109 q 562 1102 524 1109 q 633 1082 601 1095 q 688 1050 665 1069 q 723 1008 712 1031 l 998 72 q 873 12 926 28 q 779 -5 821 -5 q 680 8 732 -5 q 575 39 628 22 l 525 392 q 509 393 518 392 q 486 393 500 393 q 471 248 479 320 q 456 103 463 176 l 445 73 m 656 1184 q 715 1202 690 1185 q 751 1242 739 1218 q 765 1295 764 1267 q 755 1347 766 1322 q 719 1387 743 1371 q 656 1404 694 1402 q 595 1383 620 1401 q 559 1341 571 1366 q 547 1289 547 1317 q 560 1238 548 1261 q 596 1200 572 1215 q 656 1184 620 1184 m 273 1175 q 331 1192 307 1176 q 368 1233 355 1208 q 381 1285 380 1257 q 370 1337 382 1313 q 334 1377 358 1362 q 273 1394 311 1393 q 211 1374 236 1392 q 174 1332 186 1356 q 163 1280 163 1308 q 176 1229 163 1252 q 212 1190 189 1206 q 273 1175 236 1175 m 271 1116 q 199 1131 231 1116 q 147 1167 168 1145 q 115 1219 126 1190 q 104 1280 104 1249 q 115 1340 104 1310 q 145 1394 125 1370 q 196 1434 165 1417 q 269 1453 227 1450 q 344 1438 312 1453 q 397 1401 376 1424 q 429 1349 419 1378 q 439 1289 439 1320 q 429 1227 439 1257 q 397 1173 418 1198 q 345 1133 376 1149 q 274 1116 315 1118 l 271 1116 m 655 1126 q 583 1140 614 1126 q 531 1177 552 1154 q 499 1229 510 1199 q 488 1290 488 1259 q 498 1350 488 1320 q 529 1403 509 1379 q 581 1443 549 1427 q 652 1462 612 1459 q 728 1448 696 1462 q 782 1411 761 1434 q 813 1358 803 1388 q 823 1298 823 1329 q 812 1237 823 1267 q 781 1183 802 1207 q 730 1143 761 1158 q 659 1126 700 1127 l 655 1126 z "},"Ā":{"ha":1013,"x_min":12,"x_max":998,"o":"m 438 648 q 468 758 452 715 q 502 809 484 802 q 536 781 519 817 q 568 654 553 745 l 438 648 m 431 454 l 579 450 l 631 85 q 699 65 665 75 q 769 54 734 56 q 843 62 804 53 q 926 99 882 72 l 665 989 q 629 1021 656 1006 q 563 1042 601 1035 q 482 1050 525 1050 q 401 1040 439 1050 q 332 1011 362 1031 q 288 960 301 991 l 76 111 q 94 93 75 103 q 142 75 113 83 q 210 62 172 66 q 282 60 247 58 q 348 74 317 62 q 395 109 378 85 l 431 454 m 445 73 q 364 16 415 31 q 256 0 313 0 q 166 12 210 0 q 87 41 122 23 q 33 81 53 60 q 15 123 12 103 l 228 975 q 271 1037 243 1012 q 333 1078 298 1062 q 407 1102 368 1095 q 486 1109 446 1109 q 562 1102 524 1109 q 633 1082 601 1095 q 688 1050 665 1069 q 723 1008 712 1031 l 998 72 q 873 12 926 28 q 779 -5 821 -5 q 680 8 732 -5 q 575 39 628 22 l 525 392 q 509 393 518 392 q 486 393 500 393 q 471 248 479 320 q 456 103 463 176 l 445 73 m 651 1196 q 680 1232 669 1202 q 692 1297 692 1263 q 683 1362 693 1332 q 648 1401 673 1393 l 346 1396 q 319 1381 331 1396 q 299 1344 307 1366 q 290 1297 292 1322 q 294 1249 289 1271 q 313 1211 300 1226 q 350 1194 327 1195 l 651 1196 m 349 1135 q 294 1149 316 1137 q 258 1183 273 1162 q 238 1230 244 1204 q 232 1284 232 1256 q 240 1345 232 1314 q 264 1400 248 1375 q 300 1439 279 1424 q 346 1454 321 1454 q 501 1457 422 1455 q 656 1459 581 1458 q 729 1400 707 1444 q 751 1306 751 1356 q 745 1253 751 1279 q 726 1202 738 1226 q 696 1162 713 1179 q 659 1138 680 1145 l 349 1135 z "},"Å":{"ha":1013,"x_min":12,"x_max":998,"o":"m 438 648 q 468 758 452 715 q 502 809 484 802 q 536 781 519 817 q 568 654 553 745 l 438 648 m 431 454 l 579 450 l 631 85 q 699 65 665 75 q 769 54 734 56 q 843 62 804 53 q 926 99 882 72 l 665 989 q 629 1021 656 1006 q 563 1042 601 1035 q 482 1050 525 1050 q 401 1040 439 1050 q 332 1011 362 1031 q 288 960 301 991 l 76 111 q 94 93 75 103 q 142 75 113 83 q 210 62 172 66 q 282 60 247 58 q 348 74 317 62 q 395 109 378 85 l 431 454 m 445 73 q 364 16 415 31 q 256 0 313 0 q 166 12 210 0 q 87 41 122 23 q 33 81 53 60 q 15 123 12 103 l 228 975 q 271 1037 243 1012 q 333 1078 298 1062 q 407 1102 368 1095 q 486 1109 446 1109 q 562 1102 524 1109 q 633 1082 601 1095 q 688 1050 665 1069 q 723 1008 712 1031 l 998 72 q 873 12 926 28 q 779 -5 821 -5 q 680 8 732 -5 q 575 39 628 22 l 525 392 q 509 393 518 392 q 486 393 500 393 q 471 248 479 320 q 456 103 463 176 l 445 73 m 467 1356 q 479 1390 467 1379 q 505 1401 491 1401 q 532 1390 519 1401 q 544 1356 544 1378 q 532 1320 544 1332 q 505 1307 519 1308 q 479 1318 491 1306 q 467 1356 467 1331 m 339 1352 q 370 1253 339 1289 q 445 1204 400 1217 q 539 1202 490 1192 q 625 1240 589 1211 q 678 1316 662 1270 q 673 1424 694 1363 q 627 1495 658 1469 q 558 1530 595 1520 q 482 1532 521 1539 q 412 1501 444 1525 q 359 1441 380 1478 q 339 1352 339 1404 m 281 1352 q 301 1455 281 1411 q 355 1531 321 1500 q 431 1577 389 1561 q 518 1594 473 1594 q 643 1557 585 1594 q 728 1444 701 1520 q 739 1401 735 1421 q 743 1360 743 1381 q 722 1267 743 1309 q 664 1198 700 1226 q 584 1154 628 1169 q 495 1138 540 1138 q 414 1151 453 1138 q 346 1190 376 1164 q 298 1257 316 1217 q 281 1352 281 1297 z "},"Ą":{"ha":1013,"x_min":12,"x_max":998,"o":"m 438 648 q 468 758 452 715 q 502 809 484 802 q 536 781 519 817 q 568 654 553 745 l 438 648 m 760 -57 q 727 -47 741 -58 q 704 -16 713 -35 q 690 25 694 3 q 685 69 685 47 q 740 58 712 62 q 797 56 768 54 q 859 68 826 58 q 926 99 891 79 l 665 989 q 629 1021 656 1006 q 563 1042 601 1035 q 482 1050 525 1050 q 401 1040 439 1050 q 332 1011 362 1031 q 288 960 301 991 l 76 111 q 94 93 75 103 q 142 75 113 83 q 210 62 172 66 q 282 60 247 58 q 348 74 317 62 q 395 109 378 85 l 431 454 l 579 450 l 624 133 q 585 26 593 84 q 594 -78 576 -31 q 657 -153 612 -125 q 777 -170 703 -180 q 817 -133 807 -153 q 821 -94 826 -113 q 799 -64 815 -76 q 760 -57 783 -53 m 998 72 q 892 20 937 37 q 808 -3 846 3 q 863 -44 842 -15 q 883 -107 883 -73 q 864 -171 883 -138 q 798 -228 845 -203 q 764 -231 777 -231 q 741 -232 751 -232 q 644 -214 685 -232 q 575 -164 602 -195 q 534 -92 548 -133 q 521 -7 521 -52 q 532 71 521 31 q 562 145 543 110 q 552 208 556 179 q 543 266 548 237 q 534 325 538 294 q 525 392 530 355 q 509 393 518 392 q 486 393 500 393 q 469 239 477 317 q 454 87 461 160 q 366 19 419 38 q 256 0 313 0 q 166 12 210 0 q 87 41 122 23 q 33 81 53 60 q 15 123 12 103 l 228 975 q 271 1037 243 1012 q 333 1078 298 1062 q 407 1102 368 1095 q 486 1109 446 1109 q 562 1102 524 1109 q 633 1082 601 1095 q 688 1050 665 1069 q 723 1008 712 1031 l 998 72 m 511 713 q 509 750 517 750 q 500 712 499 750 l 511 713 z "},"Ã":{"ha":1013,"x_min":12,"x_max":998,"o":"m 438 648 q 468 758 452 715 q 502 809 484 802 q 536 781 519 817 q 568 654 553 745 l 438 648 m 431 454 l 579 450 l 631 85 q 699 65 665 75 q 769 54 734 56 q 843 62 804 53 q 926 99 882 72 l 665 989 q 629 1021 656 1006 q 563 1042 601 1035 q 482 1050 525 1050 q 401 1040 439 1050 q 332 1011 362 1031 q 288 960 301 991 l 76 111 q 94 93 75 103 q 142 75 113 83 q 210 62 172 66 q 282 60 247 58 q 348 74 317 62 q 395 109 378 85 l 431 454 m 445 73 q 364 16 415 31 q 256 0 313 0 q 166 12 210 0 q 87 41 122 23 q 33 81 53 60 q 15 123 12 103 l 228 975 q 271 1037 243 1012 q 333 1078 298 1062 q 407 1102 368 1095 q 486 1109 446 1109 q 562 1102 524 1109 q 633 1082 601 1095 q 688 1050 665 1069 q 723 1008 712 1031 l 998 72 q 873 12 926 28 q 779 -5 821 -5 q 680 8 732 -5 q 575 39 628 22 l 525 392 q 509 393 518 392 q 486 393 500 393 q 471 248 479 320 q 456 103 463 176 l 445 73 m 335 1199 q 382 1269 358 1249 q 434 1284 407 1289 q 473 1271 454 1286 q 515 1238 492 1256 q 564 1207 537 1221 q 625 1199 591 1194 q 665 1221 639 1206 q 720 1262 692 1237 q 774 1323 749 1287 q 810 1407 799 1359 q 797 1453 815 1428 q 752 1494 779 1477 q 699 1514 726 1511 q 658 1497 671 1518 q 650 1461 655 1481 q 636 1426 646 1442 q 612 1398 627 1409 q 572 1388 597 1388 q 534 1404 551 1388 q 501 1439 518 1420 q 464 1474 484 1458 q 412 1491 444 1491 q 363 1482 392 1499 q 307 1438 334 1465 q 258 1381 279 1411 q 233 1332 237 1351 q 229 1280 222 1313 q 251 1220 235 1246 q 290 1183 267 1194 q 335 1199 312 1173 m 378 1160 q 301 1122 345 1122 q 244 1149 271 1122 q 199 1213 217 1176 q 175 1291 180 1251 q 182 1356 170 1331 q 214 1415 191 1382 q 268 1476 237 1447 q 336 1527 298 1506 q 412 1549 373 1548 q 460 1542 439 1549 q 496 1524 480 1535 q 526 1498 513 1512 q 552 1469 540 1484 q 565 1453 559 1459 q 572 1446 571 1446 q 583 1453 578 1446 q 591 1472 587 1461 q 597 1497 595 1484 q 602 1522 600 1510 q 645 1561 621 1549 q 694 1573 669 1573 q 756 1556 723 1573 q 816 1511 789 1538 q 858 1453 842 1484 q 867 1393 873 1421 l 867 1394 q 823 1294 853 1337 q 760 1220 793 1251 q 695 1171 727 1190 q 646 1145 663 1153 q 585 1143 612 1139 q 538 1156 559 1146 q 500 1178 517 1165 q 467 1203 483 1191 l 468 1203 q 446 1219 456 1211 q 434 1226 437 1226 q 388 1175 415 1230 l 378 1160 z "},"Æ":{"ha":1241,"x_min":23,"x_max":1215,"o":"m 449 648 q 467 726 457 692 q 488 782 477 761 q 511 809 499 803 q 534 803 522 815 l 534 651 l 449 648 m 534 73 l 1100 84 q 1128 131 1115 103 q 1145 192 1141 159 q 1144 260 1150 225 q 1114 328 1138 296 l 769 326 l 764 513 l 990 521 q 1008 563 1004 534 q 1011 621 1013 591 q 1001 673 1009 650 q 981 701 993 696 l 774 707 l 762 831 l 1085 837 q 1134 875 1118 845 q 1154 939 1150 905 q 1149 1005 1157 974 q 1130 1047 1142 1036 q 835 1050 960 1050 q 620 1046 709 1050 q 472 1036 530 1043 q 378 1019 414 1029 q 324 994 342 1009 q 298 960 307 979 l 85 111 q 103 93 84 103 q 153 75 122 83 q 220 62 183 66 q 293 60 258 58 q 359 74 328 62 q 406 109 389 85 l 442 454 l 534 452 l 534 73 m 473 174 q 465 87 467 129 q 377 19 430 38 q 266 0 324 0 q 177 12 221 0 q 98 41 133 23 q 43 81 64 60 q 26 123 23 103 l 240 979 q 286 1039 255 1015 q 382 1079 317 1063 q 557 1102 448 1095 q 840 1109 667 1109 q 985 1109 903 1109 q 1152 1107 1067 1108 q 1197 1043 1179 1084 q 1215 960 1215 1002 q 1208 903 1215 932 q 1187 850 1202 875 q 1149 805 1173 825 q 1093 776 1126 785 l 830 770 l 830 766 q 912 764 869 765 q 993 761 955 762 q 1025 738 1010 754 q 1050 700 1040 722 q 1067 652 1061 678 q 1073 601 1073 627 q 1059 529 1073 567 q 1015 460 1046 491 l 826 454 q 826 427 826 441 q 827 387 826 412 q 988 387 911 387 q 1145 388 1065 388 q 1194 299 1179 340 q 1208 222 1208 258 q 1184 115 1208 170 q 1130 24 1160 61 l 473 12 l 473 174 z "},"Ǽ":{"ha":1241,"x_min":23,"x_max":1215,"o":"m 449 648 q 467 726 457 692 q 488 782 477 761 q 511 809 499 803 q 534 803 522 815 l 534 651 l 449 648 m 534 73 l 1100 84 q 1128 131 1115 103 q 1145 192 1141 159 q 1144 260 1150 225 q 1114 328 1138 296 l 769 326 l 764 513 l 990 521 q 1008 563 1004 534 q 1011 621 1013 591 q 1001 673 1009 650 q 981 701 993 696 l 774 707 l 762 831 l 1085 837 q 1134 875 1118 845 q 1154 939 1150 905 q 1149 1005 1157 974 q 1130 1047 1142 1036 q 835 1050 960 1050 q 620 1046 709 1050 q 472 1036 530 1043 q 378 1019 414 1029 q 324 994 342 1009 q 298 960 307 979 l 85 111 q 103 93 84 103 q 153 75 122 83 q 220 62 183 66 q 293 60 258 58 q 359 74 328 62 q 406 109 389 85 l 442 454 l 534 452 l 534 73 m 473 174 q 465 87 467 129 q 377 19 430 38 q 266 0 324 0 q 177 12 221 0 q 98 41 133 23 q 43 81 64 60 q 26 123 23 103 l 240 979 q 286 1039 255 1015 q 382 1079 317 1063 q 557 1102 448 1095 q 840 1109 667 1109 q 985 1109 903 1109 q 1152 1107 1067 1108 q 1197 1043 1179 1084 q 1215 960 1215 1002 q 1208 903 1215 932 q 1187 850 1202 875 q 1149 805 1173 825 q 1093 776 1126 785 l 830 770 l 830 766 q 912 764 869 765 q 993 761 955 762 q 1025 738 1010 754 q 1050 700 1040 722 q 1067 652 1061 678 q 1073 601 1073 627 q 1059 529 1073 567 q 1015 460 1046 491 l 826 454 q 826 427 826 441 q 827 387 826 412 q 988 387 911 387 q 1145 388 1065 388 q 1194 299 1179 340 q 1208 222 1208 258 q 1184 115 1208 170 q 1130 24 1160 61 l 473 12 l 473 174 m 538 1293 q 536 1252 526 1276 q 567 1209 545 1227 q 616 1185 589 1191 q 667 1203 644 1180 l 791 1397 q 774 1452 791 1430 q 734 1485 757 1474 q 686 1492 711 1495 q 644 1470 661 1489 l 538 1293 m 492 1326 l 594 1500 q 642 1539 614 1526 q 697 1552 670 1552 q 752 1540 724 1552 q 802 1506 780 1529 q 837 1452 823 1484 q 849 1379 850 1420 l 713 1168 q 669 1136 690 1145 q 625 1127 647 1127 q 558 1149 590 1127 q 505 1203 526 1172 q 479 1269 484 1234 q 492 1328 473 1303 l 488 1321 l 492 1326 z "},"Ć":{"ha":926,"x_min":16,"x_max":910,"o":"m 850 392 q 833 439 849 419 q 793 471 817 458 q 741 489 769 484 q 687 490 712 494 q 642 474 662 487 q 617 438 623 461 q 532 349 574 373 q 452 331 490 326 q 385 366 415 336 q 335 438 354 396 q 310 529 316 480 q 316 623 304 578 q 340 686 324 652 q 380 747 357 719 q 432 793 403 774 q 494 811 461 811 q 566 789 528 811 q 643 715 604 768 q 700 699 666 696 q 764 720 734 703 q 814 766 795 738 q 830 825 834 793 q 742 978 802 924 q 608 1049 682 1032 q 454 1048 534 1066 q 302 987 373 1031 q 176 878 231 944 q 102 732 122 812 q 77 513 72 616 q 115 328 83 411 q 200 184 146 245 q 319 90 254 123 q 458 55 385 57 q 603 88 532 53 q 739 197 674 123 q 850 392 803 271 m 906 369 q 814 199 865 270 q 706 83 764 129 q 587 16 648 38 q 463 -5 525 -5 q 295 35 376 -5 q 153 146 214 75 q 54 319 91 218 q 16 543 16 420 q 43 747 16 635 q 115 895 64 827 q 233 1013 165 963 q 379 1090 300 1062 q 536 1118 458 1118 q 647 1101 593 1118 q 748 1051 701 1085 q 831 963 795 1017 q 891 834 868 909 q 878 761 895 796 q 831 699 861 726 q 765 655 802 671 q 693 639 728 639 q 645 646 669 639 q 601 671 621 654 q 543 733 568 715 q 496 751 517 751 q 455 738 475 751 q 420 703 435 724 q 392 656 404 681 q 374 608 380 631 l 376 608 q 372 548 370 585 q 384 477 373 511 q 415 416 395 442 q 468 391 435 391 q 511 409 487 391 q 563 467 536 427 q 620 531 579 510 q 709 552 661 552 q 779 541 743 552 q 844 510 815 530 q 890 460 872 490 q 910 395 909 431 l 906 369 m 373 1293 q 370 1252 361 1276 q 401 1209 380 1227 q 451 1185 423 1191 q 502 1203 479 1180 l 625 1397 q 608 1452 625 1430 q 568 1485 591 1474 q 520 1492 545 1495 q 479 1470 495 1489 l 373 1293 m 327 1326 l 429 1500 q 477 1539 449 1526 q 532 1552 505 1552 q 587 1540 559 1552 q 636 1506 614 1529 q 671 1452 658 1484 q 684 1379 685 1420 l 548 1168 q 503 1136 525 1145 q 460 1127 481 1127 q 393 1149 425 1127 q 340 1203 361 1172 q 313 1269 319 1234 q 327 1328 308 1303 l 323 1321 l 327 1326 z "},"Č":{"ha":926,"x_min":16,"x_max":910,"o":"m 850 392 q 833 439 849 419 q 793 471 817 458 q 741 489 769 484 q 687 490 712 494 q 642 474 662 487 q 617 438 623 461 q 532 349 574 373 q 452 331 490 326 q 385 366 415 336 q 335 438 354 396 q 310 529 316 480 q 316 623 304 578 q 340 686 324 652 q 380 747 357 719 q 432 793 403 774 q 494 811 461 811 q 566 789 528 811 q 643 715 604 768 q 700 699 666 696 q 764 720 734 703 q 814 766 795 738 q 830 825 834 793 q 742 978 802 924 q 608 1049 682 1032 q 454 1048 534 1066 q 302 987 373 1031 q 176 878 231 944 q 102 732 122 812 q 77 513 72 616 q 115 328 83 411 q 200 184 146 245 q 319 90 254 123 q 458 55 385 57 q 603 88 532 53 q 739 197 674 123 q 850 392 803 271 m 906 369 q 814 199 865 270 q 706 83 764 129 q 587 16 648 38 q 463 -5 525 -5 q 295 35 376 -5 q 153 146 214 75 q 54 319 91 218 q 16 543 16 420 q 43 747 16 635 q 115 895 64 827 q 233 1013 165 963 q 379 1090 300 1062 q 536 1118 458 1118 q 647 1101 593 1118 q 748 1051 701 1085 q 831 963 795 1017 q 891 834 868 909 q 878 761 895 796 q 831 699 861 726 q 765 655 802 671 q 693 639 728 639 q 645 646 669 639 q 601 671 621 654 q 543 733 568 715 q 496 751 517 751 q 455 738 475 751 q 420 703 435 724 q 392 656 404 681 q 374 608 380 631 l 376 608 q 372 548 370 585 q 384 477 373 511 q 415 416 395 442 q 468 391 435 391 q 511 409 487 391 q 563 467 536 427 q 620 531 579 510 q 709 552 661 552 q 779 541 743 552 q 844 510 815 530 q 890 460 872 490 q 910 395 909 431 l 906 369 m 640 1393 q 643 1413 646 1398 q 631 1446 640 1428 q 609 1479 623 1463 q 577 1503 595 1495 q 538 1506 559 1511 q 495 1478 517 1501 l 448 1393 l 391 1489 q 350 1504 374 1504 q 300 1493 326 1504 q 255 1458 275 1481 q 227 1402 235 1435 l 355 1217 q 397 1185 370 1194 q 450 1178 423 1176 q 501 1190 477 1180 q 534 1217 525 1200 l 640 1393 m 585 1184 q 525 1138 566 1157 q 441 1119 484 1119 q 366 1133 403 1119 q 307 1183 330 1147 q 235 1288 275 1230 q 164 1393 195 1345 q 194 1464 174 1432 q 240 1518 214 1496 q 294 1551 266 1539 q 349 1563 323 1563 q 392 1554 369 1563 q 438 1525 415 1545 l 446 1511 q 500 1554 473 1542 q 552 1567 528 1567 q 621 1545 590 1567 q 671 1493 651 1523 q 698 1434 690 1463 q 697 1390 705 1405 l 690 1364 l 585 1184 z "},"Ç":{"ha":926,"x_min":16,"x_max":910,"o":"m 372 -210 q 369 -213 369 -210 q 372 -210 369 -210 m 355 -388 q 655 -364 555 -423 q 745 -163 755 -305 q 721 -86 742 -121 q 669 -27 700 -52 q 600 11 637 -3 q 526 24 563 24 l 524 62 q 702 159 616 80 q 850 392 788 237 q 833 439 849 419 q 793 471 817 458 q 741 489 769 484 q 687 490 712 494 q 642 474 662 487 q 617 438 623 461 q 532 349 574 373 q 452 331 490 326 q 385 366 415 336 q 335 438 354 396 q 310 529 316 480 q 316 623 304 578 q 340 686 324 652 q 380 747 357 719 q 432 793 403 774 q 494 811 461 811 q 566 789 528 811 q 643 715 604 768 q 700 699 666 696 q 764 720 734 703 q 814 766 795 738 q 830 825 834 793 q 742 978 802 924 q 608 1049 682 1032 q 454 1048 534 1066 q 302 987 373 1031 q 176 878 231 944 q 102 732 122 812 q 77 510 71 614 q 117 321 84 406 q 207 176 151 236 q 331 84 263 115 l 335 -15 q 345 -77 331 -57 q 382 -106 359 -98 q 435 -115 406 -114 q 490 -118 464 -115 q 535 -131 517 -121 q 557 -167 553 -141 q 547 -203 560 -190 q 514 -222 534 -216 q 469 -229 494 -228 q 422 -227 444 -229 q 385 -220 400 -224 q 369 -213 370 -216 q 343 -244 355 -227 q 326 -284 331 -262 q 327 -332 321 -307 q 355 -388 332 -358 m 307 -425 q 273 -363 283 -393 q 263 -307 263 -334 q 287 -234 263 -273 q 343 -157 311 -195 q 288 -108 308 -142 q 274 -8 269 -73 q 273 17 273 9 q 273 47 274 24 q 172 127 218 79 q 90 238 125 175 q 36 378 56 301 q 16 543 16 454 q 43 747 16 635 q 115 895 64 827 q 233 1013 165 963 q 379 1090 300 1062 q 536 1118 458 1118 q 647 1101 593 1118 q 748 1051 701 1085 q 831 963 795 1017 q 891 834 868 909 q 878 761 895 796 q 831 699 861 726 q 765 655 802 671 q 693 639 728 639 q 645 646 669 639 q 601 671 621 654 q 543 733 568 715 q 496 751 517 751 q 455 738 475 751 q 420 703 435 724 q 392 656 404 681 q 374 608 380 631 l 376 608 q 371 584 373 595 q 369 560 369 572 q 376 498 369 529 q 397 444 384 468 q 429 406 411 420 q 468 391 448 391 q 511 409 487 391 q 563 467 536 427 q 620 531 579 510 q 709 552 661 552 q 779 541 743 552 q 844 507 815 529 q 890 454 872 486 q 910 382 909 423 q 793 174 859 255 q 655 50 728 94 q 755 -36 712 18 q 806 -159 798 -90 q 733 -382 815 -302 q 486 -461 651 -461 q 345 -448 420 -461 l 307 -425 z "},"Ĉ":{"ha":926,"x_min":16,"x_max":910,"o":"m 850 392 q 833 439 849 419 q 793 471 817 458 q 741 489 769 484 q 687 490 712 494 q 642 474 662 487 q 617 438 623 461 q 532 349 574 373 q 452 331 490 326 q 385 366 415 336 q 335 438 354 396 q 310 529 316 480 q 316 623 304 578 q 340 686 324 652 q 380 747 357 719 q 432 793 403 774 q 494 811 461 811 q 566 789 528 811 q 643 715 604 768 q 700 699 666 696 q 764 720 734 703 q 814 766 795 738 q 830 825 834 793 q 742 978 802 924 q 608 1049 682 1032 q 454 1048 534 1066 q 302 987 373 1031 q 176 878 231 944 q 102 732 122 812 q 77 513 72 616 q 115 328 83 411 q 200 184 146 245 q 319 90 254 123 q 458 55 385 57 q 603 88 532 53 q 739 197 674 123 q 850 392 803 271 m 906 369 q 814 199 865 270 q 706 83 764 129 q 587 16 648 38 q 463 -5 525 -5 q 295 35 376 -5 q 153 146 214 75 q 54 319 91 218 q 16 543 16 420 q 43 747 16 635 q 115 895 64 827 q 233 1013 165 963 q 379 1090 300 1062 q 536 1118 458 1118 q 647 1101 593 1118 q 748 1051 701 1085 q 831 963 795 1017 q 891 834 868 909 q 878 761 895 796 q 831 699 861 726 q 765 655 802 671 q 693 639 728 639 q 645 646 669 639 q 601 671 621 654 q 543 733 568 715 q 496 751 517 751 q 455 738 475 751 q 420 703 435 724 q 392 656 404 681 q 374 608 380 631 l 376 608 q 372 548 370 585 q 384 477 373 511 q 415 416 395 442 q 468 391 435 391 q 511 409 487 391 q 563 467 536 427 q 620 531 579 510 q 709 552 661 552 q 779 541 743 552 q 844 510 815 530 q 890 460 872 490 q 910 395 909 431 l 906 369 m 534 1480 q 501 1506 525 1495 q 450 1518 477 1516 q 397 1512 423 1520 q 355 1480 370 1503 l 227 1293 q 255 1238 235 1261 q 300 1203 275 1215 q 350 1192 326 1191 q 391 1207 374 1192 l 448 1302 l 495 1217 q 538 1190 518 1194 q 577 1194 559 1185 q 609 1217 595 1202 q 631 1251 623 1233 q 643 1282 640 1268 q 640 1302 646 1297 l 534 1480 m 684 1340 q 693 1289 697 1324 q 670 1218 689 1253 q 621 1156 651 1183 q 552 1130 590 1130 q 500 1142 528 1130 q 446 1184 473 1154 l 445 1184 q 441 1177 442 1181 q 437 1171 439 1173 q 392 1141 415 1150 q 349 1133 369 1133 q 294 1144 323 1133 q 240 1178 266 1156 q 194 1232 214 1200 q 164 1303 174 1264 l 307 1512 q 366 1563 330 1548 q 441 1577 403 1577 q 525 1558 484 1577 q 585 1511 566 1539 l 684 1340 z "},"Ċ":{"ha":926,"x_min":16,"x_max":910,"o":"m 850 392 q 833 439 849 419 q 793 471 817 458 q 741 489 769 484 q 687 490 712 494 q 642 474 662 487 q 617 438 623 461 q 532 349 574 373 q 452 331 490 326 q 385 366 415 336 q 335 438 354 396 q 310 529 316 480 q 316 623 304 578 q 340 686 324 652 q 380 747 357 719 q 432 793 403 774 q 494 811 461 811 q 566 789 528 811 q 643 715 604 768 q 700 699 666 696 q 764 720 734 703 q 814 766 795 738 q 830 825 834 793 q 742 978 802 924 q 608 1049 682 1032 q 454 1048 534 1066 q 302 987 373 1031 q 176 878 231 944 q 102 732 122 812 q 77 513 72 616 q 115 328 83 411 q 200 184 146 245 q 319 90 254 123 q 458 55 385 57 q 603 88 532 53 q 739 197 674 123 q 850 392 803 271 m 906 369 q 814 199 865 270 q 706 83 764 129 q 587 16 648 38 q 463 -5 525 -5 q 295 35 376 -5 q 153 146 214 75 q 54 319 91 218 q 16 543 16 420 q 43 747 16 635 q 115 895 64 827 q 233 1013 165 963 q 379 1090 300 1062 q 536 1118 458 1118 q 647 1101 593 1118 q 748 1051 701 1085 q 831 963 795 1017 q 891 834 868 909 q 878 761 895 796 q 831 699 861 726 q 765 655 802 671 q 693 639 728 639 q 645 646 669 639 q 601 671 621 654 q 543 733 568 715 q 496 751 517 751 q 455 738 475 751 q 420 703 435 724 q 392 656 404 681 q 374 608 380 631 l 376 608 q 372 548 370 585 q 384 477 373 511 q 415 416 395 442 q 468 391 435 391 q 511 409 487 391 q 563 467 536 427 q 620 531 579 510 q 709 552 661 552 q 779 541 743 552 q 844 510 815 530 q 890 460 872 490 q 910 395 909 431 l 906 369 m 533 1179 q 592 1197 568 1180 q 629 1238 616 1214 q 642 1289 642 1261 q 631 1341 643 1317 q 595 1381 620 1366 q 533 1398 571 1397 q 450 1359 477 1394 q 424 1284 423 1324 q 452 1212 425 1245 q 533 1179 479 1179 m 532 1120 q 460 1135 491 1120 q 408 1172 429 1149 q 376 1225 387 1195 q 365 1286 365 1255 q 375 1345 365 1316 q 406 1398 385 1374 q 457 1438 426 1421 q 529 1457 488 1454 q 605 1442 572 1457 q 659 1405 637 1428 q 690 1353 680 1382 q 700 1294 700 1324 q 689 1232 700 1263 q 658 1177 678 1202 q 607 1137 637 1153 q 536 1120 576 1122 l 532 1120 z "},"Ď":{"ha":845,"x_min":16,"x_max":831,"o":"m 307 758 q 496 675 441 735 q 541 524 551 614 q 518 443 537 481 q 469 376 499 404 q 397 331 438 347 q 307 319 357 315 l 307 758 m 88 76 q 220 65 148 64 q 366 83 292 66 q 509 134 439 100 q 635 222 579 168 q 726 351 690 277 q 768 524 762 426 q 743 687 772 609 q 662 830 715 765 q 538 943 609 895 q 389 1018 468 991 q 230 1046 311 1044 q 77 1020 149 1048 l 88 76 m 16 1061 q 128 1096 76 1085 q 224 1107 180 1107 q 372 1086 297 1107 q 516 1027 448 1065 q 644 935 585 989 q 745 817 703 882 q 809 676 787 751 q 827 521 831 601 q 792 353 822 427 q 715 221 762 278 q 607 123 667 164 q 479 56 547 81 q 341 18 411 30 q 206 5 271 5 q 27 27 134 5 l 16 1061 m 368 387 q 445 442 416 401 q 480 530 473 483 q 458 621 484 581 q 368 682 431 661 l 368 387 m 600 1393 q 602 1413 605 1398 q 591 1446 600 1428 q 568 1479 582 1463 q 536 1503 555 1495 q 497 1506 518 1511 q 454 1478 476 1501 l 407 1393 l 350 1489 q 309 1504 334 1504 q 260 1493 285 1504 q 214 1458 235 1481 q 186 1402 194 1435 l 315 1217 q 356 1185 330 1194 q 410 1178 382 1176 q 460 1190 437 1180 q 494 1217 484 1200 l 600 1393 m 544 1184 q 484 1138 525 1157 q 400 1119 444 1119 q 326 1133 362 1119 q 266 1183 289 1147 q 195 1288 235 1230 q 123 1393 155 1345 q 153 1464 133 1432 q 199 1518 174 1496 q 254 1551 225 1539 q 308 1563 282 1563 q 351 1554 328 1563 q 397 1525 374 1545 l 406 1511 q 460 1554 433 1542 q 511 1567 487 1567 q 580 1545 549 1567 q 630 1493 610 1523 q 657 1434 650 1463 q 656 1390 665 1405 l 650 1364 l 544 1184 z "},"Đ":{"ha":825,"x_min":-28,"x_max":859,"o":"m 406 467 q 435 503 423 472 q 449 570 448 534 q 440 638 450 606 q 404 678 430 670 l 332 677 l 332 758 q 522 675 467 735 q 566 524 576 616 q 543 443 562 481 q 494 376 524 404 q 422 331 464 347 q 332 319 381 315 l 332 465 l 406 467 m 113 76 q 244 65 172 64 q 390 83 316 66 q 534 134 464 100 q 659 222 604 168 q 751 351 715 277 q 792 524 787 426 q 768 687 798 609 q 686 830 739 765 q 563 943 633 895 q 414 1018 492 991 q 256 1046 336 1044 q 102 1020 175 1048 l 106 673 l 90 673 q 62 658 75 673 q 41 620 49 643 q 32 570 34 597 q 36 519 30 543 q 56 480 42 496 q 94 463 69 464 l 109 463 l 113 76 m 49 410 q -11 468 7 427 q -28 556 -28 509 q -9 651 -28 605 q 45 719 11 697 q 45 804 45 760 q 44 892 45 848 q 43 980 43 937 q 42 1061 42 1023 q 153 1096 102 1085 q 248 1107 205 1107 q 470 1061 359 1107 q 668 935 581 1015 q 807 749 755 856 q 853 521 859 642 q 784 282 845 380 q 633 123 723 184 q 436 33 543 61 q 231 5 330 5 q 54 27 159 5 l 49 410 z "},"É":{"ha":773,"x_min":15,"x_max":757,"o":"m 76 77 l 642 88 q 669 135 656 107 q 687 195 682 163 q 686 263 692 228 q 655 331 680 298 l 311 330 l 305 517 l 532 524 q 550 566 545 538 q 553 623 555 594 q 543 675 551 652 q 522 704 534 699 l 316 711 l 304 836 l 627 840 q 675 879 659 849 q 695 943 692 909 q 692 1008 699 978 q 671 1050 685 1039 l 76 1043 l 76 77 m 15 1103 l 692 1111 q 739 1046 720 1088 q 757 964 757 1005 q 750 907 757 936 q 729 853 743 879 q 691 808 715 827 q 635 780 667 789 l 372 774 l 372 769 q 454 768 412 769 q 534 765 496 766 q 567 742 552 758 q 593 703 582 726 q 609 655 604 681 q 614 605 614 629 q 601 532 614 570 q 556 464 587 495 l 368 458 q 369 430 369 445 q 370 389 369 415 q 530 391 453 389 q 686 392 608 392 q 735 303 720 345 q 750 227 750 262 q 726 119 750 172 q 671 28 701 65 l 15 16 l 15 1103 m 305 1293 q 302 1252 293 1276 q 334 1209 312 1227 q 383 1185 355 1191 q 434 1203 411 1180 l 557 1397 q 541 1452 557 1430 q 500 1485 524 1474 q 452 1492 477 1495 q 411 1470 427 1489 l 305 1293 m 259 1326 l 361 1500 q 409 1539 381 1526 q 464 1552 437 1552 q 519 1540 491 1552 q 568 1506 547 1529 q 604 1452 590 1484 q 616 1379 617 1420 l 480 1168 q 435 1136 457 1145 q 392 1127 414 1127 q 325 1149 357 1127 q 272 1203 293 1172 q 245 1269 251 1234 q 259 1328 240 1303 l 255 1321 l 259 1326 z "},"Ĕ":{"ha":751,"x_min":5,"x_max":747,"o":"m 66 77 l 632 88 q 660 135 647 107 q 677 195 673 163 q 676 263 682 228 q 646 331 670 298 l 301 330 l 296 517 l 522 524 q 541 566 536 538 q 543 623 545 594 q 533 675 541 652 q 513 704 525 699 l 307 711 l 294 836 l 617 840 q 666 879 650 849 q 686 943 682 909 q 682 1008 689 978 q 662 1050 675 1039 l 66 1043 l 66 77 m 5 1103 l 682 1111 q 729 1046 711 1088 q 747 964 747 1005 q 741 907 747 936 q 720 853 734 879 q 682 808 705 827 q 625 780 658 789 l 362 774 l 362 769 q 445 768 403 769 q 525 765 487 766 q 557 742 543 758 q 583 703 572 726 q 600 655 594 681 q 605 605 605 629 q 591 532 605 570 q 547 464 578 495 l 358 458 q 359 430 359 445 q 361 389 359 415 q 521 391 444 389 q 677 392 598 392 q 726 303 711 345 q 741 227 741 262 q 716 119 741 172 q 662 28 692 65 l 5 16 l 5 1103 m 179 1378 q 226 1289 191 1325 q 307 1232 260 1252 q 407 1211 354 1213 q 507 1227 460 1210 q 592 1283 555 1245 q 646 1381 629 1321 q 637 1425 647 1405 q 611 1456 628 1444 q 572 1470 594 1468 q 525 1462 549 1472 q 473 1393 506 1413 q 405 1375 439 1373 q 342 1399 370 1378 q 307 1453 313 1420 q 255 1467 279 1472 q 212 1447 231 1462 q 184 1411 194 1431 q 179 1378 175 1390 m 125 1359 q 127 1404 119 1375 q 155 1459 136 1432 q 201 1506 174 1487 q 263 1526 229 1526 q 359 1487 300 1526 q 378 1448 363 1462 q 412 1434 393 1434 q 446 1451 429 1434 q 479 1508 464 1469 q 526 1523 505 1518 q 563 1529 548 1529 q 620 1517 593 1529 q 666 1485 647 1506 q 695 1436 685 1465 q 704 1374 705 1408 q 659 1275 689 1317 q 591 1206 629 1233 q 506 1165 552 1179 q 414 1152 460 1152 q 318 1166 365 1152 q 231 1207 271 1180 q 163 1274 191 1234 q 122 1364 134 1313 l 125 1359 z "},"Ě":{"ha":760,"x_min":9,"x_max":751,"o":"m 71 77 l 636 88 q 664 135 651 107 q 682 195 677 163 q 680 263 686 228 q 650 331 674 298 l 305 330 l 300 517 l 526 524 q 545 566 540 538 q 547 623 549 594 q 537 675 545 652 q 517 704 529 699 l 311 711 l 298 836 l 621 840 q 670 879 654 849 q 690 943 686 909 q 686 1008 693 978 q 666 1050 680 1039 l 71 1043 l 71 77 m 9 1103 l 686 1111 q 733 1046 715 1088 q 751 964 751 1005 q 745 907 751 936 q 724 853 738 879 q 686 808 709 827 q 629 780 662 789 l 366 774 l 366 769 q 449 768 407 769 q 529 765 491 766 q 562 742 547 758 q 587 703 576 726 q 604 655 598 681 q 609 605 609 629 q 595 532 609 570 q 551 464 582 495 l 362 458 q 363 430 363 445 q 365 389 363 415 q 525 391 448 389 q 681 392 602 392 q 730 303 715 345 q 745 227 745 262 q 720 119 745 172 q 666 28 696 65 l 9 16 l 9 1103 m 566 1393 q 568 1413 571 1398 q 557 1446 566 1428 q 534 1479 548 1463 q 503 1503 521 1495 q 463 1506 484 1511 q 420 1478 442 1501 l 373 1393 l 316 1489 q 275 1504 300 1504 q 226 1493 251 1504 q 180 1458 201 1481 q 152 1402 160 1435 l 281 1217 q 322 1185 296 1194 q 376 1178 349 1176 q 427 1190 403 1180 q 460 1217 450 1200 l 566 1393 m 510 1184 q 450 1138 491 1157 q 366 1119 410 1119 q 292 1133 328 1119 q 232 1183 255 1147 q 161 1288 201 1230 q 90 1393 121 1345 q 119 1464 99 1432 q 165 1518 140 1496 q 220 1551 191 1539 q 274 1563 248 1563 q 317 1554 294 1563 q 363 1525 340 1545 l 372 1511 q 426 1554 399 1542 q 477 1567 453 1567 q 546 1545 515 1567 q 596 1493 576 1523 q 623 1434 616 1463 q 623 1390 631 1405 l 616 1364 l 510 1184 z "},"Ë":{"ha":770,"x_min":20,"x_max":762,"o":"m 81 71 l 647 81 q 675 128 662 100 q 692 189 688 156 q 691 256 697 221 q 661 324 685 292 l 316 323 l 311 510 l 537 517 q 555 559 551 532 q 558 616 560 587 q 548 669 556 646 q 528 697 540 692 l 321 704 l 309 829 l 632 833 q 681 872 665 842 q 701 937 697 902 q 697 1002 704 971 q 677 1043 690 1032 l 81 1036 l 81 71 m 20 1096 l 697 1104 q 744 1040 726 1081 q 762 958 762 998 q 755 901 762 929 q 734 846 749 872 q 696 802 720 821 q 640 773 673 783 l 377 768 l 377 762 q 460 761 418 762 q 540 758 502 760 q 572 735 557 751 q 598 696 587 719 q 614 648 609 674 q 620 598 620 623 q 606 526 620 563 q 562 457 593 488 l 373 452 q 374 423 374 438 q 376 382 374 408 q 536 384 458 382 q 692 385 613 385 q 741 296 726 338 q 755 220 755 255 q 731 112 755 165 q 677 22 707 58 l 20 9 l 20 1096 m 578 1192 q 636 1210 612 1194 q 673 1251 661 1226 q 686 1303 685 1275 q 676 1355 688 1331 q 640 1395 665 1379 q 578 1412 616 1411 q 517 1392 541 1409 q 480 1350 492 1374 q 469 1297 468 1325 q 481 1246 469 1270 q 517 1208 494 1223 q 578 1192 541 1192 m 194 1183 q 252 1200 228 1184 q 289 1241 277 1217 q 302 1293 301 1265 q 292 1345 304 1321 q 256 1385 279 1370 q 194 1402 232 1401 q 132 1382 157 1400 q 96 1340 107 1364 q 84 1288 84 1316 q 97 1237 84 1260 q 134 1198 110 1214 q 194 1183 157 1183 m 193 1124 q 121 1139 152 1124 q 68 1175 90 1153 q 37 1227 47 1198 q 26 1289 26 1257 q 36 1348 26 1318 q 66 1402 46 1378 q 117 1442 87 1426 q 190 1461 148 1458 q 265 1447 233 1461 q 319 1409 297 1432 q 351 1357 340 1386 q 361 1297 361 1328 q 350 1236 361 1265 q 318 1181 339 1206 q 267 1141 297 1157 q 195 1124 236 1126 l 193 1124 m 576 1134 q 505 1148 536 1134 q 452 1185 473 1162 q 420 1237 431 1207 q 410 1298 410 1267 q 420 1358 410 1328 q 450 1411 430 1388 q 502 1451 471 1435 q 574 1470 533 1468 q 650 1456 617 1470 q 703 1419 682 1442 q 734 1367 724 1396 q 745 1306 745 1337 q 734 1245 745 1275 q 703 1191 723 1215 q 652 1151 682 1166 q 581 1134 621 1135 l 576 1134 z "},"Ê":{"ha":773,"x_min":15,"x_max":757,"o":"m 76 77 l 642 88 q 669 135 656 107 q 687 195 682 163 q 686 263 692 228 q 655 331 680 298 l 311 330 l 305 517 l 532 524 q 550 566 545 538 q 553 623 555 594 q 543 675 551 652 q 522 704 534 699 l 316 711 l 304 836 l 627 840 q 675 879 659 849 q 695 943 692 909 q 692 1008 699 978 q 671 1050 685 1039 l 76 1043 l 76 77 m 15 1103 l 692 1111 q 739 1046 720 1088 q 757 964 757 1005 q 750 907 757 936 q 729 853 743 879 q 691 808 715 827 q 635 780 667 789 l 372 774 l 372 769 q 454 768 412 769 q 534 765 496 766 q 567 742 552 758 q 593 703 582 726 q 609 655 604 681 q 614 605 614 629 q 601 532 614 570 q 556 464 587 495 l 368 458 q 369 430 369 445 q 370 389 369 415 q 530 391 453 389 q 686 392 608 392 q 735 303 720 345 q 750 227 750 262 q 726 119 750 172 q 671 28 701 65 l 15 16 l 15 1103 m 467 1480 q 433 1506 457 1495 q 382 1518 410 1516 q 329 1512 355 1520 q 288 1480 302 1503 l 159 1293 q 187 1238 167 1261 q 233 1203 208 1215 q 282 1192 258 1191 q 323 1207 307 1192 l 380 1302 l 427 1217 q 471 1190 450 1194 q 509 1194 491 1185 q 541 1217 528 1202 q 564 1251 555 1233 q 575 1282 572 1268 q 572 1302 578 1297 l 467 1480 m 616 1340 q 625 1289 629 1324 q 602 1218 621 1253 q 553 1156 583 1183 q 484 1130 522 1130 q 433 1142 460 1130 q 378 1184 406 1154 l 377 1184 q 373 1177 374 1181 q 369 1171 372 1173 q 324 1141 347 1150 q 281 1133 301 1133 q 227 1144 255 1133 q 172 1178 198 1156 q 126 1232 146 1200 q 96 1303 106 1264 l 239 1512 q 298 1563 262 1548 q 373 1577 335 1577 q 457 1558 416 1577 q 517 1511 498 1539 l 616 1340 z "},"Ē":{"ha":779,"x_min":18,"x_max":760,"o":"m 79 77 l 644 88 q 672 135 659 107 q 690 195 685 163 q 688 263 694 228 q 658 331 682 298 l 313 330 l 308 517 l 534 524 q 553 566 548 538 q 555 623 557 594 q 545 675 553 652 q 525 704 537 699 l 319 711 l 307 836 l 629 840 q 678 879 662 849 q 698 943 694 909 q 694 1008 701 978 q 674 1050 688 1039 l 79 1043 l 79 77 m 18 1103 l 694 1111 q 741 1046 723 1088 q 760 964 760 1005 q 753 907 760 936 q 732 853 746 879 q 694 808 718 827 q 637 780 670 789 l 374 774 l 374 769 q 457 768 415 769 q 537 765 499 766 q 570 742 555 758 q 595 703 585 726 q 612 655 606 681 q 617 605 617 629 q 604 532 617 570 q 559 464 590 495 l 370 458 q 372 430 372 445 q 373 389 372 415 q 533 391 456 389 q 689 392 610 392 q 738 303 723 345 q 753 227 753 262 q 728 119 753 172 q 674 28 704 65 l 18 16 l 18 1103 m 537 1196 q 566 1232 555 1202 q 578 1297 578 1263 q 569 1362 579 1332 q 534 1401 559 1393 l 232 1396 q 205 1381 217 1396 q 185 1344 193 1366 q 176 1297 178 1322 q 180 1249 175 1271 q 199 1211 186 1226 q 236 1194 213 1195 l 537 1196 m 235 1135 q 180 1149 202 1137 q 144 1183 159 1162 q 124 1230 130 1204 q 118 1284 118 1256 q 126 1345 118 1314 q 150 1400 134 1375 q 186 1439 165 1424 q 232 1454 208 1454 q 387 1457 308 1455 q 543 1459 467 1458 q 615 1400 593 1444 q 637 1306 637 1356 q 631 1253 637 1279 q 612 1202 624 1226 q 583 1162 600 1179 q 545 1138 566 1145 l 235 1135 z "},"Ė":{"ha":781,"x_min":19,"x_max":761,"o":"m 80 77 l 646 88 q 673 135 661 107 q 691 195 686 163 q 690 263 696 228 q 659 331 684 298 l 315 330 l 309 517 l 536 524 q 554 566 549 538 q 557 623 559 594 q 547 675 555 652 q 526 704 538 699 l 320 711 l 308 836 l 631 840 q 680 879 663 849 q 699 943 696 909 q 696 1008 703 978 q 675 1050 689 1039 l 80 1043 l 80 77 m 19 1103 l 696 1111 q 743 1046 724 1088 q 761 964 761 1005 q 754 907 761 936 q 733 853 747 879 q 695 808 719 827 q 639 780 671 789 l 376 774 l 376 769 q 458 768 416 769 q 538 765 500 766 q 571 742 556 758 q 597 703 586 726 q 613 655 608 681 q 618 605 618 629 q 605 532 618 570 q 560 464 591 495 l 372 458 q 373 430 373 445 q 374 389 373 415 q 534 391 457 389 q 690 392 612 392 q 739 303 724 345 q 754 227 754 262 q 730 119 754 172 q 675 28 705 65 l 19 16 l 19 1103 m 469 1179 q 528 1197 505 1180 q 565 1238 552 1214 q 578 1289 578 1261 q 568 1341 579 1317 q 532 1381 556 1366 q 469 1398 507 1397 q 387 1359 414 1394 q 360 1284 359 1324 q 388 1212 361 1245 q 469 1179 415 1179 m 468 1120 q 396 1135 427 1120 q 344 1172 365 1149 q 312 1225 323 1195 q 301 1286 301 1255 q 311 1345 301 1316 q 342 1398 321 1374 q 393 1438 362 1421 q 465 1457 425 1454 q 541 1442 509 1457 q 595 1405 574 1428 q 626 1353 616 1382 q 636 1294 636 1324 q 625 1232 636 1263 q 594 1177 614 1202 q 543 1137 574 1153 q 472 1120 513 1122 l 468 1120 z "},"È":{"ha":770,"x_min":14,"x_max":755,"o":"m 75 77 l 640 88 q 668 135 655 107 q 686 195 681 163 q 684 263 690 228 q 654 331 678 298 l 309 330 l 304 517 l 530 524 q 549 566 544 538 q 551 623 553 594 q 541 675 549 652 q 521 704 533 699 l 315 711 l 302 836 l 625 840 q 674 879 658 849 q 694 943 690 909 q 690 1008 697 978 q 670 1050 684 1039 l 75 1043 l 75 77 m 14 1103 l 690 1111 q 737 1046 719 1088 q 755 964 755 1005 q 749 907 755 936 q 728 853 742 879 q 690 808 713 827 q 633 780 666 789 l 370 774 l 370 769 q 453 768 411 769 q 533 765 495 766 q 566 742 551 758 q 591 703 581 726 q 608 655 602 681 q 613 605 613 629 q 600 532 613 570 q 555 464 586 495 l 366 458 q 368 430 368 445 q 369 389 368 415 q 529 391 452 389 q 685 392 606 392 q 734 303 719 345 q 749 227 749 262 q 724 119 749 172 q 670 28 700 65 l 14 16 l 14 1103 m 529 1314 q 536 1255 543 1289 q 508 1192 529 1222 q 456 1140 487 1161 q 392 1119 426 1119 q 347 1128 369 1119 q 302 1160 326 1137 l 167 1371 q 180 1444 167 1412 q 214 1498 193 1476 q 264 1532 236 1520 q 319 1544 292 1544 q 373 1531 346 1544 q 420 1496 400 1519 l 529 1314 m 373 1462 q 332 1484 357 1481 q 283 1476 307 1487 q 242 1444 259 1466 q 225 1389 225 1421 l 350 1195 q 400 1177 373 1172 q 449 1201 427 1183 q 480 1244 471 1219 q 477 1284 490 1268 l 373 1462 z "},"Ę":{"ha":765,"x_min":11,"x_max":753,"o":"m 72 77 l 480 84 q 443 -22 450 35 q 454 -125 435 -79 q 517 -197 472 -171 q 636 -213 563 -224 q 675 -176 666 -197 q 680 -138 685 -156 q 658 -108 674 -119 q 618 -100 642 -96 q 574 -78 591 -102 q 549 -22 556 -54 q 545 41 541 9 q 564 87 548 72 l 637 88 q 665 135 652 107 q 683 195 678 163 q 682 263 688 228 q 651 331 675 298 l 307 330 l 301 517 l 528 524 q 546 566 541 538 q 549 623 551 594 q 538 675 547 652 q 518 704 530 699 l 312 711 l 300 836 l 623 840 q 671 879 655 849 q 691 943 688 909 q 688 1008 694 978 q 667 1050 681 1039 l 72 1043 l 72 77 m 11 1103 l 688 1111 q 734 1046 716 1088 q 753 964 753 1005 q 746 907 753 936 q 725 853 739 879 q 687 808 711 827 q 631 780 663 789 l 368 774 l 368 769 q 450 768 408 769 q 530 765 492 766 q 563 742 548 758 q 589 703 578 726 q 605 655 600 681 q 610 605 610 629 q 597 532 610 570 q 552 464 583 495 l 363 458 q 365 430 365 445 q 366 389 365 415 q 526 391 449 389 q 682 392 604 392 q 731 303 716 345 q 746 227 746 262 q 722 119 746 172 q 667 28 697 65 l 604 28 l 604 22 q 606 -19 604 1 q 614 -39 609 -39 q 667 -43 643 -35 q 707 -68 690 -52 q 732 -106 723 -84 q 742 -152 742 -127 q 723 -214 742 -182 q 656 -271 704 -247 q 623 -275 636 -274 q 600 -275 610 -275 q 503 -257 544 -275 q 434 -208 461 -239 q 393 -137 407 -178 q 380 -52 380 -96 q 382 -15 380 -34 q 389 23 385 4 q 194 19 296 20 q 11 16 92 18 l 11 1103 z "},"Ğ":{"ha":918,"x_min":9,"x_max":909,"o":"m 454 608 q 431 583 442 602 q 415 537 420 563 q 411 483 410 511 q 422 431 412 454 q 451 392 431 407 q 503 380 471 377 l 589 388 q 507 314 552 332 q 421 307 463 296 q 348 355 380 317 q 308 450 316 393 q 302 516 304 477 q 308 597 301 555 q 332 677 315 639 q 384 742 350 716 q 471 775 418 768 q 601 762 524 783 q 646 765 627 755 q 680 794 666 774 q 700 839 693 814 q 709 888 707 864 q 708 932 711 913 q 697 960 705 952 q 645 1000 677 982 q 572 1030 613 1019 q 484 1046 532 1042 q 382 1043 435 1050 q 219 965 285 1029 q 117 808 153 901 q 72 606 80 715 q 83 397 64 498 q 149 214 103 296 q 266 92 195 132 q 431 66 336 52 q 643 174 526 81 l 643 88 q 692 64 661 71 q 755 60 723 57 q 815 73 788 62 q 849 100 842 84 l 838 602 l 454 608 m 897 663 l 909 88 q 841 23 891 47 q 736 -1 791 -1 q 658 13 697 -1 q 586 62 618 27 q 478 16 529 30 q 380 1 427 1 q 221 48 290 1 q 105 171 152 95 q 34 345 58 247 q 9 545 9 444 q 31 737 9 643 q 98 909 53 831 q 212 1038 144 986 q 374 1104 281 1090 l 373 1103 q 413 1107 396 1105 q 448 1108 430 1108 q 621 1077 544 1108 q 741 1002 699 1046 q 763 961 755 986 q 770 907 770 936 q 760 830 770 871 q 726 757 749 789 q 669 707 704 724 q 585 704 633 690 l 586 703 q 499 716 536 716 q 439 704 464 716 q 399 671 415 692 q 376 625 384 651 q 365 572 368 600 q 396 632 376 606 q 439 669 416 658 l 897 663 m 258 1378 q 304 1289 270 1325 q 386 1232 339 1252 q 486 1211 433 1213 q 586 1227 538 1210 q 671 1283 633 1245 q 724 1381 708 1321 q 716 1425 726 1405 q 690 1456 707 1444 q 650 1470 673 1468 q 604 1462 628 1472 q 551 1393 585 1413 q 484 1375 518 1373 q 420 1399 449 1378 q 385 1453 392 1420 q 334 1467 358 1472 q 291 1447 309 1462 q 263 1411 273 1431 q 258 1378 254 1390 m 203 1359 q 206 1404 198 1375 q 233 1459 214 1432 q 280 1506 252 1487 q 342 1526 308 1526 q 438 1487 378 1526 q 457 1448 442 1462 q 491 1434 472 1434 q 525 1451 507 1434 q 557 1508 543 1469 q 605 1523 583 1518 q 642 1529 627 1529 q 699 1517 671 1529 q 745 1485 726 1506 q 774 1436 764 1465 q 783 1374 784 1408 q 738 1275 768 1317 q 669 1206 708 1233 q 585 1165 631 1179 q 492 1152 538 1152 q 397 1166 444 1152 q 310 1207 350 1180 q 241 1274 270 1234 q 201 1364 213 1313 l 203 1359 z "},"Ĝ":{"ha":918,"x_min":9,"x_max":909,"o":"m 454 608 q 431 583 442 602 q 415 537 420 563 q 411 483 410 511 q 422 431 412 454 q 451 392 431 407 q 503 380 471 377 l 589 388 q 507 314 552 332 q 421 307 463 296 q 348 355 380 317 q 308 450 316 393 q 302 516 304 477 q 308 597 301 555 q 332 677 315 639 q 384 742 350 716 q 471 775 418 768 q 601 762 524 783 q 646 765 627 755 q 680 794 666 774 q 700 839 693 814 q 709 888 707 864 q 708 932 711 913 q 697 960 705 952 q 645 1000 677 982 q 572 1030 613 1019 q 484 1046 532 1042 q 382 1043 435 1050 q 219 965 285 1029 q 117 808 153 901 q 72 606 80 715 q 83 397 64 498 q 149 214 103 296 q 266 92 195 132 q 431 66 336 52 q 643 174 526 81 l 643 88 q 692 64 661 71 q 755 60 723 57 q 815 73 788 62 q 849 100 842 84 l 838 602 l 454 608 m 897 663 l 909 88 q 841 23 891 47 q 736 -1 791 -1 q 658 13 697 -1 q 586 62 618 27 q 478 16 529 30 q 380 1 427 1 q 221 48 290 1 q 105 171 152 95 q 34 345 58 247 q 9 545 9 444 q 31 737 9 643 q 98 909 53 831 q 212 1038 144 986 q 374 1104 281 1090 l 373 1103 q 413 1107 396 1105 q 448 1108 430 1108 q 621 1077 544 1108 q 741 1002 699 1046 q 763 961 755 986 q 770 907 770 936 q 760 830 770 871 q 726 757 749 789 q 669 707 704 724 q 585 704 633 690 l 586 703 q 499 716 536 716 q 439 704 464 716 q 399 671 415 692 q 376 625 384 651 q 365 572 368 600 q 396 632 376 606 q 439 669 416 658 l 897 663 m 534 1480 q 501 1506 525 1495 q 450 1518 477 1516 q 397 1512 423 1520 q 355 1480 370 1503 l 227 1293 q 255 1238 235 1261 q 300 1203 275 1215 q 350 1192 326 1191 q 391 1207 374 1192 l 448 1302 l 495 1217 q 538 1190 518 1194 q 577 1194 559 1185 q 609 1217 595 1202 q 631 1251 623 1233 q 643 1282 640 1268 q 640 1302 646 1297 l 534 1480 m 684 1340 q 693 1289 697 1324 q 670 1218 689 1253 q 621 1156 651 1183 q 552 1130 590 1130 q 500 1142 528 1130 q 446 1184 473 1154 l 445 1184 q 441 1177 442 1181 q 437 1171 439 1173 q 392 1141 415 1150 q 349 1133 369 1133 q 294 1144 323 1133 q 240 1178 266 1156 q 194 1232 214 1200 q 164 1303 174 1264 l 307 1512 q 366 1563 330 1548 q 441 1577 403 1577 q 525 1558 484 1577 q 585 1511 566 1539 l 684 1340 z "},"Ģ":{"ha":918,"x_min":9,"x_max":909,"o":"m 454 608 q 431 583 442 602 q 415 537 420 563 q 411 483 410 511 q 422 431 412 454 q 451 392 431 407 q 503 380 471 377 l 589 388 q 507 314 552 332 q 421 307 463 296 q 348 355 380 317 q 308 450 316 393 q 302 516 304 477 q 308 597 301 555 q 332 677 315 639 q 384 742 350 716 q 471 775 418 768 q 601 762 524 783 q 646 765 627 755 q 680 794 666 774 q 700 839 693 814 q 709 888 707 864 q 708 932 711 913 q 697 960 705 952 q 645 1000 677 982 q 572 1030 613 1019 q 484 1046 532 1042 q 382 1043 435 1050 q 219 965 285 1029 q 117 808 153 901 q 72 606 80 715 q 83 397 64 498 q 149 214 103 296 q 266 92 195 132 q 431 66 336 52 q 643 174 526 81 l 643 88 q 692 64 661 71 q 755 60 723 57 q 815 73 788 62 q 849 100 842 84 l 838 602 l 454 608 m 897 663 l 909 88 q 841 23 891 47 q 736 -1 791 -1 q 658 13 697 -1 q 586 62 618 27 q 478 16 529 30 q 380 1 427 1 q 221 48 290 1 q 105 171 152 95 q 34 345 58 247 q 9 545 9 444 q 31 737 9 643 q 98 909 53 831 q 212 1038 144 986 q 374 1104 281 1090 l 373 1103 q 413 1107 396 1105 q 448 1108 430 1108 q 621 1077 544 1108 q 741 1002 699 1046 q 763 961 755 986 q 770 907 770 936 q 760 830 770 871 q 726 757 749 789 q 669 707 704 724 q 585 704 633 690 l 586 703 q 499 716 536 716 q 439 704 464 716 q 399 671 415 692 q 376 625 384 651 q 365 572 368 600 q 396 632 376 606 q 439 669 416 658 l 897 663 m 503 -392 q 581 -404 543 -412 q 650 -367 620 -395 q 695 -298 680 -339 q 705 -210 711 -256 q 675 -142 696 -171 q 628 -98 654 -114 q 574 -81 602 -83 q 521 -94 545 -80 q 469 -151 484 -114 q 458 -220 453 -187 q 491 -273 464 -252 q 568 -281 518 -293 q 566 -323 574 -304 q 545 -357 557 -343 q 519 -381 532 -372 q 503 -392 506 -391 m 419 -431 q 429 -416 419 -431 q 450 -384 438 -401 q 471 -351 461 -366 q 484 -335 481 -336 q 420 -283 441 -320 q 399 -202 399 -245 q 422 -115 399 -159 q 492 -43 445 -71 q 570 -22 528 -22 q 631 -34 601 -22 q 688 -69 662 -46 q 734 -125 715 -92 q 764 -201 754 -159 q 739 -337 766 -281 q 665 -424 712 -393 q 553 -457 617 -454 q 419 -431 490 -460 z "},"Ġ":{"ha":918,"x_min":9,"x_max":909,"o":"m 454 608 q 431 583 442 602 q 415 537 420 563 q 411 483 410 511 q 422 431 412 454 q 451 392 431 407 q 503 380 471 377 l 589 388 q 507 314 552 332 q 421 307 463 296 q 348 355 380 317 q 308 450 316 393 q 302 516 304 477 q 308 597 301 555 q 332 677 315 639 q 384 742 350 716 q 471 775 418 768 q 601 762 524 783 q 646 765 627 755 q 680 794 666 774 q 700 839 693 814 q 709 888 707 864 q 708 932 711 913 q 697 960 705 952 q 645 1000 677 982 q 572 1030 613 1019 q 484 1046 532 1042 q 382 1043 435 1050 q 219 965 285 1029 q 117 808 153 901 q 72 606 80 715 q 83 397 64 498 q 149 214 103 296 q 266 92 195 132 q 431 66 336 52 q 643 174 526 81 l 643 88 q 692 64 661 71 q 755 60 723 57 q 815 73 788 62 q 849 100 842 84 l 838 602 l 454 608 m 897 663 l 909 88 q 841 23 891 47 q 736 -1 791 -1 q 658 13 697 -1 q 586 62 618 27 q 478 16 529 30 q 380 1 427 1 q 221 48 290 1 q 105 171 152 95 q 34 345 58 247 q 9 545 9 444 q 31 737 9 643 q 98 909 53 831 q 212 1038 144 986 q 374 1104 281 1090 l 373 1103 q 413 1107 396 1105 q 448 1108 430 1108 q 621 1077 544 1108 q 741 1002 699 1046 q 763 961 755 986 q 770 907 770 936 q 760 830 770 871 q 726 757 749 789 q 669 707 704 724 q 585 704 633 690 l 586 703 q 499 716 536 716 q 439 704 464 716 q 399 671 415 692 q 376 625 384 651 q 365 572 368 600 q 396 632 376 606 q 439 669 416 658 l 897 663 m 533 1179 q 592 1197 568 1180 q 629 1238 616 1214 q 642 1289 642 1261 q 631 1341 643 1317 q 595 1381 620 1366 q 533 1398 571 1397 q 450 1359 477 1394 q 424 1284 423 1324 q 452 1212 425 1245 q 533 1179 479 1179 m 532 1120 q 460 1135 491 1120 q 408 1172 429 1149 q 376 1225 387 1195 q 365 1286 365 1255 q 375 1345 365 1316 q 406 1398 385 1374 q 457 1438 426 1421 q 529 1457 488 1454 q 605 1442 572 1457 q 659 1405 637 1428 q 690 1353 680 1382 q 700 1294 700 1324 q 689 1232 700 1263 q 658 1177 678 1202 q 607 1137 637 1153 q 536 1120 576 1122 l 532 1120 z "},"Ħ":{"ha":848,"x_min":14,"x_max":831,"o":"m 385 624 l 384 693 l 477 694 l 476 621 l 385 624 m 77 99 q 149 66 102 72 q 243 66 195 61 q 329 83 292 72 q 373 103 366 95 l 385 408 l 471 408 l 473 95 q 526 73 486 83 q 613 62 566 64 q 705 71 661 61 q 769 106 749 81 l 770 977 q 753 1017 772 1001 q 706 1042 735 1034 q 642 1053 677 1051 q 574 1048 606 1054 q 516 1032 541 1043 q 481 1005 491 1021 l 480 894 l 381 892 l 380 991 q 323 1034 369 1020 q 223 1048 277 1048 q 125 1035 170 1048 q 73 993 80 1021 l 77 99 m 14 1000 q 39 1048 19 1027 q 87 1082 58 1069 q 151 1103 115 1096 q 222 1109 186 1109 q 340 1089 283 1109 q 426 1028 396 1069 q 510 1090 453 1067 q 628 1114 567 1114 q 703 1105 666 1114 q 769 1080 741 1097 q 814 1038 798 1063 q 831 977 831 1012 q 831 531 831 758 q 830 84 830 304 q 736 20 792 38 q 623 3 680 3 q 562 7 593 3 q 505 21 532 12 q 454 41 477 30 q 418 66 431 53 q 377 45 403 57 q 321 24 351 34 q 257 9 290 15 q 193 3 224 3 q 100 19 146 3 q 16 75 54 35 l 14 1000 z "},"Ĥ":{"ha":848,"x_min":14,"x_max":831,"o":"m 77 99 q 147 66 102 72 q 239 66 193 61 q 321 83 285 72 q 363 103 357 95 l 376 408 l 486 408 l 490 95 q 539 73 502 83 q 621 62 576 64 q 707 71 665 61 q 769 106 749 81 l 770 977 q 754 1017 772 1001 q 709 1042 736 1034 q 649 1053 682 1051 q 585 1048 616 1054 q 530 1032 555 1043 q 496 1005 506 1021 l 492 621 l 376 624 l 370 991 q 340 1023 363 1010 q 285 1043 316 1036 q 218 1049 254 1050 q 152 1042 183 1048 q 99 1024 121 1036 q 73 993 77 1012 l 77 99 m 14 1000 q 39 1048 19 1027 q 86 1082 58 1069 q 148 1103 114 1096 q 217 1109 182 1109 q 286 1103 251 1109 q 349 1082 320 1096 q 399 1048 378 1069 q 430 1000 420 1027 l 433 819 q 435 922 434 871 q 437 1021 435 974 q 471 1060 449 1043 q 519 1089 492 1077 q 576 1107 545 1101 q 636 1114 606 1114 q 708 1105 673 1114 q 771 1080 743 1097 q 815 1038 799 1063 q 831 977 831 1012 q 831 531 831 758 q 830 84 830 304 q 737 20 792 38 q 631 3 682 3 q 571 8 601 3 q 514 22 541 14 q 465 44 487 31 q 429 72 442 57 l 429 195 q 425 136 426 165 q 423 80 425 107 q 391 57 415 71 q 334 31 368 43 q 263 11 301 19 q 191 3 225 3 q 100 19 145 3 q 16 75 54 35 l 14 1000 m 500 1480 q 467 1506 491 1495 q 416 1518 444 1516 q 363 1512 389 1520 q 321 1480 336 1503 l 193 1293 q 221 1238 201 1261 q 267 1203 241 1215 q 316 1192 292 1191 q 357 1207 340 1192 l 414 1302 l 461 1217 q 505 1190 484 1194 q 543 1194 525 1185 q 575 1217 562 1202 q 597 1251 589 1233 q 609 1282 606 1268 q 606 1302 612 1297 l 500 1480 m 650 1340 q 659 1289 663 1324 q 636 1218 655 1253 q 587 1156 617 1183 q 518 1130 556 1130 q 467 1142 494 1130 q 412 1184 439 1154 l 411 1184 q 407 1177 408 1181 q 403 1171 406 1173 q 358 1141 381 1150 q 315 1133 335 1133 q 260 1144 289 1133 q 206 1178 232 1156 q 160 1232 180 1200 q 130 1303 140 1264 l 273 1512 q 332 1563 296 1548 q 407 1577 369 1577 q 491 1558 450 1577 q 551 1511 532 1539 l 650 1340 z "},"Í":{"ha":743,"x_min":-7,"x_max":722,"o":"m 618 73 q 657 144 650 102 q 660 228 665 187 q 644 300 655 269 q 627 338 632 331 l 465 338 l 461 811 l 602 808 q 641 878 631 844 q 648 942 651 911 q 633 1000 646 972 q 602 1047 620 1027 l 119 1050 q 75 1014 90 1036 q 56 966 60 991 q 58 913 53 940 q 71 865 62 887 q 90 827 80 842 q 107 808 100 811 l 236 808 l 235 339 l 100 332 q 83 297 96 330 q 64 222 71 264 q 68 136 58 179 q 117 72 77 94 l 618 73 m 102 11 q 22 88 43 42 q 1 186 1 134 q 12 254 1 218 q 35 318 22 289 q 62 368 49 347 q 79 392 75 388 l 174 397 q 174 486 174 444 q 174 568 174 528 q 175 652 175 609 q 175 747 175 696 l 94 747 q 64 772 81 753 q 32 819 47 791 q 5 879 16 846 q -7 944 -7 911 q 18 1037 -7 991 q 104 1109 43 1082 l 629 1107 q 686 1021 665 1066 q 708 928 708 975 q 691 845 708 890 q 631 747 674 800 l 521 750 q 522 662 521 704 q 524 578 522 620 q 526 493 525 537 q 526 399 526 449 l 652 399 q 672 369 661 391 q 694 318 684 347 q 713 256 705 289 q 722 191 722 222 q 705 100 722 145 q 642 12 688 54 l 102 11 m 269 1293 q 266 1252 256 1276 q 297 1209 275 1227 q 347 1185 319 1191 q 397 1203 374 1180 l 521 1397 q 504 1452 521 1430 q 464 1485 487 1474 q 416 1492 441 1495 q 374 1470 391 1489 l 269 1293 m 222 1326 l 324 1500 q 372 1539 345 1526 q 427 1552 400 1552 q 482 1540 454 1552 q 532 1506 510 1529 q 567 1452 553 1484 q 579 1379 581 1420 l 444 1168 q 399 1136 420 1145 q 355 1127 377 1127 q 288 1149 320 1127 q 235 1203 256 1172 q 209 1269 214 1234 q 222 1328 203 1303 l 218 1321 l 222 1326 z "},"Ĭ":{"ha":712,"x_min":-7,"x_max":722,"o":"m 618 73 q 657 144 650 102 q 660 228 665 187 q 644 300 655 269 q 627 338 632 331 l 465 338 l 461 811 l 602 808 q 641 878 631 844 q 648 942 651 911 q 633 1000 646 972 q 602 1047 620 1027 l 119 1050 q 75 1014 90 1036 q 56 966 60 991 q 58 913 53 940 q 71 865 62 887 q 90 827 80 842 q 107 808 100 811 l 236 808 l 235 339 l 100 332 q 83 297 96 330 q 64 222 71 264 q 68 136 58 179 q 117 72 77 94 l 618 73 m 102 11 q 22 88 43 42 q 1 186 1 134 q 12 254 1 218 q 35 318 22 289 q 62 368 49 347 q 79 392 75 388 l 174 397 q 174 486 174 444 q 174 568 174 528 q 175 652 175 609 q 175 747 175 696 l 94 747 q 64 772 81 753 q 32 819 47 791 q 5 879 16 846 q -7 944 -7 911 q 18 1037 -7 991 q 104 1109 43 1082 l 629 1107 q 686 1021 665 1066 q 708 928 708 975 q 691 845 708 890 q 631 747 674 800 l 521 750 q 522 662 521 704 q 524 578 522 620 q 526 493 525 537 q 526 399 526 449 l 652 399 q 672 369 661 391 q 694 318 684 347 q 713 256 705 289 q 722 191 722 222 q 705 100 722 145 q 642 12 688 54 l 102 11 m 153 1378 q 200 1289 165 1325 q 281 1232 235 1252 q 381 1211 328 1213 q 481 1227 434 1210 q 566 1283 529 1245 q 620 1381 604 1321 q 612 1425 621 1405 q 585 1456 602 1444 q 546 1470 568 1468 q 499 1462 524 1472 q 447 1393 480 1413 q 379 1375 414 1373 q 316 1399 345 1378 q 281 1453 288 1420 q 229 1467 254 1472 q 186 1447 205 1462 q 159 1411 168 1431 q 153 1378 149 1390 m 99 1359 q 102 1404 94 1375 q 129 1459 110 1432 q 176 1506 148 1487 q 237 1526 203 1526 q 334 1487 274 1526 q 353 1448 338 1462 q 387 1434 368 1434 q 420 1451 403 1434 q 453 1508 438 1469 q 500 1523 479 1518 q 537 1529 522 1529 q 594 1517 567 1529 q 640 1485 621 1506 q 669 1436 659 1465 q 678 1374 680 1408 q 633 1275 663 1317 q 565 1206 604 1233 q 480 1165 526 1179 q 388 1152 434 1152 q 292 1166 339 1152 q 205 1207 245 1180 q 137 1274 165 1234 q 96 1364 109 1313 l 99 1359 z "},"Î":{"ha":738,"x_min":-7,"x_max":722,"o":"m 618 73 q 657 144 650 102 q 660 228 665 187 q 644 300 655 269 q 627 338 632 331 l 465 338 l 461 811 l 602 808 q 641 878 631 844 q 648 942 651 911 q 633 1000 646 972 q 602 1047 620 1027 l 119 1050 q 75 1014 90 1036 q 56 966 60 991 q 58 913 53 940 q 71 865 62 887 q 90 827 80 842 q 107 808 100 811 l 236 808 l 235 339 l 100 332 q 83 297 96 330 q 64 222 71 264 q 68 136 58 179 q 117 72 77 94 l 618 73 m 102 11 q 22 88 43 42 q 1 186 1 134 q 12 254 1 218 q 35 318 22 289 q 62 368 49 347 q 79 392 75 388 l 174 397 q 174 486 174 444 q 174 568 174 528 q 175 652 175 609 q 175 747 175 696 l 94 747 q 64 772 81 753 q 32 819 47 791 q 5 879 16 846 q -7 944 -7 911 q 18 1037 -7 991 q 104 1109 43 1082 l 629 1107 q 686 1021 665 1066 q 708 928 708 975 q 691 845 708 890 q 631 747 674 800 l 521 750 q 522 662 521 704 q 524 578 522 620 q 526 493 525 537 q 526 399 526 449 l 652 399 q 672 369 661 391 q 694 318 684 347 q 713 256 705 289 q 722 191 722 222 q 705 100 722 145 q 642 12 688 54 l 102 11 m 430 1480 q 397 1506 420 1495 q 346 1518 373 1516 q 292 1512 319 1520 q 251 1480 266 1503 l 122 1293 q 151 1238 130 1261 q 196 1203 171 1215 q 245 1192 221 1191 q 286 1207 270 1192 l 343 1302 l 391 1217 q 434 1190 414 1194 q 473 1194 454 1185 q 505 1217 491 1202 q 527 1251 518 1233 q 538 1282 536 1268 q 536 1302 541 1297 l 430 1480 m 579 1340 q 589 1289 593 1324 q 566 1218 585 1253 q 516 1156 547 1183 q 448 1130 486 1130 q 396 1142 423 1130 q 342 1184 369 1154 l 340 1184 q 336 1177 338 1181 q 332 1171 335 1173 q 288 1141 311 1150 q 244 1133 264 1133 q 190 1144 218 1133 q 136 1178 161 1156 q 90 1232 110 1200 q 60 1303 69 1264 l 202 1512 q 262 1563 225 1548 q 336 1577 298 1577 q 420 1558 380 1577 q 480 1511 461 1539 l 579 1340 z "},"Ï":{"ha":773,"x_min":-7,"x_max":722,"o":"m 618 73 q 657 144 650 102 q 660 228 665 187 q 644 300 655 269 q 627 338 632 331 l 465 338 l 461 811 l 602 808 q 641 878 631 844 q 648 942 651 911 q 633 1000 646 972 q 602 1047 620 1027 l 119 1050 q 75 1014 90 1036 q 56 966 60 991 q 58 913 53 940 q 71 865 62 887 q 90 827 80 842 q 107 808 100 811 l 236 808 l 235 339 l 100 332 q 83 297 96 330 q 64 222 71 264 q 68 136 58 179 q 117 72 77 94 l 618 73 m 102 11 q 22 88 43 42 q 1 186 1 134 q 12 254 1 218 q 35 318 22 289 q 62 368 49 347 q 79 392 75 388 l 174 397 q 174 486 174 444 q 174 568 174 528 q 175 652 175 609 q 175 747 175 696 l 94 747 q 64 772 81 753 q 32 819 47 791 q 5 879 16 846 q -7 944 -7 911 q 18 1037 -7 991 q 104 1109 43 1082 l 629 1107 q 686 1021 665 1066 q 708 928 708 975 q 691 845 708 890 q 631 747 674 800 l 521 750 q 522 662 521 704 q 524 578 522 620 q 526 493 525 537 q 526 399 526 449 l 652 399 q 672 369 661 391 q 694 318 684 347 q 713 256 705 289 q 722 191 722 222 q 705 100 722 145 q 642 12 688 54 l 102 11 m 553 1192 q 612 1210 587 1194 q 648 1251 636 1226 q 662 1303 661 1275 q 652 1355 663 1331 q 616 1395 640 1379 q 553 1412 591 1411 q 492 1392 517 1409 q 456 1350 468 1374 q 444 1297 444 1325 q 457 1246 445 1270 q 493 1208 469 1223 q 553 1192 517 1192 m 170 1183 q 228 1200 203 1184 q 264 1241 252 1217 q 278 1293 277 1265 q 267 1345 279 1321 q 231 1385 255 1370 q 170 1402 208 1401 q 108 1382 133 1400 q 71 1340 83 1364 q 60 1288 60 1316 q 73 1237 60 1260 q 109 1198 85 1214 q 170 1183 133 1183 m 168 1124 q 96 1139 127 1124 q 44 1175 65 1153 q 12 1227 23 1198 q 1 1289 1 1257 q 12 1348 1 1318 q 42 1402 22 1378 q 93 1442 62 1426 q 165 1461 123 1458 q 241 1447 209 1461 q 294 1409 273 1432 q 326 1357 316 1386 q 336 1297 336 1328 q 326 1236 336 1265 q 294 1181 315 1206 q 242 1141 273 1157 q 171 1124 212 1126 l 168 1124 m 552 1134 q 480 1148 511 1134 q 428 1185 449 1162 q 396 1237 407 1207 q 385 1298 385 1267 q 395 1358 385 1328 q 426 1411 406 1388 q 477 1451 446 1435 q 549 1470 509 1468 q 625 1456 593 1470 q 679 1419 658 1442 q 710 1367 700 1396 q 720 1306 720 1337 q 709 1245 720 1275 q 678 1191 699 1215 q 627 1151 658 1166 q 556 1134 597 1135 l 552 1134 z "},"İ":{"ha":734,"x_min":4,"x_max":732,"o":"m 629 73 q 668 144 661 102 q 671 228 675 187 q 654 300 666 269 q 637 338 643 331 l 476 338 l 472 811 l 613 808 q 652 878 642 844 q 659 942 662 911 q 644 1000 656 972 q 613 1047 631 1027 l 130 1050 q 85 1014 100 1036 q 67 966 71 991 q 68 913 64 940 q 82 865 73 887 q 101 827 91 842 q 118 808 111 811 l 247 808 l 245 339 l 111 332 q 94 297 107 330 q 75 222 81 264 q 79 136 69 179 q 127 72 88 94 l 629 73 m 113 11 q 33 88 54 42 q 12 186 12 134 q 22 254 12 218 q 46 318 33 289 q 73 368 60 347 q 90 392 85 388 l 184 397 q 184 486 184 444 q 185 568 184 528 q 186 652 186 609 q 186 747 186 696 l 104 747 q 75 772 92 753 q 43 819 58 791 q 16 879 27 846 q 4 944 4 911 q 29 1037 4 991 q 115 1109 54 1082 l 640 1107 q 697 1021 675 1066 q 719 928 719 975 q 702 845 719 890 q 642 747 685 800 l 532 750 q 532 662 532 704 q 534 578 533 620 q 536 493 536 537 q 537 399 537 449 l 663 399 q 683 369 671 391 q 705 318 694 347 q 724 256 716 289 q 732 191 732 222 q 715 100 732 145 q 652 12 699 54 l 113 11 m 366 1196 q 425 1215 401 1198 q 462 1255 449 1232 q 475 1307 475 1279 q 465 1359 476 1335 q 429 1399 453 1383 q 366 1416 404 1415 q 283 1377 311 1412 q 257 1302 256 1341 q 285 1230 258 1263 q 366 1196 312 1196 m 365 1138 q 293 1152 324 1138 q 241 1190 262 1166 q 209 1242 220 1213 q 198 1303 198 1272 q 208 1362 198 1333 q 239 1415 218 1392 q 290 1455 259 1439 q 362 1474 321 1472 q 438 1460 406 1474 q 492 1423 471 1446 q 523 1371 513 1400 q 533 1312 533 1341 q 522 1250 533 1280 q 491 1195 511 1219 q 440 1155 471 1171 q 369 1138 410 1139 l 365 1138 z "},"Ì":{"ha":738,"x_min":-7,"x_max":722,"o":"m 618 73 q 657 144 650 102 q 660 228 665 187 q 644 300 655 269 q 627 338 632 331 l 465 338 l 461 811 l 602 808 q 641 878 631 844 q 648 942 651 911 q 633 1000 646 972 q 602 1047 620 1027 l 119 1050 q 75 1014 90 1036 q 56 966 60 991 q 58 913 53 940 q 71 865 62 887 q 90 827 80 842 q 107 808 100 811 l 236 808 l 235 339 l 100 332 q 83 297 96 330 q 64 222 71 264 q 68 136 58 179 q 117 72 77 94 l 618 73 m 102 11 q 22 88 43 42 q 1 186 1 134 q 12 254 1 218 q 35 318 22 289 q 62 368 49 347 q 79 392 75 388 l 174 397 q 174 486 174 444 q 174 568 174 528 q 175 652 175 609 q 175 747 175 696 l 94 747 q 64 772 81 753 q 32 819 47 791 q 5 879 16 846 q -7 944 -7 911 q 18 1037 -7 991 q 104 1109 43 1082 l 629 1107 q 686 1021 665 1066 q 708 928 708 975 q 691 845 708 890 q 631 747 674 800 l 521 750 q 522 662 521 704 q 524 578 522 620 q 526 493 525 537 q 526 399 526 449 l 652 399 q 672 369 661 391 q 694 318 684 347 q 713 256 705 289 q 722 191 722 222 q 705 100 722 145 q 642 12 688 54 l 102 11 m 494 1314 q 500 1255 507 1289 q 473 1192 494 1222 q 421 1140 452 1161 q 357 1119 391 1119 q 312 1128 334 1119 q 267 1160 290 1137 l 132 1371 q 144 1444 132 1412 q 179 1498 157 1476 q 229 1532 201 1520 q 283 1544 256 1544 q 338 1531 311 1544 q 385 1496 365 1519 l 494 1314 m 338 1462 q 296 1484 321 1481 q 248 1476 271 1487 q 207 1444 224 1466 q 190 1389 190 1421 l 315 1195 q 365 1177 338 1172 q 414 1201 392 1183 q 445 1244 435 1219 q 442 1284 454 1268 l 338 1462 z "},"Ī":{"ha":712,"x_min":-7,"x_max":722,"o":"m 618 73 q 657 144 650 102 q 660 228 665 187 q 644 300 655 269 q 627 338 632 331 l 465 338 l 461 811 l 602 808 q 641 878 631 844 q 648 942 651 911 q 633 1000 646 972 q 602 1047 620 1027 l 119 1050 q 75 1014 90 1036 q 56 966 60 991 q 58 913 53 940 q 71 865 62 887 q 90 827 80 842 q 107 808 100 811 l 236 808 l 235 339 l 100 332 q 83 297 96 330 q 64 222 71 264 q 68 136 58 179 q 117 72 77 94 l 618 73 m 102 11 q 22 88 43 42 q 1 186 1 134 q 12 254 1 218 q 35 318 22 289 q 62 368 49 347 q 79 392 75 388 l 174 397 q 174 486 174 444 q 174 568 174 528 q 175 652 175 609 q 175 747 175 696 l 94 747 q 64 772 81 753 q 32 819 47 791 q 5 879 16 846 q -7 944 -7 911 q 18 1037 -7 991 q 104 1109 43 1082 l 629 1107 q 686 1021 665 1066 q 708 928 708 975 q 691 845 708 890 q 631 747 674 800 l 521 750 q 522 662 521 704 q 524 578 522 620 q 526 493 525 537 q 526 399 526 449 l 652 399 q 672 369 661 391 q 694 318 684 347 q 713 256 705 289 q 722 191 722 222 q 705 100 722 145 q 642 12 688 54 l 102 11 m 499 1196 q 528 1232 517 1202 q 541 1297 540 1263 q 531 1362 541 1332 q 496 1401 521 1393 l 194 1396 q 167 1381 179 1396 q 147 1344 155 1366 q 138 1297 140 1322 q 142 1249 137 1271 q 161 1211 148 1226 q 198 1194 175 1195 l 499 1196 m 197 1135 q 142 1149 164 1137 q 106 1183 121 1162 q 86 1230 92 1204 q 80 1284 80 1256 q 88 1345 80 1314 q 112 1400 96 1375 q 149 1439 127 1424 q 194 1454 170 1454 q 349 1457 270 1455 q 505 1459 429 1458 q 577 1400 555 1444 q 600 1306 600 1356 q 593 1253 600 1279 q 574 1202 586 1226 q 545 1162 562 1179 q 507 1138 528 1145 l 197 1135 z "},"Į":{"ha":712,"x_min":-12,"x_max":724,"o":"m 601 -100 q 559 -83 576 -102 q 534 -36 543 -64 q 525 22 525 -8 q 536 73 525 53 l 613 73 q 652 144 644 102 q 654 228 659 187 q 638 300 650 269 q 621 338 627 331 l 460 338 l 456 811 l 597 808 q 635 878 625 844 q 643 942 646 911 q 627 1000 640 972 q 597 1047 614 1027 l 114 1050 q 69 1014 84 1036 q 51 966 54 991 q 52 913 47 940 q 66 865 57 887 q 85 827 75 842 q 102 808 95 811 l 231 808 l 229 339 l 95 332 q 78 297 91 330 q 59 222 65 264 q 62 136 53 179 q 111 72 72 94 l 454 72 q 423 -33 427 22 q 439 -131 419 -87 q 503 -199 458 -175 q 618 -213 547 -224 q 657 -176 648 -197 q 661 -138 666 -156 q 640 -108 656 -119 q 601 -100 623 -96 m 586 12 q 589 -22 586 -7 q 595 -39 591 -37 l 591 -41 q 644 -44 620 -37 q 686 -67 669 -52 q 714 -105 704 -83 q 724 -152 724 -127 q 705 -214 724 -182 q 637 -271 685 -247 q 606 -275 618 -274 q 582 -275 593 -275 q 485 -257 526 -275 q 416 -208 444 -239 q 376 -137 389 -178 q 362 -50 362 -96 q 363 -20 362 -34 q 368 11 365 -5 l 96 11 q 18 88 39 42 q -4 186 -4 134 q 6 254 -4 218 q 30 318 16 289 q 56 368 43 347 q 73 392 69 388 l 168 397 q 168 486 168 444 q 169 568 168 528 q 170 652 170 609 q 170 747 170 696 l 88 747 q 59 772 76 753 q 26 819 42 791 q -1 879 11 846 q -12 944 -12 911 q 13 1037 -12 991 q 99 1109 38 1082 l 625 1107 q 682 1021 661 1066 q 704 928 704 975 q 686 845 704 890 q 627 747 669 800 l 515 750 q 516 662 515 704 q 518 578 517 620 q 520 493 519 537 q 521 399 521 449 l 648 399 q 667 369 655 391 q 689 318 678 347 q 708 256 700 289 q 716 191 716 222 q 699 100 716 145 q 637 12 682 54 l 586 12 z "}}}
